<svg xmlns="http://www.w3.org/2000/svg" viewBox="0 0 4680 3120"><defs><linearGradient id="a" x1="2118.67" x2="2358.83" y1="1008.55" y2="842.81" gradientUnits="userSpaceOnUse"><stop offset="0" stop-color="#fff"/><stop offset=".52" stop-color="#c9c9c9"/></linearGradient></defs><g data-name="10"><rect width="4680" height="3120" fill="#fff" data-name="10" opacity="0"/><path fill="#f5f5f7" d="M3159,1113S2714.14,351.79,1788.89,628.83,1080,1586.5,1080,1586.5s-396.58,846.36,198.29,941.06l2295.37-23.68s546.8-171.64,306.45-846.35S3159,1113,3159,1113Z"/><path fill="#153c93" d="M1421.3,2012.8s-11.69,11.51-15.59,11.51,313,113.87,313,113.87c28.58-15.35,7.8-39.66,7.8-39.66C1673.3,2038.38,1421.3,2012.8,1421.3,2012.8Z"/><ellipse cx="2308.49" cy="2534.82" fill="#7a8db0" rx="1453.54" ry="74.21"/><path fill="#2e6857" d="M1270.64,1750.1c-48.9,66.87-72.35,250.1-68.05,250.43,2.57.22,5.15.35,7.63.56,146.48,7.72,145.85-113.33,298.31-116.45,150.19-3.05,185.93-73.84,188-78.2a.32.32,0,0,1,.11-.24s-54.61-9.64-139.47-82.26S1319.62,1683.23,1270.64,1750.1Z"/><path fill="#185643" d="M1487.88,1790.37l3.11.34S1489.92,1790.54,1487.88,1790.37Z"/><path fill="#185643" d="M1108,2201.19l27.43,3.19c120.48-418.81,324.88-416.33,352.41-414C1229.64,1762.05,1108,2201.19,1108,2201.19Z"/><path fill="#28755f" d="M1543.11,1853.49c-70.06-4.19-126.91-44.06-192.6,56.93s-141.87,89.17-141.87,89.17l1.58,1.5c146.48,7.72,145.85-113.33,298.31-116.45,150.19-3.05,185.93-73.84,188-78.2C1678.29,1832,1612.92,1857.74,1543.11,1853.49Z"/><path fill="#40947e" d="M616.49,1346.53c29,27,32.54,89.5,69.19,205.31s71.91,68.94,126.21,160,196.22,119.32,196.22,119.32,26.93-216.2-63.34-348.7S616.49,1346.53,616.49,1346.53Z"/><path fill="#55aa67" d="M726.71,1450.47c283.81,133.43,344,753.27,344,753.27h31.61C1033.34,1570.59,726.71,1450.47,726.71,1450.47Z"/><path fill="#28755f" d="M914.54,1767.25c-79.74-25.32-129.89-92.51-129.89-92.51s56.05,129.08,206.79,152.36C991.44,1827.1,994.28,1792.58,914.54,1767.25Z"/><path fill="#28755f" d="M696.62,1502.38c-27.06-109.79-75.51-155.85-75.51-155.85,29.45,47.74,27.89,91.89,52.78,191S767,1655.06,767,1655.06C715.13,1609.49,717.73,1588.05,696.62,1502.38Z"/><path fill="#55aa67" d="M1284.43,1439.74l-99.66,312.34s120.37-8.46,152.5-118.06,64.39-119.55,127-135.26,148.54-108.61,166.4-161.56l-211.23,93.87Z"/><path fill="#6fc183" d="M1355,1260.73c-110.81,16.8-94.93,69.48-202.47,213.17-97,129.62,32.28,278.18,32.28,278.18,188.78-66.88,66-250.76,230.61-269.67s215.29-145.21,215.29-145.21C1564.19,1347.19,1465.77,1243.94,1355,1260.73Z"/><path fill="#40947e" d="M1395,1351.79l.18-.11Z"/><path fill="#40947e" d="M1126.85,2187.28l29.58,3s-13.76-226.93,49.5-479.79c71.7-286.6,183.88-355.61,189-358.66C1127.51,1504.93,1126.85,2187.28,1126.85,2187.28Z"/><path fill="#6fc183" d="M817.2,1808.63c-117-33-225.85-58.08-312.79,58.11,0,0-31.31,52.87-54.08,58.32,0,0,73.61,68.82,237.06,4.85,0,0,35-32.76,70.9,5s120.47,133.51,186.5,67.54C944.79,2002.44,934.2,1841.59,817.2,1808.63Z"/><path fill="#55aa67" d="M758.29,1934.9c-35.9-37.75-70.9-5-70.9-5-153.19,59.95-227.46,3.27-236.18-4.09,9.58,8.24,101.91,83.2,227.49,26.92,0,0,44.44-9.89,65.35,18.24,19.4,26.11,97.47,99.7,181.19,46.19C862.91,2050.46,790.74,1969,758.29,1934.9Z"/><path fill="#28755f" d="M602.94,1877.78c-3.51.79-5.33,1.4-5.33,1.4C599.39,1878.69,601.16,1878.23,602.94,1877.78Z"/><path fill="#28755f" d="M602.94,1877.78c34.68-7.86,235.11-33.91,489.29,329.62l18.37-10.83S881.34,1806.61,602.94,1877.78Z"/><path fill="#2e6857" d="M1255.15,1402.61s-177,68-218.32,192.89c-65.86,198.91,46.05,288.18,46.05,288.18s102.72-59.63,120.08-144.91,57.62-58.17,54.48-158S1240,1431.34,1255.15,1402.61Z"/><path fill="#55aa67" d="M1111.39,2198.64l24.6-8.38s-122.6-498.39,61.79-677.52C1197.78,1512.74,992,1687.57,1111.39,2198.64Z"/><path fill="#185643" d="M1214,1649c-29.4,27.74-25.26,30.5-48.16,100.83s-68.77,123.49-68.77,123.49c102.2-67.49,105.86-134.58,111.48-157.5s30.27-53.4,30.27-53.4c36-63.31,8.88-188.53,8.88-188.53S1243.43,1621.29,1214,1649Z"/><polygon fill="#f3ce90" points="899.29 2529.86 1207.95 2532.22 1274.95 2058.5 853.83 2051.43 899.29 2529.86"/><polygon fill="#ef7c59" points="877.16 2316.28 1238.76 2316.28 1251.32 2240.27 870.88 2238.5 877.16 2316.28"/><polygon fill="#ef7c59" points="883.44 2372.84 1226.2 2387.86 1229.79 2369.3 883.44 2355.16 883.44 2372.84"/><path fill="#6fc183" d="M3803.63,1763.85c-48.9,66.87-72.36,250.1-68.05,250.43,2.57.22,5.14.36,7.63.56,146.48,7.72,145.84-113.33,298.3-116.45,150.2-3.05,185.93-73.83,188.05-78.2a.3.3,0,0,1,.11-.23s-54.61-9.65-139.47-82.26S3852.6,1697,3803.63,1763.85Z"/><path fill="#28755f" d="M4020.87,1804.13c1,.11,2.07.21,3.11.34C4024,1804.47,4022.9,1804.3,4020.87,1804.13Z"/><path fill="#28755f" d="M3641,2214.94l27.43,3.19c120.48-418.81,324.87-416.32,352.41-414C3762.63,1775.8,3641,2214.94,3641,2214.94Z"/><path fill="#55aa67" d="M4076.1,1867.25c-70.07-4.19-126.91-44.07-192.6,56.92s-141.87,89.17-141.87,89.17l1.58,1.5c146.48,7.72,145.84-113.33,298.3-116.45,150.2-3.05,185.93-73.83,188.05-78.2C4211.28,1845.74,4145.9,1871.49,4076.1,1867.25Z"/><path fill="#6fc183" d="M3149.48,1360.28c29,27,32.54,89.5,69.19,205.31s71.9,68.94,126.21,160,196.21,119.32,196.21,119.32,26.94-216.2-63.33-348.7S3149.48,1360.28,3149.48,1360.28Z"/><path fill="#28755f" d="M3259.7,1464.22c283.8,133.43,344,753.27,344,753.27h31.61C3566.33,1584.35,3259.7,1464.22,3259.7,1464.22Z"/><path fill="#55aa67" d="M3447.53,1781c-79.74-25.33-129.89-92.51-129.89-92.51s56.05,129.07,206.79,152.36C3524.43,1840.86,3527.27,1806.33,3447.53,1781Z"/><path fill="#55aa67" d="M3229.6,1516.13c-27-109.79-75.51-155.85-75.51-155.85,29.46,47.74,27.9,91.9,52.79,191S3300,1668.82,3300,1668.82C3248.12,1623.24,3250.71,1601.8,3229.6,1516.13Z"/><path fill="#28755f" d="M3817.42,1453.49l-99.66,312.35s120.37-8.47,152.5-118.06,64.39-119.56,127-135.27S4145.8,1403.9,4163.66,1351l-211.24,93.87Z"/><path fill="#40947e" d="M3887.94,1274.49c-110.81,16.79-94.92,69.47-202.46,213.17-97,129.61,32.28,278.18,32.28,278.18,188.78-66.89,66-250.76,230.61-269.67S4163.66,1351,4163.66,1351C4097.18,1360.94,3998.75,1257.69,3887.94,1274.49Z"/><path fill="#55aa67" d="M3928,1365.54l.18-.1Z"/><path fill="#55aa67" d="M3659.84,2201l29.58,3s-13.76-226.93,49.5-479.78c71.7-286.61,183.87-355.62,189-358.67C3660.49,1518.68,3659.84,2201,3659.84,2201Z"/><path fill="#6fc183" d="M3350.18,1822.38c-117-33-225.85-58.07-312.78,58.11,0,0-31.32,52.87-54.08,58.32,0,0,73.6,68.82,237,4.86,0,0,35-32.76,70.91,5s120.47,133.51,186.49,67.54C3477.77,2016.19,3467.18,1855.34,3350.18,1822.38Z"/><path fill="#185643" d="M3291.28,1948.65c-35.91-37.74-70.91-5-70.91-5-153.19,59.95-227.45,3.26-236.18-4.09,9.58,8.23,101.91,83.19,227.5,26.91,0,0,44.44-9.88,65.35,18.25,19.4,26.1,97.47,99.7,181.19,46.18C3395.9,2064.22,3323.72,1982.76,3291.28,1948.65Z"/><path fill="#185643" d="M3135.93,1891.53c34.68-7.85,235.11-33.91,489.29,329.62l18.36-10.83S3414.33,1820.37,3135.93,1891.53Z"/><path fill="#185643" d="M3135.93,1891.53c-3.51.8-5.33,1.41-5.33,1.41C3132.38,1892.44,3134.15,1892,3135.93,1891.53Z"/><path fill="#2e6857" d="M3788.13,1416.36s-177,68-218.32,192.89c-65.86,198.91,46.05,288.18,46.05,288.18s102.72-59.62,120.09-144.91,57.62-58.17,54.47-158S3773,1445.09,3788.13,1416.36Z"/><path fill="#28755f" d="M3644.38,2212.4,3669,2204s-122.6-498.38,61.79-677.51C3730.77,1526.5,3525,1701.33,3644.38,2212.4Z"/><path fill="#185643" d="M3747,1662.78c-29.41,27.74-25.26,30.5-48.16,100.83s-68.77,123.49-68.77,123.49c102.19-67.49,105.86-134.58,111.48-157.5s30.27-53.39,30.27-53.39c35.94-63.32,8.88-188.54,8.88-188.54S3776.42,1635,3747,1662.78Z"/><polygon fill="#f3ce90" points="3432.28 2543.61 3740.94 2545.97 3807.93 2072.26 3386.82 2065.19 3432.28 2543.61"/><polygon fill="#ef7c59" points="3410.14 2330.03 3771.74 2330.03 3784.31 2254.03 3403.86 2252.26 3410.14 2330.03" opacity=".48"/><polygon fill="#ef7c59" points="3416.43 2386.59 3759.18 2401.62 3762.77 2383.06 3416.43 2368.92 3416.43 2386.59" opacity=".48"/><path fill="#d1dbed" d="M3107.15,406.06H1446.55a21.24,21.24,0,0,0-21.23,21.23V1465.08a18.29,18.29,0,0,0,18.29,18.29H3111.73a16.65,16.65,0,0,0,16.65-16.65V427.29A21.24,21.24,0,0,0,3107.15,406.06Z"/><path fill="#2f4171" d="M3033.45,360H1447.51A58.56,58.56,0,0,0,1389,418.56v963.13a55.62,55.62,0,0,0,55.62,55.62H3038a54,54,0,0,0,54-54V418.56A58.56,58.56,0,0,0,3033.45,360Z"/><path fill="#fff" d="M3017.82,410.88H1463.23c-20.85,0-37.83,16.77-37.83,37.38V1375a27.4,27.4,0,0,0,23.87,27.27l1582.21,0a27.15,27.15,0,0,0,24.12-26.81V448.26A37.62,37.62,0,0,0,3017.82,410.88Z"/><path fill="#5681bf" d="M3021.24,404.33H1459.76c-19.62,0-35.61,20.18-35.61,45v44.43H3056.8V449.29C3056.8,424.51,3040.82,404.33,3021.24,404.33Z"/><ellipse cx="1532.31" cy="449.29" fill="#fff" rx="11.3" ry="11.13"/><ellipse cx="1568.13" cy="449.29" fill="#fff" rx="11.3" ry="11.13"/><rect width="1343.37" height="17.64" x="1624.75" y="438.88" fill="#3d5891" rx="1.75"/><rect width="98.65" height="17.22" x="1766.08" y="438.88" fill="#fff" rx="1.71"/><ellipse cx="1496.49" cy="449.29" fill="#fff" rx="11.3" ry="11.13"/><rect width="722.25" height="32.32" x="2179.17" y="548.24" fill="#d0e2f7" rx="3.2"/><rect width="516.88" height="739.05" x="1506.33" y="574.51" fill="#d0e2f7"/><rect width="92.9" height="91.5" x="1549.2" y="662.49" fill="#99b1da"/><rect width="243.34" height="38.71" x="1715.94" y="688.88" fill="#99b1da" rx="3.83"/><rect width="92.9" height="91.5" x="1549.2" y="819.68" fill="#99b1da"/><rect width="243.34" height="38.71" x="1715.94" y="846.07" fill="#99b1da" rx="3.83"/><rect width="92.9" height="91.5" x="1549.2" y="976.87" fill="#99b1da"/><rect width="243.34" height="38.71" x="1715.94" y="1003.27" fill="#99b1da" rx="3.83"/><rect width="92.9" height="91.5" x="1549.2" y="1134.07" fill="#99b1da"/><rect width="243.34" height="38.71" x="1715.94" y="1160.46" fill="#99b1da" rx="3.83"/><path fill="#d0e2f7" d="M2554,645.84c-101.21-.1-184.1,80.81-185.28,181-1.07,100.51,80.46,182.46,182.25,182.69s184.92-81.42,185.47-182.12C2737,727.07,2655.24,645.9,2554,645.84Zm-2.19,259.22c-43.48-.06-78.39-35-78-78.06s35.92-77.64,79.32-77.61,78.32,34.9,78,77.85S2595.35,905.15,2551.83,905.06Z"/><path fill="#99b1da" d="M2554.52,679.16c-82.47,0-150,65.91-150.9,147.56-.87,81.91,65.63,148.59,148.44,148.78,83,.18,150.66-66.31,151.12-148.29C2703.69,745.44,2637.09,679.24,2554.52,679.16Zm-1.93,237.7c-50.2-.07-90.5-40.42-90-90s41.41-89.56,91.43-89.51,90.4,40.26,90,89.76C2643.8,876.77,2602.81,917,2552.59,916.86Z"/><path fill="#2f4171" d="M2555.15,918.68c-2.94,0-6-.15-8.86-.43l-.45,57.13c2.94.18,5.92.46,8.87.46,80.92.18,146.87-64.67,147.29-144.58v0l-57.59-.08C2644.1,879.57,2604.15,918.8,2555.15,918.68Z"/><path fill="#5681bf" d="M2460.92,827.41a89.69,89.69,0,0,1,33.14-68.76c-12.08-16.3-24.59-32.67-35.53-46.12-34.06,27-56.08,68.34-56.6,114.74-.87,80.38,63.18,146,143.91,148.51l.48-58.58C2498.26,914.75,2460.42,875.48,2460.92,827.41Z"/><path fill="#99b1da" d="M2791,638.89A11.07,11.07,0,1,0,2802.05,650,11,11,0,0,0,2791,638.89Z"/><path fill="#2f4171" d="M2794.9,841.88A11.14,11.14,0,1,0,2806.12,853,11.23,11.23,0,0,0,2794.9,841.88Z"/><path fill="#99b1da" d="M2305.78,655.4a11.23,11.23,0,0,0-11.29,11,10.94,10.94,0,0,0,11,11.06,11.42,11.42,0,0,0,11.37-11A11.06,11.06,0,0,0,2305.78,655.4Z"/><path fill="#858585" d="M2769.81,663.6,2660.17,751c-2.68,2.13-4.38,4.48-3.8,5.22s3.3-.41,6-2.57L2772,666.27c2.68-2.13,4.4-4.44,3.79-5.21S2772.52,661.46,2769.81,663.6Z"/><path fill="#858585" d="M2439.86,766.61l-107.93-87.47c-2.69-2.19-5.28-3.33-5.93-2.58s1.06,3.07,3.7,5.2l107.91,87.52c2.65,2.16,5.27,3.29,5.88,2.56S2442.5,768.76,2439.86,766.61Z"/><path fill="#858585" d="M2775.15,853.51l-82.42,2.79c-2,.06-3.62.89-3.62,1.86s1.71,1.65,3.75,1.58l82.4-2.77c2.06-.06,3.61-.92,3.61-1.85S2777.15,853.44,2775.15,853.51Z"/><polygon fill="#99b1da" points="2816.55 657.46 2939.08 657.56 2939.08 643.74 2816.6 643.63 2816.55 657.46"/><polygon fill="#99b1da" points="2816.48 674.96 2939.01 675.06 2939.04 669.79 2816.48 669.67 2816.48 674.96"/><polygon fill="#99b1da" points="2816.43 685.94 2939.01 686.06 2939.01 680.75 2816.48 680.61 2816.43 685.94"/><polygon fill="#99b1da" points="2816.39 696.92 2939.01 697.06 2939.01 691.77 2816.39 691.62 2816.39 696.92"/><polygon fill="#99b1da" points="2816.34 707.91 2938.99 708.06 2938.99 702.78 2816.39 702.63 2816.34 707.91"/><polygon fill="#99b1da" points="2820.02 859.29 2942.97 859.48 2942.98 845.56 2820.06 845.34 2820.02 859.29"/><polygon fill="#99b1da" points="2819.95 876.9 2942.93 877.11 2942.97 871.76 2819.99 871.58 2819.95 876.9"/><polygon fill="#99b1da" points="2819.93 887.94 2942.93 888.17 2942.93 882.84 2819.95 882.62 2819.93 887.94"/><polygon fill="#99b1da" points="2819.87 899.04 2942.9 899.25 2942.9 893.9 2819.87 893.69 2819.87 899.04"/><polygon fill="#99b1da" points="2819.87 910.08 2942.85 910.29 2942.9 905 2819.87 904.76 2819.87 910.08"/><polygon fill="#99b1da" points="2157.89 670.26 2279.74 670.38 2279.97 656.57 2158.11 656.46 2157.89 670.26"/><polygon fill="#99b1da" points="2157.63 687.72 2279.55 687.85 2279.6 682.53 2157.72 682.43 2157.63 687.72"/><polygon fill="#99b1da" points="2157.48 698.63 2279.45 698.78 2279.47 693.53 2157.52 693.4 2157.48 698.63"/><polygon fill="#99b1da" points="2157.28 709.65 2279.26 709.75 2279.33 704.49 2157.35 704.38 2157.28 709.65"/><polygon fill="#99b1da" points="2157.14 720.61 2279.12 720.74 2279.18 715.45 2157.21 715.34 2157.14 720.61"/><polygon fill="#99b1da" points="2764.13 1257.32 2939.88 1257.76 2940.09 1243.61 2764.39 1243.23 2764.13 1257.32"/><polygon fill="#99b1da" points="2763.84 1275.14 2939.65 1275.62 2939.75 1270.22 2763.92 1269.74 2763.84 1275.14"/><polygon fill="#99b1da" points="2763.67 1286.43 2939.47 1286.86 2939.57 1281.44 2763.77 1281 2763.67 1286.43"/><polygon fill="#99b1da" points="2763.47 1297.63 2939.33 1298.08 2939.42 1292.72 2763.52 1292.27 2763.47 1297.63"/><polygon fill="#99b1da" points="2763.29 1308.86 2939.12 1309.3 2939.25 1303.95 2763.38 1303.42 2763.29 1308.86"/><polygon fill="#99b1da" points="2511.61 1256.7 2709.12 1257.18 2709.38 1243.05 2511.95 1242.61 2511.61 1256.7"/><polygon fill="#99b1da" points="2511.29 1274.58 2708.77 1275.01 2708.88 1269.66 2511.4 1269.17 2511.29 1274.58"/><polygon fill="#99b1da" points="2511.01 1285.79 2708.67 1286.28 2708.74 1280.85 2511.14 1280.39 2511.01 1285.79"/><polygon fill="#99b1da" points="2510.8 1296.97 2708.41 1297.44 2708.51 1292.13 2510.93 1291.62 2510.8 1296.97"/><polygon fill="#99b1da" points="2510.56 1308.21 2708.22 1308.73 2708.3 1303.32 2510.73 1302.83 2510.56 1308.21"/><polygon fill="#5681bf" points="2512.52 1214.36 2551.74 1214.47 2554.72 1066.24 2515.65 1066.14 2512.52 1214.36"/><polygon fill="#5681bf" points="2563.68 1214.51 2602.83 1214.58 2604.87 1113.58 2565.74 1113.47 2563.68 1214.51"/><polygon fill="#5681bf" points="2620.64 1214.58 2659.76 1214.75 2662.28 1086.51 2623.14 1086.39 2620.64 1214.58"/><polygon fill="#99b1da" points="2676.77 1214.76 2715.86 1214.86 2717.38 1131.52 2678.33 1131.46 2676.77 1214.76"/><polygon fill="#99b1da" points="2732.82 1214.88 2772.01 1214.96 2773.76 1108.75 2734.73 1108.7 2732.82 1214.88"/><polygon fill="#2f4171" points="2788.94 1215.03 2828.2 1215.06 2830.05 1094.71 2790.93 1094.62 2788.94 1215.03"/><polygon fill="#2f4171" points="2845.12 1215.14 2884.3 1215.25 2886.49 1068.01 2847.42 1067.97 2845.12 1215.14"/><polygon fill="#2f4171" points="2901.22 1215.25 2940.48 1215.36 2942.78 1050.43 2903.61 1050.38 2901.22 1215.25"/><path fill="#2f4171" d="M2367.35,1234.74l1.26,41.16s39.89-11.23,45.59-31.19l-2.67-43.37C2411.63,1204.05,2411.08,1225.68,2367.35,1234.74Z"/><path fill="#2f4171" d="M2411.53,1201.34c0-.18,0-.28,0-.28Z"/><path fill="#99b1da" d="M2280.92,1269.5s89.91-6.23,120.3-23.69L2222,1216.49Z"/><path fill="#5681bf" d="M2280.92,1269.5l.64,43s93.07,1.24,124.09-23.08l-4.43-43.65S2341.07,1271.37,2280.92,1269.5Z"/><path fill="#2f4171" d="M2222,1216.49c0,1.87-.63,45.53-.63,45.53l60.15,50.52-.64-43Z"/><path fill="#5681bf" d="M2114.56,1208l2.85,60.8c17.1,32.43,133.91,33.21,133.91,33.21l.32-52.46C2206.21,1254.22,2114.56,1208,2114.56,1208Z"/><path fill="#99b1da" d="M2262.88,1154c-82.18,0-148.79,21.85-148.79,48.8,0,26.52,57.85,47.1,138.18,47.79L2216.66,1211l155.6,24.74c24.39-8.69,39.41-20.26,39.41-33C2411.67,1175.82,2345.05,1154,2262.88,1154Z"/><polygon fill="#2f4171" points="2217.61 1211.97 2222.04 1216.49 2367.5 1240.36 2367.35 1234.74 2217.61 1211.97"/><polygon fill="#858585" points="2207.43 1057.51 2217.95 1156.96 2223.04 1156.44 2212.53 1056.99 2207.43 1057.51"/><path fill="#99b1da" d="M2208.93,1043.53a8.55,8.55,0,1,0,8.67,8.54A8.61,8.61,0,0,0,2208.93,1043.53Z"/><ellipse cx="2366.95" cy="2652.53" fill="#7a8db0" rx="1426.27" ry="107.47"/><path fill="#2f4171" d="M2302.45,1030.66a34.84,34.84,0,0,0,2.77-6.53c-1.36-1.48-2.71-3-4-4.45C2301.59,1021.06,2302.11,1031.17,2302.45,1030.66Z" opacity=".38"/><path fill="#2f4171" d="M2824.68,1067.72c1.18-.28,2.25-.55,3-.78,13.17-4,7.59-9.52,7.59-9.52l-24.61,3.32L2782,1067.8s-26.88,10.22-38.71,18.5c0,0-4.69,3-10.64,6.59-6,1.72-12.48,3.42-19,5.06-1.61-4.17-3.95-6.47-7.38-5.79,0,0-108.56,15.87-159.43,19.53-39.07-10.2-112-37.67-121.09-41.9-25.92-12.1-36.12-15.87-42.8-13.94a2,2,0,0,0-.07.19c-15.33-3.15-44.34-10.1-71-24.91-2.18-2.22-4.42-4.59-6.64-7a34.84,34.84,0,0,1-2.77,6.53c-.34.51-.86-9.6-1.26-11l-.12-.13c0-.06.07,0,.12.13,1.32,1.49,2.67,3,4,4.45,9.66-28.15,30-128.4,24-170.63a10.19,10.19,0,0,1,.15-1.45c1.18-.84,2.29-1.58,3.63-2.64,17.56-13.81,8.22-35.37,3.51-41.16.07.13.19.57.28.77-4-6.68-8.51-9.19-12.34-9.73-1-3.86-5.35-6.75-8.83-1.88,3-1.39,5.2-.69,5.69,1.77a14.89,14.89,0,0,0-5.29,1.42s-2.1-1.64-5.45-3.83c-.94-4.77-8-10.83-16.13-8.32-8.57-3.27-18.24-4.93-26.23-.9-16.8,8.39-14.07,1.87-23.79,7.57a1.08,1.08,0,0,0-.2.16,28.07,28.07,0,0,0-9.29,8.53l-.23.2c-1,.58-2.07-.59-3-.38a16.87,16.87,0,0,1,1.6-1.66c-2.39,1.83-4.48,3.58-6.39,5.26-.16.15-.33.31-.52.46a68.42,68.42,0,0,0-5.12,5c-8.47.85-18.45,3.47-23.44,7.1a16.62,16.62,0,0,0-5.33,1.42,14.19,14.19,0,0,1,3.68,0,9.4,9.4,0,0,0-.84,1c-.18,0-.32.16-.52.22-5.65,0-11.54,2.74-17,5.93a36.29,36.29,0,0,1,6.45-.37c-18.23,12.92-20.66,37.49-19.49,55.64-.94,16,5.72,60.64,5,63.05-.73,2.57-2.66,11.76-5.29,10.58-2.17-1,10,11.12,16.8,12.27-1.59,7.27-3.37,15.35-5.08,23.15a11.5,11.5,0,0,0-5.64,3.4,2.13,2.13,0,0,1,0-.25s-4.43,2.2-10,5.09a21.59,21.59,0,0,1,3.91-6s-29.56,13.64-36.44,21.1c0,.07-.11.13-.14.19-37.47,13.56-55.76,20.28-76.66,26.8-7.72-4-16.07,6-31.76,26.75-31.89,30.66-85.37,90.8-99.31,112.12a68.69,68.69,0,0,0-4,7.19c-.92-.18-1.81-.34-2.72-.44-5.81-4.69-15.21-12.37-21.74-18.36-5.81-5.35-7.4-8.18-17.37-15.13-15.23-10.6-24.38-13.21-25.74-11.77-4.92,5.27,10.76,11.81,18.61,20.37,4.69,5.22,6,7.64,10.69,13,0,0-16.38-13.15-26.67-19.08-8.46-4.85-24-8.22-26-6.33-5.05,4.85,5.65,9.25,20.51,17.48,7.21,4,17.7,15,17.7,15a202.2,202.2,0,0,0-18.82-13.53c-8.65-5.46-26.14-9.37-28.41-6.9-4.42,4.7,6.71,8.86,17.58,15a115.06,115.06,0,0,1,19.66,14.33s-11.51-8.26-24-11.48c-9.76-2.49-14.81-3.32-15.57-2.19-4,5.83,14.8,11.36,28.21,21.09,8.53,6.21,7.89,19.45,22,29.62,1.07,31.1,11.24,74.67,31.22,81.26,10.09,3.32,18.7,5.23,25.8,3,18.7-2.12,37.63-22.4,37.63-22.4,21.6-17.18,53-45.57,78.26-71.91-.17,32.18,2.45,98.4-7.78,153.6-6.88,37.22-45.52,184.44-44.77,214.1-3.2,3,3.22,7.85,15,12.92-1.91,12.48-3.42,25.27-4.43,38.27-8.18,104.31-12.85,300.11-34.6,385.6-25.15,99-40.61,226.78-48.49,279.82-6.46,42.62-17.07,84.42-29.79,96.25-18,16.71-11.39,42.48-11.39,42.48s7.21,8.66,22.81,11.56c20.76,3.81,66.52-3.41,74.7-14.53,1.46-1.93,34.47-23.86,36.72-29a70,70,0,0,0,4.88-30.64c10.16,4.05,16.7,7.36,16.7,7.36s21.87-17.78,14.21-86.37c.39-19.18,3.9-85.57,13.22-148.57,5.11-28.29,10.61-54.22,14.75-72.74,1.29-4.55,2.6-8.94,4-13.09,23.89-70.19,39.81-127.34,50-188.53,1.23-7.49,2.78-16.17,4.53-25.56,20.63-83.08,38.4-154.76,38.14-141.13-.64,34.78,2.89,170.21-7.23,270.43-14.17,139.3-29.95,219.87-25.94,322,2,51.61,6,76.72,6,76.72.51-3.34,32,61.53,151.8,56.48,40.55,0,33.17-30.57,26.49-37.21-8.72-8.73-32.22-27.51-43-39.37,4.07.06,6.44.12,6.44.12s.9-11,.69-24.5c.16,0,.48-.07.57-.11,4.6-2.21-.2-39.2-2.83-62.72-1.68-15.23-8.65-86.84-8.28-151,1.58-27.17,3.74-54,6.42-77.47.87-3.83,1.81-7.42,2.87-10.64,4.85-14.57,10.86-48.09,17-90.4,17.07-92.23,35.33-282.79,35.66-302.47,0-2.26,0-4.85.12-7.52,15.64-1.34,31.23-3.16,31.23-3.16s.17-150.81-3.69-200.56c-1-12.78,18.07-180.2,34.59-227.49,49.32,8.88,138.95,13.32,156,11.92,0,0,145.38-22.41,153.67-30.34,3.56-3.41,8.05-21.56,10.48-40.87a291.36,291.36,0,0,1,31.3-16.28c22.54,1.91,41.38-7.93,57.54-6.68,13.76,1.07,16.11-2.36,10.71-5.09-7.14-3.58-20.94-5.37-28.37-9.92,27.44-12.34,47.7-11.9,46.16-16.87-.65-1.94-9.73-1.26-17.85-.27,11.65-2,27-5.6,26.39-10.52s-38.92,5.61-38.92,5.61c13.15-6,41.26-9.71,39.7-14.4C2840.44,1067.21,2833.56,1067,2824.68,1067.72Z" opacity=".38"/><path fill="#2f4171" d="M2233.25,802c.64-.5,1.29-1,2-1.5A11.74,11.74,0,0,0,2233.25,802Z" opacity=".38"/><path fill="#f5b0a6" d="M2562.57,1091.77c-9.37-.81,16.56,75.08,45.67,66.13,71-21.68,73.76-40.79,130.6-66.13,3.14-1.32-6.9-37-6.9-37C2671.66,1074.74,2566.23,1092.15,2562.57,1091.77Z"/><path fill="#ef8b8b" d="M2803.47,1053.13c-7,.91-13.38,2.09-13.38,2.09S2796.11,1054.49,2803.47,1053.13Z"/><path fill="#ef8b8b" d="M2830.83,1032.82c-1.65-4.91-47.06,1.91-58.78,6.72,0,0-25.32,47.75-16.08,41.84,36.7-23.63,67.44-21.77,65.47-28-.66-2-9.75-1.28-18-.21-7.36,1.36-13.38,2.09-13.38,2.09s6.38-1.18,13.38-2.09c11.89-2.19,27.29-6,26.63-11.11s-39.82,6.12-39.82,6.12C2803.69,1041.73,2832.46,1037.71,2830.83,1032.82Z"/><path fill="#f5b0a6" d="M2799.63,1024.38,2770.3,1032s-27.4,10.86-39.44,19.58c0,0-22.28,14.66-32.26,19.47s-7.52,12.24,21.81,20.82,52.52-6.42,72.16-5c14.1,1,16.47-2.57,10.92-5.38-11.52-5.8-40-6.84-33.36-22,4.5-10.38,13.78-16.93,25.09-22.47,5.16-2.61,17.66-4.9,21.9-6.27,13.48-4.28,7.69-10,7.69-10Z"/><path d="M2270.16,2355.38c-43.22-52.9-31.43-80.39-27.77-124.42,0,0-94.21,5.59-93.16,16.38,7.82,89.52-1.08,108.17-3.14,125.52-4.22,35.24,40.07,21.09,41.15,23.07,13,23.92,52.06,39.05,103.27,39.05,40.55,0,32.67-30.66,25.89-37.33C2306.82,2388.2,2279.63,2366.91,2270.16,2355.38Z"/><path d="M1938.73,2274.84s9.27,10.09,3.3,36.5c-11.31,48.82-28.72,57.34-59.46,86.78-17.52,16.73-10.39,42.52-10.39,42.52s7.37,8.66,23,11.56c20.77,3.81,66.24-3.41,74.13-14.54,1.42-1.94,11.15-15.55,16-19.19,7.28-5.48,17.84-4.71,20-9.83,0,0,9.77-22.25.76-46.72s10.2-76.68,10.2-76.68Z"/><path fill="#153c93" d="M2298.7,1397.24s-249.85-13.94-262.25,7.37-51.22,115.26-57.21,222-6.59,306-26.6,392.71c-23.06,100.15-35.78,228.93-42.48,282.24-5.5,42.79-2.58,45.55-1.16,69.26,42.1-23.71,117.35,14.5,117.35,14.5s21.48-17.83,12.46-86.71c-10.07-76.47,29.66-252,29.66-252,24.07-83,84.1-372.59,84.1-346.05,0,35.55,6.07,173.62-2.26,275.49-11.63,141.1-25.93,222.46-20,325.24,2.94,51.84,7.46,77.06,7.46,77.06,3.09-23.68,141.38-20.11,141.38-20.11s3.37-51.32-8.66-69.18-7.91-254.32,10.1-313.6,39.13-323.67,39.13-347.36c0-21.7-.43-62.73-1.24-109.68C2318.29,1510.91,2308,1426.33,2298.7,1397.24Z"/><path d="M2315.46,1582.46c-6.85-37.82-18.24,56.72-18.24,56.72-4.41,121.51-22.43,248.26-36,301.56-13.43,53.4-22,88.12-28.72,119.24s-4.46,189-4.46,200-73.75,74.12-59,67.51c39.87-17.93,70.24-24.62,70.24-17.93s-51.12,23.92-51.12,23.92,87.36,2.24,91.84,0-.86-39.42-3.88-63.09-21.06-183.79-3-241.57S2322.21,1620.18,2315.46,1582.46Z"/><path d="M2021.84,2089.63c-9,11.13-59.89,189-53,220,22.53,2.22,45.13-2.17,47.36,8.94s-58.65,6.67-58.65,6.67l76.69,40s4.55-37.77,4.55-66.65,4.84-165.28,27.36-236.42,37.51-129.19,46.54-191.42,36.41-201.5,36.41-201.5c-24.74,48.9-77,306.23-88.19,341.83S2030.86,2078.5,2021.84,2089.63Z"/><path fill="#f5b0a6" d="M2155.23,957.62c-8.94-1.4-12.58,5.13-16.84,13.31,0,0,66.87,57.35,82.17,55.56s39-17,36.76-33.18S2164.22,959,2155.23,957.62Z"/><path fill="#f5b0a6" d="M2159.26,911c-3.09,16-16.48,84-16.48,84s61,59.41,72,60.6,41.76-25.53,35.53-43.82-5.85-40.46.85-60.43C2251.16,951.36,2162.34,895.14,2159.26,911Z"/><path d="M2140.11,1007.83c8.18,10.78-5.21,36,9.44,37.78,17.55,2,90.58-44.65,101.35-56.95-.06-12,3.61-25.9,4-28.77l-95.13-53.06C2159.3,910.18,2143.79,993.43,2140.11,1007.83Z" style="mix-blend-mode:multiply" fill="url(#a)"/><path fill="#fff" d="M2258,999.79c-5.16,6-26,39-41,36.94s-8.93,25.39-8.93,25.39l-.66,380.59L2307,1445s6.32-36.22,8.54-100.22c.69-20-3.76-108.13-9.82-161.12L2366,1043.38Z"/><path fill="#e9e9e9" d="M2203.16,1062.28c-13.3-7.08-58.3-38.8-62.92-49.56l-3.77-7c-61,22.6-110.82,30.51-107.62,40.29,0,0,2.43,80.8,4.92,119.27,3,46.63,39.54,141.42,35.23,185.72-2.42,25-28.58,93.08-28.58,93.08s127.55,27.46,167,23.52c11.25-1.12,11.41-69.65,12.32-128.18C2221.72,1236.31,2218.73,1070.53,2203.16,1062.28Z"/><polygon fill="#2e6857" points="2180.01 1030.69 2201.13 1054.79 2173.27 1368.92 2214.64 1403.73 2219.1 1027.85 2190.49 1025.71 2180.01 1030.69"/><polygon fill="#1b5946" points="2246.51 1033.24 2238.78 1026.45 2214.84 1027.78 2215.84 1054.79 2216.02 1054.79 2214.64 1403.73 2248.52 1376.03 2231.36 1054.98 2246.51 1033.24"/><path fill="#6fc183" d="M2131,971.49c-63.08,23.81-83.82,32.27-112.31,41.39-11.94,3.84,13.83,90.8-5.07,163.38-3.45,13.16,6.35,104.77-5.4,177.52-6.18,38.41-42.14,190-40.76,220.42.83,18.25,166.45,7.41,166.45,7.41s33.56-301.44,29.51-314.49C2110.05,1080.53,2131,971.49,2131,971.49Z"/><path fill="#6fc183" d="M2373.24,1024.82c.19-1.14-66.16-8.07-108.94-45l19.63,79.51c-6.54,91.47-21.06,187.65-21.06,187.65s-8.26,372.07-3.38,373.93c14.14,5.08,91.79-3.83,91.79-3.83s-2.24-155-6.94-206.31c-1.25-13.94,17.47-207,34.34-243C2394.61,1133.74,2365,1077.52,2373.24,1024.82Z"/><path fill="#e9e9e9" d="M2144.39,961.17s-18.1,9.36-26.78,15.2c-4.44,2.92,26.84,56.9,25.13,107,8.72-9.77,39.47-63.75,63.55-57.26C2175.24,1013.85,2143.44,971.11,2144.39,961.17Z"/><path fill="#e9e9e9" d="M2252.19,986.35c.88,13.4-19.39,39.32-24.07,41.4,21.05-4.19,49,51.19,49,51.19l7.54-68.63S2251.74,980.78,2252.19,986.35Z"/><path fill="#6fc183" d="M1976.92,1060.26s-46,59.47-104.88,137.35l-7,42.85,20.26,51.12c22,9.56,49.81-21.77,49.81-21.77,37.18-30.91,103.49-96.75,116.54-126,14.4-32.43-6.63-110.54-24.09-129.74C2015.92,1001.36,2006.35,1020.18,1976.92,1060.26Z"/><path fill="#2e6857" d="M2138.18,960.27s-29.84,14.46-36.72,22.29-31.51,41.71-31.51,41.71l28.79,10.27-26.24,28.37c15,10.37,91.44,208.56,91.44,208.56C2159.39,1215.79,2108.16,991.91,2138.18,960.27Z"/><path fill="#6fc183" d="M2693,1057.9s-110.84,17.29-162.77,21.44c-40-10.36-114.86-38.51-124.22-42.87-26.65-12.42-37.12-16.29-43.91-14.23,0,0-33.48,125.65-18.57,142.43,14.47,16,168.43,23.87,191.58,21.8,0,0,148.11-24.19,156.5-32.51S2712.7,1053.77,2693,1057.9Z"/><path fill="#2e6857" d="M2322.56,1031s-14.1-16.59-26.73-27.65-33-35.95-33-35.95l18.26,48.38c8.41,29-14.71,214.28-17.52,240.57l64.57-174.2-28.06-35.93Z"/><path d="M2136.52,841.5c-1.67,14,6.87,65.67,6.13,68.33s-2.48,12.31-5.18,11.1,15.2,16.36,20.38,12.25c5-4,19.83-70.47,17.82-74.41S2136.52,841.5,2136.52,841.5Z"/><path fill="#f5b0a6" d="M2291.72,821.53c.07-19.17-46.65-35.94-56.43-36.46-60.35-3.29-61.82,44.36-64.49,83-13.29-8.74-23.09-6.11-22.9,9.33.1,11.79,5.62,25.45,13.34,29.76,2.8,33.56,24,60,66.25,66.71a32.67,32.67,0,0,0,20.39-2.95c9.44-3.4,16.36-11.14,22.11-21.1,5.58-8.84,14.57-34.18,15.23-35.86C2293.83,888.68,2291.61,851.26,2291.72,821.53Z"/><path d="M2207.17,772.23c1.14-7.32-35.26-2.05-40.7,7.07-46.23,16.39-26.26,87.78-26.26,87.78l18.31-13.9,8.15,13.23,13.23,4.25s3.23-1.24,2.59-12.15c-.39-6.82-18.6-50.53,16.28-49.38-.44-2.91,15.5-35.69,15.89-26.81C2214.73,777.91,2214.29,766.14,2207.17,772.23Z"/><path d="M2214.61,783.9a13,13,0,0,0,0-1.58C2214.64,783.28,2214.61,783.9,2214.61,783.9Z"/><path d="M2269,941.46c-15,13.26-31.09,6.88-31.09,6.88s-11.45,62-4.57,73.4c13.77.25,38.45-26.37,46.08-38.81s10.17-68.85,10.41-82.39C2289.78,900.54,2284.06,928.3,2269,941.46Z"/><path d="M2260.7,917l-13.15-2.6-.49,15.35c6.22-1.95,27.56,22.85,27.09,15.53S2267,918.63,2260.7,917Z"/><path d="M2228.1,917.16c-5.73,4.78-20.73,18.87-20.73,18.87s6.5,7,21.59-2.21c8.06-5,18.1-4.05,18.1-4.05l.49-15.35S2233.77,912.45,2228.1,917.16Z"/><path d="M2187.45,922.24c-8.6-18.48-16.94-69-17.74-82.6,0,0-7,58.53-8.17,74.44-.62,9.64,10.53,53.93,20.73,72.27,18.65,33.77,53.44,37.51,53.44,37.51s10.18-65.74,9.27-74C2237.67,947.58,2195.64,939.63,2187.45,922.24Z"/><path d="M2312.25,766.36c-9.54-18.66-22.74-10.76-22.74-10.76s-29.84-23.56-49.16-13.31c-17,9-14.35,2.08-24.2,8.16-2.12,1.27-7.74,7.92-9.78,9.41-1.11.69-2.41-1-3.42-.3-13.17,10-22.62,25.15-18.63,39.12,7.49,26.94,14.7,9.92,31.73,7.16s40.3,11.91,40.3,11.91-3.36-4.41,10.3-4.65c33.79-.51,24.31,47.22,24.31,47.22,7.51-21.39,14.19-37.62,12.95-49.3S2321.71,785,2312.25,766.36Z"/><path d="M2163.54,778.3c4.51-.65,10.69.63,16.63,9.18-9.2-12.82-21.14-7.92-31.54-1.59,21.53-3.22,23.88,10.18,22.46,19s-8.57-19-8.05-13c1.29,12.83.28,15.83,3.48,31.77s11.92,21.54,11.92,21.54,7.3-19.64,13.15-26.1,7.18-9.93,7.18-9.93C2192.13,800,2183,769,2163.54,778.3Z"/><path d="M2289.05,752.26c7.5-3.66,10.79,5.33-6.79,24.78s-20.14,20.92-24.78,31.59c0,0,6.94-4.71,18.25-14.36s18.42-23.6,22.4-36.71C2299.7,752.31,2293.47,745.71,2289.05,752.26Z"/><path d="M2298.26,754.24s7.24,12.67,4.95,26.78c-2.12,14.09-17.63,22.78-31.22,24.78,0,0,7.43,4.42,19.38-.14,12.11-4.66,17.93-28.58,17.41-36.1S2298.26,754.24,2298.26,754.24Z"/><path d="M2311.54,788c-3.86,12.65-28.48,21.78-34.33,19.65,0,0,2.7,5.36,5.14,6.9s7.64,6.9,25.36-7.81,7.82-37.19,2.91-43.23C2311.69,765.51,2315.32,775.3,2311.54,788Z"/><path d="M2256.34,817.4c0,.12,0,.23,0,.35S2256.44,817.82,2256.34,817.4Z"/><path d="M2259.2,748.71c-11.23,13-19.49,29.37-10.68,49.61,6.25,14.31,7.58,18.09,7.82,19.08-.16-14.77-5.39-27.18-1.32-46.32,4.05-19.3,22.95-25.88,29-19.05C2283,745.38,2270.27,735.76,2259.2,748.71Z"/><path d="M2243.3,752.39c-8.72,10.25-20.88,35.11-7.25,49.41s17.43,9.22,17.43,9.22c-5.93-8-18.19-29.19-7.9-49.16s24.28-17.5,32.05-14.2C2271.57,743.31,2252.11,742.1,2243.3,752.39Z"/><path d="M2204.87,757.73l2-1.59A12.62,12.62,0,0,0,2204.87,757.73Z"/><path d="M2196.18,794.91c-4.9-4,0-28.82,8.69-37.18-31.67,25.57-15.22,40.33-9.6,56.85,0,0,2.12-3.68,4.33-3.62s11.85-2.17,4-9.51,7.53-46.6,15.58-52.57C2206.74,754.27,2199.72,766.75,2196.18,794.91Z"/><path fill="#185441" d="M1841.18,1175.5c-9.83,15.18.66,105,30.16,114.72s47,8.29,47-76S1841.18,1175.5,1841.18,1175.5Z"/><path fill="#6fc183" d="M2013.64,1020.35c-16.82,8.31-102.1,107-120,136.06s-4.19,39.42,5.24,37.33,11.61,15.53,19,35.25,4.21-31.1-1.07-39.32,19-33.26,37.86-68.48,65.44-79.37,72.71-85.27C2033.68,1030.75,2030.51,1012,2013.64,1020.35Z"/><path fill="#f5b0a6" d="M1925.9,1154.83c-10.77,1.88-24.65,15.2-33.42,13,0,0-17.58-13.73-28-23.25-6-5.51-7.7-8.44-18-15.58-15.69-10.9-25-13.55-26.37-12.06-4.85,5.51,11.2,12.19,19.35,21,4.88,5.38,6.22,7.88,11.15,13.41,0,0-16.91-13.52-27.5-19.61-8.68-5-24.53-8.38-26.47-6.39-5,5.05,5.94,9.55,21.2,18,7.39,4.1,18.29,15.47,18.29,15.47a214.44,214.44,0,0,0-19.39-13.92c-8.9-5.6-26.74-9.53-29-7-4.36,4.9,7,9.14,18.18,15.42a119.92,119.92,0,0,1,20.27,14.73s-11.88-8.51-24.66-11.75c-9.94-2.52-15.08-3.36-15.81-2.18-4,6.06,15.27,11.68,29.06,21.68,11.06,8,7.59,27.66,37.52,37.78s40-3,40-3c8.81-5.19,10.11-17.67,16.78-26.08,10.84-13.69,18-18.13,25.83-21.62C1938.6,1161.36,1934,1153.4,1925.9,1154.83Z"/><path d="M2097.63,1590.1c-60,13.45-127.31-18.68-130.15-15.9-12.47,12.28,127,53.24,156.48,22.12s34.19-231.18,36.35-276.82c0,0-4.79,10.38-6.91,64.3S2128.45,1583.18,2097.63,1590.1Z"/><path d="M2261.87,1466.72c0-60.14-1.12-139.94-1.12-139.94-2.1,51.84-13.31,241.2-7,264s24.58,31.12,41.41,31.12,56.13-4.85,56.13-4.85-52.58-5.16-70.5-15.54S2261.87,1530.19,2261.87,1466.72Z"/><polygon fill="#385084" points="1855.12 2478.37 1883.07 2478.37 1883.07 2518.13 2450.65 2518.13 2450.65 2478.37 2478.6 2478.37 2478.6 1416.7 1855.12 1416.7 1855.12 2478.37"/><rect width="567.58" height="39.76" x="1883.07" y="2478.37" fill="#1a2d59"/><rect width="682.24" height="74.23" x="1820.72" y="1416.7" fill="#4868a0"/><rect width="623.48" height="18.55" x="1855.12" y="1490.92" fill="#1a2d59"/><path d="M3336.66,1951.91l-1.47.08a1.16,1.16,0,0,0,.74.91.92.92,0,0,0,.89-.1.76.76,0,0,0,0-.49A1.25,1.25,0,0,0,3336.66,1951.91Z"/><path fill="#f5b0a6" d="M1657.72,2123.4a68.84,68.84,0,0,0-54.45,3c-16.13,8.17-28.32,22.57-36.68,38.43-9.53,18.07-11.81,36.82-17.68,55.68-6.58,21.16-21.09,43.06-31.25,62.87l-77.88,151.84q-5.44,10.62-10.9,21.25c-8.09,15.77-16.19,31.56-23.21,47.83-3.63,8.43-6.24,17.36-10,25.7-2.76,6.12-8.08,12.42-4.92,19.61.94,2.13,2.86,3.67,4.77,5a91.9,91.9,0,0,0,30,14.18c1.75.47,3.65.87,5.32.2a8.33,8.33,0,0,0,3-2.5c9.17-10.48,16.15-22.85,24.63-34,1.53-2,3-4.05,4.54-6.08q51.09-69,106.65-134.7,27.75-32.82,56.58-64.74c22.08-24.45,43-47.57,57.78-77.38,13.61-27.56,23.67-59.87,12.41-88.44A67.41,67.41,0,0,0,1657.72,2123.4Z"/><path fill="#f5b0a6" d="M1443.27,2670.05a23.45,23.45,0,0,1-8.4-12.43h0c-.25-.78-.46-1.58-.65-2.38-1.36-5.79-1.32-11.84-1.29-17.8q.12-14.1.23-28.19.09-8.55.14-17.11c0-.19,0-.39,0-.58,0-1.46,0-2.94,0-4.45s0-3.18,0-4.78c0-1.41-.06-2.81-.13-4.22s-.16-2.76-.29-4.12a52,52,0,0,0-2.81-13.5h0a26.18,26.18,0,0,0-14.58-15.72,34.24,34.24,0,0,0-5.28-1.81,11.29,11.29,0,0,0-1.15-.27l-.31-.07c-.43-.08-.84-.16-1.25-.22a23.77,23.77,0,0,0-4.22-.3l-1,.05a18.63,18.63,0,0,0-4.31.75,2.12,2.12,0,0,0-.36.1,29.92,29.92,0,0,0-9.32,5.36c-1.43,1.1-2.83,2.27-4.23,3.39a128.39,128.39,0,0,1-11.83,8.44c-.36.23-.73.44-1.08.67-1.6,1-3.22,2-4.77,3.06a26.12,26.12,0,0,0-6.34,5.88c-4.58,6.27-2,13.6,1.54,19.54a38.22,38.22,0,0,0,9.44,10.39.83.83,0,0,1,.12.08c2,1.56,4,3,6,4.4,6.43,4.57,12.42,8.79,17,15.91,5.8,9.05,8.41,19.79,11.1,30.12a43.1,43.1,0,0,0,3.74,10.34l35.14,17.38a.52.52,0,0,1,.12-.07C1447.55,2675.14,1446.4,2672.28,1443.27,2670.05Z"/><path fill="#192d5b" d="M1448,2671.1a31,31,0,0,0-5.07-7.11,37.64,37.64,0,0,0-7.35-6.27l-.85-.56c-4.72-3.07-9.85-5.55-14.52-8.93-.55-.39-1.07-.79-1.58-1.19a40.45,40.45,0,0,1-5.69-5.55,65.49,65.49,0,0,1-9.47-15.65c-3.59-7.79-6.64-15.82-9.5-24-1.84-4.23-3.65-8.53-5.17-12.88a79.21,79.21,0,0,1-2.86-9.92c-.73-3.5-.41-6.17-.29-9.62s-1.06-7.52-2-10.88a11.77,11.77,0,0,0-2.22-4.83c-.12-.14-.25-.27-.37-.4-4.81-4.55-16.06,8.56-19,12.08-4,4.8-6.92,10.75-7.11,17-.15,4.62.62,9.24.72,13.82.11,4.94-1.94,9.74-3.89,14.21q-3.36,7.65-6.73,15.32c-1.25,2.87,2,2.64,3.73,3.54l6.92,3.53c1.8-3.67,3.57-7.34,5.37-11,1.53-3.16,3.06-6.3,4.62-9.48,1.43-2.93,1.77-7,5.86-6.94l.56,0a10.42,10.42,0,0,1,5.63,2.58,5.41,5.41,0,0,1,.71.63,75.54,75.54,0,0,1,5.32,5.6c9.71,10.39,13.36,22.88,15.39,36.89a17.38,17.38,0,0,0,1.28,4.53l8,4.09h0l2.18,1.11,33.46,17.08.14.07,4.65,2.36s0-.61-.16-1.34A11.41,11.41,0,0,0,1448,2671.1Z"/><path fill="#f5b0a6" d="M1760.66,2615.15a82.1,82.1,0,0,0,8-8.6,17.65,17.65,0,0,1-2.3,1.43Z"/><path fill="#f5b0a6" d="M1771.64,2603.16a16.77,16.77,0,0,0,1.08-3.1l-1,1.26a20.85,20.85,0,0,1-3,5.23A9.24,9.24,0,0,0,1771.64,2603.16Z"/><path fill="#f5b0a6" d="M1768.69,2606.55a20.85,20.85,0,0,0,3-5.23l-5.32,6.66A17.65,17.65,0,0,0,1768.69,2606.55Z"/><path fill="#f5b0a6" d="M1772.3,2584.08c-2.13-17.5-4.48-35-6.27-52.52-3.48-34.4-5.88-68.89-7.85-103.4-3.94-69.08-6.11-138.27-11.67-207.26-3.38-42.05.92-108.88-47.49-126.19-17.33-6.2-36.12-6.84-54.27-10-6-1-12.2-2.4-18.23-1.32-21.24,3.79-15.57,45.68-11.13,60.22,6.23,20.41,15.62,38.76,17.8,60.37,1.28,12.65.5,25.4.38,38.12-1,103.1,39.25,206.6,78.37,300.77,7.9,19,16.13,38.29,18.06,58.75,1.1,11.56,25.07,12.32,36.39,6.39l5.32-6.66C1773.37,2597,1773.28,2592.18,1772.3,2584.08Z"/><path fill="#f5b0a6" d="M1828,2673.51a23.9,23.9,0,0,1-13.06-7.59h0c-.57-.59-1.12-1.22-1.64-1.86-3.79-4.63-6.42-10.09-9-15.48q-6.12-12.73-12.25-25.47-3.72-7.72-7.45-15.46l-.24-.53c-.64-1.32-1.29-2.66-1.94-4l-2.14-4.29c-.65-1.26-1.3-2.49-2-3.74s-1.37-2.42-2.09-3.58a52.17,52.17,0,0,0-8.5-10.95h0a26.69,26.69,0,0,0-20.08-7.9,34.82,34.82,0,0,0-5.56.64c-.38.06-.77.15-1.15.24l-.31.08c-.43.11-.83.21-1.22.33a24.24,24.24,0,0,0-3.94,1.55c-.3.16-.6.31-.9.48a18.42,18.42,0,0,0-3.55,2.52l-.28.25a29.32,29.32,0,0,0-6,8.82c-.8,1.61-1.54,3.26-2.31,4.87a124.1,124.1,0,0,1-6.92,12.67c-.22.36-.46.71-.67,1.07-1,1.58-2,3.17-3,4.8a25.4,25.4,0,0,0-3.1,8c-1.35,7.6,4.21,13.1,10,16.93a39,39,0,0,0,13.1,5.29.89.89,0,0,1,.14,0c2.52.53,5,1,7.38,1.37,7.8,1.35,15.06,2.59,22.32,7,9.23,5.66,16.32,14.21,23.31,22.36a43.8,43.8,0,0,0,7.94,7.7l39.32.57c0-.05,0-.08.07-.12C1834.14,2676.25,1831.84,2674.17,1828,2673.51Z"/><path fill="#192d5b" d="M1832.75,2672.43a31.64,31.64,0,0,0-7.71-4.23,38.69,38.69,0,0,0-9.39-2.49l-1-.14c-5.6-.74-11.32-.77-17-1.81-.67-.11-1.31-.25-1.95-.4a40.58,40.58,0,0,1-7.57-2.55,66.59,66.59,0,0,1-15.44-10c-6.68-5.46-13-11.39-19.16-17.49-3.52-3-7-6.12-10.34-9.38a81.39,81.39,0,0,1-7-7.71c-2.2-2.84-3.09-5.38-4.51-8.52s-4.28-6.32-6.59-9a12,12,0,0,0-4.13-3.39c-.18-.08-.35-.14-.52-.2-6.34-2-10.67,14.59-11.73,19-1.45,6-1.48,12.64,1.1,18.31,1.9,4.23,4.64,8.06,6.76,12.14,2.28,4.4,2.56,9.6,2.78,14.45.23,5.56.48,11.12.71,16.68.14,3.13,2.94,1.53,4.92,1.6l7.79.2c0-4.08,0-8.13,0-12.22,0-3.5,0-7,0-10.51,0-3.25-1.48-7,2.2-8.76l.51-.22a10.61,10.61,0,0,1,6.22-.1,7,7,0,0,1,.92.27,77.29,77.29,0,0,1,7.26,2.76c13.34,5.18,22.14,14.86,30.16,26.61a18.08,18.08,0,0,0,3.16,3.53l9,.23h0l2.46.07,37.67,1h.16l5.22.13s-.31-.52-.73-1.14A11.5,11.5,0,0,0,1832.75,2672.43Z"/><path fill="#153c93" d="M1709,2092.12c-16.78-9.25-42.39-10.58-60.83-15.59-54.33-14.74-108.74-29.5-164.17-39.52-17.43-3.16-35.29-5.94-51-13.94-32.33-16.42-14.68-45.55-20.76-76.17-3.43-17.27-21.12-46.26-39.58-53.16l-73.12-27.35c-14.78-5.53-29.94-12.23-45.91-13.35s-17.36,10.15-23.71,23.16c-15.29,31.34-27.93,63.28-42.29,94.71-17,37.19-30.5,85.53-22.49,126.41,5.31,27.08,20.57,52.12,41.59,70.06,19.35,16.51,43.56,27,69.37,27.55l9.86.21,1.07.6h26.52l17,.36,5.71.13,115.35,2.48,5.58.12,81,1.74c38.87.83,73,.42,108.91-16.83,14.82-7.12,95.06-50.52,78.73-69.81C1719.51,2106.51,1717.5,2096.8,1709,2092.12Z"/><path fill="#090909" d="M1651.45,2174.2q-58-15.93-117.42-26.38c-39.81-7-79.91-11.9-120.2-15.28-40.84-3.43-81.5-7.69-121.82-15.09-9.27-1.7-18.64-3.91-26.43-9.38a50.71,50.71,0,0,1-15.37-17.94c-8.53-16.16-8.87-34.76-6.5-52.45,2.63-19.63,7.41-39.14,12.7-58.21a574.14,574.14,0,0,1,18.32-55.08q2.64-6.77,5.45-13.47c.44-1.06-2.34-1.33-2.73-.4a572.84,572.84,0,0,0-34.13,112.61c-3.58,18.58-6.09,38.27-.29,56.69,4.65,14.78,14.6,28,29.38,34.1,8.92,3.66,18.69,5,28.15,6.65q15.24,2.61,30.56,4.79c20.57,2.91,41.21,5.18,61.91,7s41.15,3.39,61.67,5.68q30.42,3.4,60.66,8.27,60.67,9.76,120.17,25.35,7.26,1.9,14.49,3.89C1651.09,2175.81,1653.22,2174.68,1651.45,2174.2Z"/><path fill="#090909" d="M1400,2016.86a408.08,408.08,0,0,0-61,16c-1.75.6.36,1.69,1.42,1.32a403.28,403.28,0,0,1,60.34-15.83C1402.65,2018,1401.43,2016.6,1400,2016.86Z"/><path fill="#f5b0a6" d="M1440.45,1500.68c2.29-1.6,1.9-5,0,0Z"/><path fill="#f5b0a6" d="M1453.77,1506.13s-14.3-2.52-14.28-2.56c.35-1.18.67-2.13,1-2.89-1.32.92-3.51,1.25-6.81-1-8-5.3,16.4-30.91,6.88-32.29-6.3-.91-12-.15-18.07-2-18.49-5.58-22.1,14.5-26.65,26.82-5.55,15-13.81,28.93-19.63,43.75-4.35,11.12,1.63,23.92,10.06,31.56,7.59,6.87,17.09,11.28,25.56,17.06,9.94,6.79,19.53,15.88,31.61,16.43a16.2,16.2,0,0,0,8.91-1.9c5-3-1.49-7.55.16-13.09,4.14-13.88,5.61-32.19,9.75-46.07,3.45-11.58,1.73-14,5.19-25.58C1467.87,1512.87,1453.29,1507.71,1453.77,1506.13Z"/><path fill="#f28e70" d="M1469.27,1689.3c-.19-9.27-.67-18.58-1.57-27.86a234.22,234.22,0,0,0-10-50.19c-10.86-33.29-35.56-65-64.22-85.26-2-1.4-4.14-2.81-6.57-3a13.63,13.63,0,0,0-5.13,1l-17.77,6a41,41,0,0,0,3.55,11.48c-47.42,33.71-85.08,73.23-107.62,127.41-5.84,14.06-10.7,28.54-13.15,43.44-3,18.56-10,37.14-14.48,55.44-9.3,37.55-20.17,73.8-27,111.86-.85,4.7-1.45,11.23,0,15.78,2.42,7.63,12.88,12,20.28,15.29a284.72,284.72,0,0,0,58.43,18.11c25.61,5.33,51.81,7.71,77.89,9.5,14.4,1,62.82,16.11,69.85-2.81,10.83-29.14,8.23-59.56,19-88.71,9.34-25.12,15.7-57.44,18-84.18,1-11.36-1-21.92-.4-33.06C1469,1716.2,1469.54,1702.78,1469.27,1689.3Z"/><path fill="#f5b0a6" d="M1817,1873.65c-13.72-1.73-26.75,1.35-40.07,3.85-12.18,2.29-24.57,3.16-36.88,4.49-1.26.14-2.55.24-3.73.47-2.3.46-4.17,1.45-4.6,4.31-.87,5.72.18,12.39.54,18.15.09,1.43.32,3.08,1.54,3.86a4.75,4.75,0,0,0,2.51.5c10.07.06,20-1.89,30.07-2.74,11.89-1,22.7,3.92,34.75,1.32,2.5-.53,4.94-1.27,7.46-1.67,4.88-.77,9.78-.21,14.61.56,4.54.71,7.43,3.2,11.34,5.48,2.84,1.65,6.06,3,9.35,2.67,2.81-.24,2.29-2.46,4.2-3.38s6.52,1.17,8.48,1.64c1.68.41,3.56.74,5.05-.13s1.86-3.47.26-4.13c2.28-1.08,5.64,1.27,7.29-.62,1.16-1.34.1-3.37-1-4.76C1855.74,1887.86,1837.24,1876.21,1817,1873.65Z"/><path fill="#737373" d="M1820.42,1893.86a81.61,81.61,0,0,0-8.8-2.63c-.26-.07-.78-.13-1,.13s0,.46.25.53a79.58,79.58,0,0,1,35.24,18.6c.35.32,1.71.06,1.22-.39A81.64,81.64,0,0,0,1820.42,1893.86Z"/><path fill="#737373" d="M1834.32,1886.07a90.12,90.12,0,0,0-9.45-3.4c-.54-.15-1.6.4-.72.66a86.18,86.18,0,0,1,30.57,16.3,87.81,87.81,0,0,1,7.19,6.72c.33.35,1.69.1,1.22-.39A86.85,86.85,0,0,0,1834.32,1886.07Z"/><path fill="#f28e70" d="M1734.28,1870.69c-39-3.66-78-7.32-117.08-8.36-17.29-.46-34.62-.4-51.87-1.89-16.08-1.39-31.77-6.2-48-4.35-10.24,1.17-21.11,5.4-27.83,13.39-6.28,7.47-13,21.85-11.72,31.59,1.53,11.66,11.19,21,22.17,25.67s23.19,5.31,35.12,5.77q43.88,1.66,87.79.19,53.4-1.83,106.47-8.55c14.21-1.81,12.79-9.07,12.26-20.94-.31-6.92.43-13.85.46-20.78S1742.53,1871.47,1734.28,1870.69Z"/><path fill="#f28e70" d="M1541,1853.91q-16.32-27.71-30.72-56.47a951.66,951.66,0,0,1-43.08-99.92q-9.32-25.55-17.15-51.6c-2.61-8.66-4.66-17.55-7.46-26.14-2.42-7.42-7.81-14-13.22-19.73-6.06-6.4-13.64-12-22.43-13.2-9.49-1.36-19,2.48-27.12,7.52a90.65,90.65,0,0,0-39.55,55c-6.24,25.5-.44,48.69,9.31,72.44a656.75,656.75,0,0,0,31.32,65.87c18.77,34.23,40.95,66.75,66.88,96.1q9.43,10.68,19.53,20.77c17.26,17.25,45.88,33.43,69.75,17.82a56,56,0,0,0,9.19-8.15c8.64-8.86,12.81-13.6,10.14-26.59C1553.89,1875.45,1547.24,1864.53,1541,1853.91Z"/><path fill="#b74c34" d="M1367.59,1756.07q-7.48-15.61-14.08-31.63c-.38-.93-3.17-.68-2.73.4a613.19,613.19,0,0,0,58.57,109.27q9.7,14.39,20.22,28.23c.61.81,3.35.42,2.72-.4A615.89,615.89,0,0,1,1367.59,1756.07Z"/><path fill="#b74c34" d="M1426.58,1595a44.19,44.19,0,0,0-23.53-9.92c-.47,0-1.54,0-1.74.54s.51.9,1,.94c16.16,1.46,29,13.42,36.38,27,8.62,15.94,11,34.1,14.7,51.54,2.09,9.82,4.66,19.57,8.91,28.72.42.91,3.21.64,2.73-.4C1450.34,1661.86,1456.27,1618.93,1426.58,1595Z"/><path fill="#b74c34" d="M1387.46,1555.27a106.44,106.44,0,0,1-18.6-14.45c-.68-.68-3.4-.18-2.44.77,19,19,46.36,26.7,65.5,45.51a58.39,58.39,0,0,1,12.48,17.43c.42.92,3.21.65,2.73-.4C1436,1579.59,1409,1568.88,1387.46,1555.27Z"/><polygon points="1115.55 1883.87 1154.93 2219.57 1168.41 2218.03 1129.04 1882.33 1115.55 1883.87"/><polygon fill="#1a2d59" points="1124.78 2679.66 1146.79 2679.66 1209.67 2236.67 1188.08 2233.7 1124.78 2679.66"/><polygon fill="#1a2d59" points="1465.69 2236.67 1528.58 2679.66 1550.59 2679.66 1487.29 2233.7 1465.69 2236.67"/><path fill="#2f4171" d="M1125.42,1761.41a16.86,16.86,0,0,0-16.83-14.73h-5.25a16.79,16.79,0,0,0-16.83,18.66l38.08,317a16.88,16.88,0,0,0,16.84,14.73h5.24a16.78,16.78,0,0,0,16.83-18.65Z"/><path fill="#2f4171" d="M1538.46,2191.77H1181.58c-14.75,0-26.7,12.37-26.7,27.63s11.95,27.62,26.7,27.62h356.88c14.74,0,26.69-12.37,26.69-27.62S1553.2,2191.77,1538.46,2191.77Z"/><path fill="#090909" d="M2591.78,2625.06a67.28,67.28,0,0,1-14.68,9.83c-9.7,4.88-20.22,7.8-30.73,10.45-5.44,1.38-10.91,2.69-16.33,4.18-3.19.88-7.83,2.36-7.91,6.31,0,1.05,2.81,1.06,2.83,0,.05-2.86,3.16-4,5.53-4.72,3.45-1,7-1.85,10.44-2.73,6.76-1.69,13.53-3.32,20.2-5.37,12-3.68,23.7-8.81,33.08-17.18C2595.2,2625,2592.49,2624.42,2591.78,2625.06Z"/><polygon fill="#1a2d59" points="1708.52 1925.6 1992.61 1925.6 2001.32 1906.11 1708.52 1906.11 1708.52 1925.6"/><polygon fill="#1a2d59" points="1979.88 1906.11 1992.61 1925.6 2001.32 1906.11 2110.88 1661.06 2088.9 1661.06 1979.88 1906.11"/><path fill="#1a2d59" d="M2544.37,1711.33a14.25,14.25,0,0,0-13-8.24H2193.81a14.06,14.06,0,0,0-13,19.84l97.31,211.37a14.28,14.28,0,0,0,13,8.24h337.59a14.06,14.06,0,0,0,13-19.84Z"/><path fill="#d1dbed" d="M2534.46,1720.51a14.29,14.29,0,0,0-13-8.24H2212.18a14.06,14.06,0,0,0-13,19.84l88.86,193a14.27,14.27,0,0,0,13,8.25h309.29a14.05,14.05,0,0,0,13-19.84Z"/><path fill="#1a2d59" d="M2521.47,1712.27H2212.18a14.11,14.11,0,0,0-14.11,16H2538l-3.55-7.73A14.29,14.29,0,0,0,2521.47,1712.27Z"/><path fill="#1a2d59" d="M2621.14,1908.8H2280.55l7.51,16.31a14.27,14.27,0,0,0,13,8.25h309.29a14.05,14.05,0,0,0,13-19.84Z"/><path fill="#fff" d="M2322.77,1750.34a8,8,0,0,0-7.28-4.66h-83a7.85,7.85,0,0,0-7.28,11l58.29,129.67a8,8,0,0,0,7.28,4.67h83a7.85,7.85,0,0,0,7.28-11Z"/><path fill="#fff" d="M2523.47,1750.27a7.91,7.91,0,0,0-7.22-4.59h-148a7.81,7.81,0,0,0-7.22,11l5.87,12.8a8,8,0,0,0,7.23,4.59h148a7.82,7.82,0,0,0,7.22-11Z"/><path fill="#fff" d="M2544.67,1794.82a7.92,7.92,0,0,0-7.22-4.59h-148a7.81,7.81,0,0,0-7.22,11l5.87,12.8a8,8,0,0,0,7.22,4.59h148a7.82,7.82,0,0,0,7.22-11Z"/><path fill="#fff" d="M2564.46,1838a7.94,7.94,0,0,0-7.22-4.59h-148a7.82,7.82,0,0,0-7.23,11l5.88,12.79a7.92,7.92,0,0,0,7.22,4.59h148a7.82,7.82,0,0,0,7.23-11Z"/><rect width="452.27" height="20.88" x="2279.11" y="1921.66" fill="#1a2d59"/><polygon fill="#7d9ec6" points="1492.97 2682.36 1509.84 2682.36 1622.79 1952.82 1607.03 1945.71 1492.97 2682.36"/><polygon fill="#7d9ec6" points="3261.22 1952.82 3374.17 2682.36 3391.04 2682.36 3276.98 1945.71 3261.22 1952.82"/><rect width="2005.57" height="47.33" x="1434.33" y="1925.6" fill="#acc4e5"/><path fill="#ef7c59" d="M2335.84,1884.65a23.62,23.62,0,0,1,.55-15.69c.53-1.38,1.16-2.74,1.71-4.12.93-2.37,1.56-4.74.93-7.26-17.33-1.45-35.91-.1-53.38-.1H2118.47c-2.88,0-7.95-.76-10.68,0a15.23,15.23,0,0,1-2.15.13,29.92,29.92,0,0,0,1.7,7.23,24.87,24.87,0,0,1,1.4,6.34,35.36,35.36,0,0,1-2.37,14.7c-.42,1.07-1.31,2.85-2,4.74-1.17,3-1.91,6.28.45,7.36a10.48,10.48,0,0,0,2.24,0,94.86,94.86,0,0,0,9.54,0h214.58a56.18,56.18,0,0,0,8-.14l.09,0c.56-2.37-.13-4.8-1.05-7.2C2337.41,1888.59,2336.44,1886.59,2335.84,1884.65Z"/><path fill="#fcfcfc" d="M2336.39,1869c.53-1.38,1.16-2.74,1.71-4.12H2107.34a24.87,24.87,0,0,1,1.4,6.34,35.36,35.36,0,0,1-2.37,14.7c-.42,1.07-1.31,2.85-2,4.74H2338.2c-.79-2-1.76-4-2.36-6A23.62,23.62,0,0,1,2336.39,1869Z"/><path fill="#f3ce90" d="M2323.59,1855.07a18.62,18.62,0,0,1-2-4.27,16,16,0,0,1-.1-11,43.9,43.9,0,0,1,2.17-4.17c.84-1.6,1.44-3.21,1-4.52-.16,0-.32,0-.47,0-.72-.3-2.33,0-3.11,0H2071.14a5.54,5.54,0,0,0-5.7,5.35v16.66a5.54,5.54,0,0,0,5.7,5.35h251.74a4.61,4.61,0,0,0,1.23,0,1.56,1.56,0,0,0,.34-.18c1.09-.82.05-2-.62-2.86C2323.74,1855.28,2323.65,1855.16,2323.59,1855.07Z"/><path fill="#fcfcfc" d="M2321.55,1850.8a16,16,0,0,1-.1-11,43.9,43.9,0,0,1,2.17-4.17h-78.87a4.25,4.25,0,0,0-4.37,4.1v11.55a4.25,4.25,0,0,0,4.37,4.11h79.08c-.09-.11-.18-.23-.24-.32A18.62,18.62,0,0,1,2321.55,1850.8Z"/><path fill="#f3ce90" d="M2323.59,1922a18.62,18.62,0,0,1-2-4.27,16,16,0,0,1-.1-11,43.85,43.85,0,0,1,2.17-4.16c.84-1.6,1.44-3.21,1-4.52-.16-.06-.32,0-.47,0-.72-.3-2.33,0-3.11,0H2071.14a5.54,5.54,0,0,0-5.7,5.35V1920a5.54,5.54,0,0,0,5.7,5.35h251.74a5.06,5.06,0,0,0,1.23,0,1.25,1.25,0,0,0,.34-.19c1.09-.81.05-2-.62-2.85C2323.74,1922.16,2323.65,1922,2323.59,1922Z"/><path fill="#fcfcfc" d="M2321.55,1917.68a16,16,0,0,1-.1-11,43.85,43.85,0,0,1,2.17-4.16H2204.11c-4.11,0-7.47,1.84-7.47,4.1v11.55c0,2.27,3.36,4.11,7.47,4.11h119.72c-.09-.11-.18-.23-.24-.32A18.62,18.62,0,0,1,2321.55,1917.68Z"/><path fill="#2e6857" d="M2595.81,1599.89c-27.13-12.35-58.57,21.34-73.08,38.88-30.15,36.44-53.89,77.46-76,118.79-28,52.34-58.22,106.59-76,163.1-12.12,38.5,19,68.59,59.27,51.27,15.48-6.65,27.86-18.5,39.29-30.6a542,542,0,0,0,83.64-116c21.27-39.69,41.48-83.76,52.12-127.2C2611.07,1673.5,2627.9,1614.49,2595.81,1599.89Z"/><path fill="#f3ce90" d="M2791.34,1548.65a88.11,88.11,0,0,0-31.2-11.53c-21.2-3.46-42.63,0-62.47,7.93-2.59,1-5.16,2.14-7.69,3.32-10.6,4.91-20.48,11.71-27.94,20.57-2.65,3.15-8.59,8.76-3.09,11.56,3.64,1.85,10.34-1,14.07-1.61l35-5.52c14.48-2.29,29.06-4.58,43.73-4.23,11.75.28,23.37,2.23,35.08,3.1,7.06.52,23.53,3,29.34-1.6C2818.11,1569.13,2793.72,1550.08,2791.34,1548.65Z"/><path fill="#2e6857" d="M3002.89,1785.87c-10.66-21.69-23.94-41.42-35-63.12q-5.43-10.62-11.08-21.14-12.56-23.38-26.21-46.21c-1.87-3.13-5-9-8.86-15.87q-4.38-5.61-8.95-11.09a262.4,262.4,0,0,0-34.41-34.79c-4.3,0-8.49,1.91-12.41,6.6-12,14.35-13.23,34.36-12.27,52.8,5.25,100.35,57.9,191.88,109.24,279.25,6.13,10.44,12.82,21.41,23.77,27.07,11.71,6.06,25.86,4.8,39.05,3.32,8.3-.93,17.48-2.34,22.64-8.69s4.43-15.17,3.21-23.07C3043.83,1880.35,3025.49,1831.89,3002.89,1785.87Z"/><path fill="#2e6857" d="M2929.11,1743.56c1-30.69,2.9-62-5.53-91.56a40.18,40.18,0,0,0-2.36-13.14q-4.14-5.27-8.44-10.42c-10.56-12.61-21.85-24.51-34.68-35a163.66,163.66,0,0,0-20.11-14.19,112.49,112.49,0,0,0-23-10.34c-12.24-4-24-7.46-36.6-10.69-29.61-7.6-61.29-6.06-91.62-2.53-40.29,4.7-79.12,18-115.94,34-21.58,9.42-54.35,21.44-64.32,44.39-12.3,28.3,9.88,70.87,18.13,97.7,18.28,59.45,18.27,122,18.77,183.46.25,30.93,0,62.18,3.25,93,2.89,27.29,4.82,41.52,35.11,49.15,21.34,5.38,43.52,6.77,65.56,7.64A1476.88,1476.88,0,0,0,2900,2055.9c36.55-4.33,45.34-26.13,41.37-58.67C2931.07,1912.75,2926.11,1828.72,2929.11,1743.56Z"/><path fill="#6fc183" d="M2567.27,1697.3c-2.63-10.66-5.69-21.31-10.15-31.41-4.73-10.75-11.2-20.87-20.28-28.7-.74-.63-3.51-.1-2.49.77,16.64,14.34,23.93,35.73,29.2,56a291.9,291.9,0,0,1,6.49,113.51c-.13,1,2.73,1.09,2.89,0a292.71,292.71,0,0,0-5.66-110.19Z"/><path fill="#2c4da2" d="M2827.21,1996.27c-31.41-5.43-65.93-2.07-97.62-1l-44.67,1.57c-10.24.36-25.24-4.23-28.5,8.86-1.33,5.34.06,10.92,1.44,16.25-45.29,4.61-90.29,5.09-135.66,5.72-44,.61-88.88,1.17-131,15-34.15,11.23-67,38.89-52.67,75.82,7.37,19,28.54,28,43.69,41.15,15.4,13.36,31.82,26.53,49.47,37.1h346.66c14.73-4,23.77-10.78,35.2-19.82q2.36-1.86,4.84-3.49c7.86-5.19,16.58-9,25-14.14a155.25,155.25,0,0,0,52.35-52.55,148.53,148.53,0,0,0,19-99.2C2914.16,2003.83,2835.57,1997.71,2827.21,1996.27Z"/><path fill="#f5b0a6" d="M2423.77,2571.5c1-21.86,1.57-43.73,2-65.61.39-20.26,1.59-40.8.86-61,.16-14.42.31-29-2.74-43.09-4.86-22.45-34.18-20.59-49.73-13-9.06,4.41-17.43,11.25-21.75,20.72-4.71,10.3-4.13,22.33-3.38,33.76q4.29,65.67,11.45,131.12,1.71,15.7,3.59,31.38c1.79,14.9.34,29.15-11.16,40.42a19,19,0,0,0-3.61,4.11,4.74,4.74,0,0,0,0,5.13,6.28,6.28,0,0,0,2.53,1.71c5.71,2.5,13,2.7,19.16,3.44,14.85,1.78,30,3.56,44.71,1.08a17.74,17.74,0,0,0,5.39-1.58c7.26-3.86,6.12-11.71,4.05-18-.94-2.85-1.87-5.72-2.62-8.62a43.6,43.6,0,0,1-1.47-9.7c-.18-6.5.5-13,.92-19.5Q2423,2587.89,2423.77,2571.5Z"/><path fill="#192d5b" d="M2429.68,2668.86a2.71,2.71,0,0,1,0-1.2c0-.22.09-.45.14-.68a27.15,27.15,0,0,0,.33-5.49,65.84,65.84,0,0,0-1.95-16.84c-.72-2.65-1.3-5.73-3-8-2.85-3.8-4.93-1.79-8.47,0a49.5,49.5,0,0,1-47.22-1.81c-2.32-1.37-4.54-5.65-7.27-5.58-3.44.08-6.35,4.89-8.72,6.8a132.83,132.83,0,0,1-52.28,25.38c-3.89.92-7.82,1.64-11.74,2.43-3.56.71-8.49,1-11.67,2.74a8.07,8.07,0,0,0-2.92,2.52c-.94,1.4-.91,3,1.2,4.18,3.66,2.11,9.67,2.82,13.84,3.55,9.83,1.76,19.87,1.92,29.82,1.92h37.47c3.5,0,8.5.9,11.85,0,3.88-1.06,7.71-2.5,11.69-3.82,1.26-.42,2.54-.83,3.84-1.17,3.06-.8,10.22-2.74,12.37.38a9.09,9.09,0,0,1,1.19,3.25c.11.45.2.91.31,1.36h32.76a8.2,8.2,0,0,0,.17-1.57c.1-2.64.44-4.81-1.12-7.23A4,4,0,0,1,2429.68,2668.86Z"/><path d="M2429.68,2668.86a2.71,2.71,0,0,1,0-1.2,191.53,191.53,0,0,0-37.38.58,14.77,14.77,0,0,0-7.69-6.53c-4-1.5-8.44-1.31-12.64-1.34a115,115,0,0,0-13.76.53c-2.24.26-4.45.7-6.67,1a26.64,26.64,0,0,1-3.89.34c-1.33,0-2.55-.08-3.4-1.19a44.32,44.32,0,0,1-3.26-5.3c-1.09-1.94-2.08-3.92-3-5.94-.22-.5-1.76-.35-1.5.22,1,2.23,2.12,4.42,3.34,6.55.61,1.07,1.24,2.12,1.91,3.16a8.35,8.35,0,0,0,1.93,2.49c1.5,1.08,3.83.9,5.57.77,2.29-.16,4.53-.62,6.78-1a90.53,90.53,0,0,1,14.06-.86c4.4,0,9.22-.35,13.42,1.11a13.62,13.62,0,0,1,7.28,6.14c-2.87.37-5.73.8-8.54,1.33-7.79,1.49-15.27,3.06-23.23,3.56s-15.8.44-23.7.32l-2.36-.05c-11.41-.18-22.83-.4-34.21-1.37-5.74-.5-11.49-1.17-17.17-2.14a45.55,45.55,0,0,0-6.64-1c-.94,1.4-.91,3,1.2,4.18,3.66,2.11,9.67,2.82,13.84,3.55,9.83,1.76,19.87,1.92,29.82,1.92h37.47c3.5,0,8.5.9,11.85,0,3.88-1.06,7.71-2.5,11.69-3.82,1.26-.42,2.54-.83,3.84-1.17,3.06-.8,10.22-2.74,12.37.38a9.09,9.09,0,0,1,1.19,3.25c.11.45.2.91.31,1.36h32.76a8.2,8.2,0,0,0,.17-1.57c.1-2.64.44-4.81-1.12-7.23A4,4,0,0,1,2429.68,2668.86Z"/><path d="M2355.47,2635.39a2.43,2.43,0,0,0-2.13-.3,1.17,1.17,0,0,0-.72.5.52.52,0,0,0,.16.64,53.55,53.55,0,0,1,4.89,4.39,1.64,1.64,0,0,0,.93.38,2.71,2.71,0,0,0,1.2-.08,1.2,1.2,0,0,0,.72-.5.53.53,0,0,0-.16-.63A53.81,53.81,0,0,0,2355.47,2635.39Z"/><path d="M2349.32,2639.68a2.38,2.38,0,0,0-2.14-.3,1.2,1.2,0,0,0-.72.5.53.53,0,0,0,.16.63,34.15,34.15,0,0,1,3.43,3.69c.13.17.26.33.38.5a2,2,0,0,0,1.92.57,1.7,1.7,0,0,0,.93-.38c.14-.14.31-.43.16-.63A34.45,34.45,0,0,0,2349.32,2639.68Z"/><path d="M2342.31,2644.27a1.64,1.64,0,0,0-.94-.38,2.72,2.72,0,0,0-1.2.08,1.15,1.15,0,0,0-.71.5.54.54,0,0,0,.16.64c.5.54,1,1.1,1.43,1.67s.95,1.25,1.39,1.9a2,2,0,0,0,1.92.58,1.67,1.67,0,0,0,.93-.38.53.53,0,0,0,.16-.64A32.4,32.4,0,0,0,2342.31,2644.27Z"/><path fill="#2c4da2" d="M2464.28,2098.32c-1.08-15.7-4.28-30.75-18.1-39.55a55.23,55.23,0,0,0-12.2-5.67c-.76-.25-1.51-.5-2.28-.73-8.28-2.4-16.53-2.64-24.89-4.13-6.87-1.23-12.65-6.14-20.19-4.42a29.66,29.66,0,0,0-5.87,2.26c-18,8.42-34.07,19.76-43.86,37.22a129.15,129.15,0,0,0-13.62,38c-5.32,26.68-4.07,54.16-2.81,81.14.46,10.08.84,20.18,1.23,30.26,5.11,129.46,15.73,258.7,13.42,388.34l123.42.13,7.14-113.23c2.81-49.61,4.5-110.25,3.9-159.94C2468.56,2264.46,2470,2182.17,2464.28,2098.32Z"/><path fill="#2c4da2" d="M2922.06,1996c-6.37-6.41-15.91-7.27-24.61-6.91-15.9.64-31.85,2.93-46.78,8.28-8.08,2.9-15.8,6.66-23.76,9.86-63.78,25.6-139,23.82-207,25.81-47.32,1.39-103.14-5.11-148.3,9.73-34.15,11.23-67,38.89-52.68,75.82,7.37,19,28.55,28,43.69,41.15,15.41,13.36,31.83,26.53,49.48,37.1.79.48,3.47,0,4.37,0h307.18c29.31,0,54.66,3.13,76.45-19.16.68-.7,1.35-1.4,2-2.11,36.48-39.12,34.89-88.56,28.66-138C2929.37,2026.31,2930.69,2004.67,2922.06,1996Z"/><path fill="#f5b0a6" d="M2665.73,2574.29c1-21.86,1.57-43.74,2-65.61.39-20.26,1.6-40.8.86-61.06.16-14.42.31-29-2.74-43.08-4.86-22.45-34.18-20.59-49.73-13-9.06,4.42-17.43,11.26-21.75,20.72-4.71,10.3-4.13,22.33-3.38,33.76q4.29,65.67,11.45,131.13,1.71,15.69,3.6,31.37c1.78,14.91.33,29.16-11.17,40.42a18.79,18.79,0,0,0-3.61,4.12,4.72,4.72,0,0,0,.05,5.12,6.28,6.28,0,0,0,2.53,1.71c5.71,2.5,13,2.7,19.16,3.44,14.85,1.79,30,3.56,44.71,1.08a17.46,17.46,0,0,0,5.39-1.58c7.26-3.86,6.12-11.71,4.05-18-.93-2.84-1.87-5.71-2.62-8.62a43.51,43.51,0,0,1-1.47-9.7c-.17-6.49.5-13,.92-19.5Q2665,2590.67,2665.73,2574.29Z"/><path fill="#192d5b" d="M2671.64,2671.64a2.67,2.67,0,0,1,0-1.19c0-.23.09-.45.14-.68a27.19,27.19,0,0,0,.33-5.49,65,65,0,0,0-1.95-16.85c-.72-2.65-1.3-5.72-3-8-2.84-3.8-4.93-1.8-8.46,0a49.45,49.45,0,0,1-47.23-1.81c-2.32-1.37-4.54-5.65-7.27-5.58-3.43.08-6.35,4.89-8.72,6.8a130.07,130.07,0,0,1-15.89,10.88,132.71,132.71,0,0,1-36.39,14.5c-3.89.92-7.82,1.65-11.74,2.43-3.56.71-8.49,1-11.67,2.75a8.05,8.05,0,0,0-2.92,2.51c-.94,1.41-.91,3,1.2,4.18,3.67,2.11,9.67,2.82,13.84,3.56,9.84,1.75,19.87,1.91,29.83,1.91h37.47c3.49,0,8.49.91,11.84,0,3.89-1.05,7.71-2.5,11.69-3.81,1.27-.42,2.55-.83,3.84-1.18,3.06-.8,10.22-2.74,12.38.38a9.39,9.39,0,0,1,1.18,3.26c.11.45.2.9.31,1.35h32.76a8.19,8.19,0,0,0,.17-1.56c.1-2.64.44-4.82-1.12-7.24A3.76,3.76,0,0,1,2671.64,2671.64Z"/><path d="M2671.64,2671.64a2.67,2.67,0,0,1,0-1.19,190.75,190.75,0,0,0-37.38.58,14.76,14.76,0,0,0-7.68-6.54c-4-1.49-8.45-1.31-12.65-1.33a115,115,0,0,0-13.76.53c-2.24.25-4.45.69-6.67,1a26.64,26.64,0,0,1-3.89.34c-1.33,0-2.55-.08-3.4-1.18a45.13,45.13,0,0,1-3.26-5.3q-1.62-2.93-3-6c-.23-.49-1.76-.34-1.5.22,1,2.23,2.12,4.42,3.34,6.55.61,1.07,1.24,2.12,1.91,3.16a8.59,8.59,0,0,0,1.93,2.5c1.5,1.07,3.83.89,5.58.77,2.28-.16,4.52-.62,6.77-1A89.32,89.32,0,0,1,2612,2664c4.4,0,9.21-.36,13.42,1.11a13.56,13.56,0,0,1,7.28,6.13c-2.87.37-5.72.8-8.54,1.34-7.79,1.49-15.27,3.06-23.23,3.55s-15.81.44-23.7.32l-2.36,0c-11.4-.18-22.83-.41-34.21-1.37-5.74-.5-11.48-1.18-17.16-2.15a47.3,47.3,0,0,0-6.65-1c-.94,1.41-.91,3,1.2,4.18,3.67,2.11,9.67,2.82,13.84,3.56,9.84,1.75,19.87,1.91,29.83,1.91h37.47c3.49,0,8.49.91,11.84,0,3.89-1.05,7.71-2.5,11.69-3.81,1.27-.42,2.55-.83,3.84-1.18,3.06-.8,10.22-2.74,12.38.38a9.39,9.39,0,0,1,1.18,3.26c.11.45.2.9.31,1.35h32.76a8.19,8.19,0,0,0,.17-1.56c.1-2.64.44-4.82-1.12-7.24A3.76,3.76,0,0,1,2671.64,2671.64Z"/><path d="M2597.43,2638.17a2.4,2.4,0,0,0-2.13-.29,1.22,1.22,0,0,0-.72.49.52.52,0,0,0,.16.64,55.18,55.18,0,0,1,4.89,4.4,1.79,1.79,0,0,0,.93.38,2.7,2.7,0,0,0,1.2-.09,1.15,1.15,0,0,0,.72-.49.53.53,0,0,0-.16-.64A53.81,53.81,0,0,0,2597.43,2638.17Z"/><path d="M2591.28,2642.46a2.42,2.42,0,0,0-2.14-.3,1.19,1.19,0,0,0-.71.5.53.53,0,0,0,.15.64A33.24,33.24,0,0,1,2592,2647l.38.49a2.05,2.05,0,0,0,1.92.58,1.83,1.83,0,0,0,.93-.38c.15-.14.31-.44.16-.64A35.09,35.09,0,0,0,2591.28,2642.46Z"/><path d="M2584.27,2647.05a1.63,1.63,0,0,0-.93-.37,2.49,2.49,0,0,0-1.21.08,1.2,1.2,0,0,0-.71.49.53.53,0,0,0,.16.64c.5.54,1,1.1,1.43,1.68s.95,1.25,1.39,1.9a2,2,0,0,0,1.92.58,1.76,1.76,0,0,0,.93-.39.51.51,0,0,0,.16-.63A33.28,33.28,0,0,0,2584.27,2647.05Z"/><path fill="#2c4da2" d="M2700.62,2098.32c-1-15.71-4.1-30.75-17.39-39.55-14.69-9.74-37.18-11.17-54.18-11.85-7.62-.3-15.53-.05-22.42,3.46-4.59,2.34-8.48,6-12.05,9.91-36.1,39.28-55.81,83.09-53.57,134.19.45,10.08,2.22,31.71,2.6,41.79,4.91,129.46.5,249.93-1.73,379.58l142.75,5.2c.52-5,1-10,1.43-14.93,3-35.92,3.66-71.89,5.63-108q4.07-74.4,3.19-149C2693.91,2265.57,2706.12,2182.17,2700.62,2098.32Z"/><path d="M2466.31,2195.32a338.43,338.43,0,0,1-46.65-16,2.29,2.29,0,0,0-2,0c-.42.3-.62.81,0,1.08a341.69,341.69,0,0,0,47.23,16.2c.53.14,1.6.24,2-.27S2466.88,2195.47,2466.31,2195.32Z"/><path d="M2627.43,2215.55q.33,76.48.16,153-.16,76.09-.8,152.18-.37,42.92-.89,85.84c0,1,2.87,1.06,2.89,0q.91-76.47,1.35-153,.43-76.1.38-152.18,0-42.93-.21-85.85C2630.31,2214.5,2627.43,2214.5,2627.43,2215.55Z"/><path d="M2714.56,2017.69c-5.84,19.14-12.15,38.88-24.35,55.26a72.48,72.48,0,0,1-24.07,20.94c-10.38,5.51-22,8.47-33.56,10.42-12,2-24.12,3.11-36.2,4.36-13.7,1.42-27.44,2.66-41.22,3.18-26.09,1-52.1-1.3-78.13-2.61-28.24-1.43-56.78-1.49-84.37,5.24-.33.08-.91.46-.66.86a19.93,19.93,0,0,1,.46,20.82c-1.71,2.87-4.16,5.29-5.7,8.27a20.32,20.32,0,0,0-2,10.17c.27,7.55,2.92,15,4.47,22.35q2.54,12.06,3.89,24.32c3.71,33.52-.75,66.71-4.69,100a1175.45,1175.45,0,0,0-6.48,200.87q3,56.67,11.55,112.89c.16,1.08,3,1,2.88,0a1175.47,1175.47,0,0,1-12.93-202.35q1.16-50.58,6.67-101c3.65-33.31,9.16-66.59,6.81-100.19a253.11,253.11,0,0,0-3.5-27.83c-1.56-8.56-4.32-17-5.48-25.61-.56-4.13-.56-8.46,1.17-12.35,1.62-3.67,4.7-6.47,6.6-10a20.71,20.71,0,0,0-.57-20.18c51.73-12.29,105.15-.47,157.56-2.11,13.63-.42,27.22-1.57,40.78-2.94,12.44-1.25,24.94-2.4,37.29-4.33,21.61-3.36,42.48-10.34,57.22-26.72,15.53-17.26,22.78-39.84,29.34-61.37C2717.68,2017,2714.84,2016.75,2714.56,2017.69Z"/><path fill="#6fc183" d="M2920.75,1651.26c-.15-1.08-3-1-2.89,0a865.88,865.88,0,0,1,7.39,122.86q-.2,17.54-1.11,35.07c-.06,1,2.82,1.07,2.88,0a865.33,865.33,0,0,0-2.39-123Q2923,1668.66,2920.75,1651.26Z"/><polygon fill="#1a2d59" points="2538.94 2697.55 2559.28 2697.55 2612.95 2213.62 2592.83 2211.54 2538.94 2697.55"/><polygon fill="#1a2d59" points="2472.67 2697.71 2493.01 2697.71 2546.67 2213.78 2526.56 2211.69 2472.67 2697.71"/><polygon fill="#1a2d59" points="2981.57 2213.62 3035.23 2697.55 3055.57 2697.55 3001.68 2211.54 2981.57 2213.62"/><polygon fill="#1a2d59" points="2899.45 2213.78 2953.11 2697.71 2973.45 2697.71 2919.56 2211.69 2899.45 2213.78"/><rect width="20.23" height="371.74" x="2635.92" y="1850.61" fill="#1a2d59"/><rect width="20.22" height="372.39" x="2952.78" y="1850.61" fill="#1a2d59"/><path fill="#1a2d59" d="M2942,2190.43h-417.5c-11.73,0-21.25,13.21-21.25,29.51s9.52,29.51,21.25,29.51H2942c11.74,0,21.25-13.22,21.25-29.51S2953.71,2190.43,2942,2190.43Z"/><path fill="#1a2d59" d="M2997.56,2190.43H2568.29c-12.06,0-21.84,13.21-21.84,29.51s9.78,29.51,21.84,29.51h429.27c12.07,0,21.85-13.22,21.85-29.51S3009.63,2190.43,2997.56,2190.43Z"/><path fill="#2f4171" d="M2804.46,1747.48c-127.33,0-230.56,99.74-230.56,222.78v95.92c0,16.82,14.11,30.45,31.52,30.45h398.09c17.4,0,31.51-13.63,31.51-30.45v-95.92C3035,1847.22,2931.8,1747.48,2804.46,1747.48Z"/><path fill="#2f4171" d="M3005.89,2190.43H2578.15c-12,0-21.78,13.21-21.78,29.51s9.75,29.51,21.78,29.51h427.74c12,0,21.77-13.22,21.77-29.51S3017.91,2190.43,3005.89,2190.43Z"/><path fill="#f5b0a6" d="M2161,860c-13,0-23.44,11.2-23.44,25s10.49,25,23.44,25,23.44-11.19,23.44-25S2174,860,2161,860Z"/><path fill="#ef8b8b" d="M2155.36,870.35a1.49,1.49,0,0,0-1.68,1.23,1.47,1.47,0,0,0,1.25,1.66c.6.09,14.74,2.35,13.14,15.19a19.18,19.18,0,0,1-3.22,9.07,1.45,1.45,0,0,0,.33,2,1.5,1.5,0,0,0,.87.28,1.47,1.47,0,0,0,1.2-.61,22.12,22.12,0,0,0,3.76-10.43C2173,873.11,2155.54,870.38,2155.36,870.35Z"/><path fill="#ef8b8b" d="M2163.71,882.33a11.23,11.23,0,0,0-8,1.67,1.45,1.45,0,0,0-.35,2,1.51,1.51,0,0,0,2.06.36,8.2,8.2,0,0,1,5.67-1.2c2,.42,3.7,1.82,5.14,4.17a1.49,1.49,0,0,0,1.27.7,1.48,1.48,0,0,0,.76-.21,1.44,1.44,0,0,0,.5-2C2168.91,884.77,2166.53,882.91,2163.71,882.33Z"/><path fill="#ef8b8b" d="M2267.14,910a21.49,21.49,0,0,0,21.64,21.32V888.7A21.49,21.49,0,0,0,2267.14,910Z" opacity=".6"/><path fill="#d36c6c" d="M2256.38,862.12a1.64,1.64,0,0,0-1.49,1.79l4.66,44.47h-14.84a1.64,1.64,0,1,0,0,3.28h16.68a1.67,1.67,0,0,0,1.23-.54,1.62,1.62,0,0,0,.42-1.27l-4.84-46.27A1.66,1.66,0,0,0,2256.38,862.12Z"/><path d="M2200.36,856.23c1.06,5.67,21.91,1.61,22-4.6C2222.57,841.8,2198.6,846.81,2200.36,856.23Z"/><path d="M2275.69,849.13c-1.7,5,16.94,10.88,19.83,5.92C2300.1,847.2,2278.51,840.76,2275.69,849.13Z"/><path fill="#ef8b8b" d="M2204,887.28a21.33,21.33,0,1,0,21.65,21.32A21.48,21.48,0,0,0,2204,887.28Z" opacity=".6"/><path d="M2226.76,870.59c-2.54-.06-4.69,3.38-4.79,7.68s1.88,7.84,4.43,7.89,4.68-3.38,4.78-7.68S2229.31,870.64,2226.76,870.59Z"/><path d="M2273.52,870.59c-2.54-.06-4.68,3.38-4.78,7.68s1.87,7.84,4.42,7.89,4.69-3.38,4.79-7.68S2276.07,870.64,2273.52,870.59Z"/><path d="M2257,932.49a19.76,19.76,0,0,0-3.24-3.62A12.39,12.39,0,0,0,2241,927a15.71,15.71,0,0,0-2.18,1.07c-3.87,2.32-7.76,7.1-7.64,11.83a7.76,7.76,0,0,0,.43,2.42c1.74,5.06,8.3,7,13.16,7.69,4.41.6,9.87.24,13.1-3.15a6.85,6.85,0,0,0,.5-.56c2.72-3.4,2-7.88,0-11.69A20,20,0,0,0,2257,932.49Z"/><path fill="#d36c6c" d="M2252.64,941.48a21.84,21.84,0,0,0-14.32-3.94,15.55,15.55,0,0,0-7.17,2.32,7.76,7.76,0,0,0,.43,2.42c1.74,5.06,8.3,7,13.16,7.69,4.41.6,9.87.24,13.1-3.15A21.28,21.28,0,0,0,2252.64,941.48Z"/><path fill="#fff" d="M2253.78,928.87A12.39,12.39,0,0,0,2241,927a20.68,20.68,0,0,0,1.68,1.56c3.3,2.71,7.43,4.23,11.59,5.28a28,28,0,0,0,4.06.77,20,20,0,0,0-1.28-2.08A19.76,19.76,0,0,0,2253.78,928.87Z"/><path fill="#f5b0a6" d="M3647,1978.77c-7-2.13-14.63-2.55-22.11-2.83a753.52,753.52,0,0,0-78.53,1.09c-12.86.85-31.24,6.34-38.73,15.66-5.78,7.19-5.49,16.49-5,25.12l9.09,156.83a200.47,200.47,0,0,0,2.45,24.67c4.34,23.7,12.24,46.29,13.39,70.14,1.33,27.31,6.84,54.91,9.94,82.15s6,54.4,8.73,81.62q4.14,41.43,7.71,82.9,2.48,28.82,4.66,57.65c1,13.47,2,27,.54,40.45-.46,4.14-1.07,8.59,1.38,12.21,3.85,5.69,16.74,4.38,23.39,4.63,10.64.4,27.58,3.08,33.78-6.18,3-4.44,3.27-9.74,3.55-14.82a821.89,821.89,0,0,1,14.82-117c14.31-71.53,29.2-143.82,23.16-217-2.24-27.12-9.39-53.47-13-80.32-3.87-28.68-2-58.22-.32-87,2.07-35.1,17.49-69.25,19.19-104.84.21-4.44.24-9-1.76-13.16C3660.55,1985,3654,1980.9,3647,1978.77Z"/><path fill="#f5b0a6" d="M3640.93,2619.57c-1.1-1.63-2.32-3.23-3.5-4.82-.26-.36-.54-.7-.8-1.06a121.06,121.06,0,0,1-8.25-12.72c-.91-1.62-1.79-3.28-2.74-4.89a29.85,29.85,0,0,0-7.17-8.86,3.34,3.34,0,0,0-.34-.25,22.26,22.26,0,0,0-4.22-2.53l-1.07-.49a34.21,34.21,0,0,0-4.68-1.55c-.48-.12-1-.22-1.46-.33l-.38-.08c-.44-.1-.91-.18-1.36-.25a49.26,49.26,0,0,0-6.62-.63,35,35,0,0,0-23.9,7.93h0a55.17,55.17,0,0,0-10.13,11c-.85,1.17-1.67,2.39-2.48,3.61s-1.59,2.48-2.35,3.75c-.87,1.44-1.71,2.88-2.55,4.3s-1.56,2.71-2.31,4l-.3.53q-4.44,7.76-8.86,15.52-7.3,12.78-14.59,25.58c-3.1,5.4-6.23,10.89-10.74,15.53-.62.64-1.27,1.28-1.95,1.87h0a30,30,0,0,1-15.55,7.62c-3.46.51-5.86,1.85-5.85,4.19h50.61a63.39,63.39,0,0,0,6.47-5.72c8.32-8.18,16.77-16.76,27.75-22.44,8.65-4.46,17.29-5.7,26.58-7.06,2.86-.4,5.77-.84,8.78-1.38l.16,0a51.28,51.28,0,0,0,15.59-5.32c6.92-3.84,13.53-9.36,11.93-17A23.54,23.54,0,0,0,3640.93,2619.57Z"/><path fill="#192d5b" d="M3630.69,2603.68l-.62.2a14.1,14.1,0,0,0-4.92,3.4c-2.75,2.65-6.08,5.74-7.84,9s-2.75,5.71-5.38,8.56a90.3,90.3,0,0,1-8.29,7.74c-3.92,3.27-8.12,6.38-12.32,9.41-7.36,6.13-14.85,12.08-22.8,17.57a82.53,82.53,0,0,1-18.38,10.06,55.28,55.28,0,0,1-9,2.57c-.77.14-1.53.28-2.33.4-6.78,1-13.58,1.07-20.25,1.81l-1.21.14a52.61,52.61,0,0,0-11.17,2.51,39.8,39.8,0,0,0-9.18,4.24,12.4,12.4,0,0,0-4.59,5.44h64.95a21.13,21.13,0,0,0,2.45-2.52c9.55-11.79,20-21.5,35.9-26.71,2.59-.84,5.6-2.06,8.65-2.77a9.3,9.3,0,0,1,1.1-.27,14.76,14.76,0,0,1,7.39.1l.62.22c4.38,1.75,2.63,5.54,2.61,8.8,0,3.54,0,7,0,10.55,0,4.1,0,8.17,0,12.27l9.28-.21c2.35-.06,5.68,1.54,5.85-1.6.27-5.58.58-11.17.86-16.74.26-4.88.59-10.1,3.3-14.51,2.53-4.1,5.78-7.94,8.05-12.19,3.07-5.69,3-12.34,1.3-18.38C3643.37,2618.33,3638.23,2601.64,3630.69,2603.68Z"/><path fill="#153c93" d="M3656,1664.11c-7.52-17.91-17-36.3-34.76-47.66-14-9-31.73-12.55-49-14.66a369.26,369.26,0,0,0-102.23,1.84c-5.49.86-11.12,1.92-15.67,4.7-11.23,6.84-11.67,20.83-10.86,32.67q4.65,68.09,15,135.76c6.47,42.13,6.25,83.81,8.71,126.26,13.17,226.41,44.93,453.11,72.67,678.56h117.85c0-2.85,22.14.34,22.26-1.29.82-11.29-.56-9.82,0-21.12,2.29-46-6.2-94.69-3.9-140.74,2.19-43.58-6.74-103-4.5-146.58,4.45-86.35,5.27-165.9,11-252.18,4.18-63,6.52-143.29,5.19-206.42C3686.6,1759.55,3677.16,1714.59,3656,1664.11Z"/><path fill="#f5b0a6" d="M3475.11,1978.77c-7-2.13-14.63-2.55-22.11-2.83a753.52,753.52,0,0,0-78.53,1.09c-12.86.85-31.24,6.34-38.73,15.66-5.78,7.19-5.49,16.49-5,25.12l9.09,156.83c.48,8.24.95,16.51,2.45,24.67,4.34,23.7,12.24,46.29,13.39,70.14,1.33,27.31,6.84,54.91,9.94,82.15s6,54.4,8.73,81.62q4.14,41.43,7.71,82.9,2.47,28.82,4.67,57.65c1,13.47,2,27,.53,40.45-.45,4.14-1.07,8.59,1.38,12.21,3.85,5.69,16.74,4.38,23.39,4.63,10.64.4,27.58,3.08,33.78-6.18,3-4.44,3.27-9.74,3.55-14.82a821.89,821.89,0,0,1,14.82-117c14.31-71.53,29.2-143.82,23.16-217-2.25-27.12-9.39-53.47-13-80.32-3.87-28.68-2-58.22-.32-87,2.07-35.1,17.49-69.25,19.18-104.84.21-4.44.25-9-1.75-13.16C3488.65,1985,3482.14,1980.9,3475.11,1978.77Z"/><path fill="#f5b0a6" d="M3468.73,2619.57c-1.17-1.63-2.46-3.23-3.72-4.82-.28-.36-.58-.7-.85-1.06a121.31,121.31,0,0,1-8.75-12.72c-1-1.62-1.91-3.28-2.92-4.89a30.18,30.18,0,0,0-7.61-8.86,3.74,3.74,0,0,0-.36-.25,23.81,23.81,0,0,0-4.48-2.53l-1.14-.49a37.26,37.26,0,0,0-5-1.55c-.5-.12-1-.22-1.55-.33l-.4-.08c-.47-.09-1-.18-1.45-.25a55,55,0,0,0-7-.63,38.59,38.59,0,0,0-25.37,7.93h0a56.52,56.52,0,0,0-10.75,11c-.9,1.17-1.78,2.39-2.63,3.61s-1.69,2.48-2.5,3.75c-.92,1.44-1.82,2.88-2.71,4.3s-1.65,2.71-2.45,4l-.31.53q-4.72,7.76-9.41,15.52-7.76,12.78-15.49,25.58c-3.3,5.4-6.62,10.89-11.41,15.53-.66.64-1.35,1.28-2.07,1.87h0a32.69,32.69,0,0,1-16.5,7.62c-3.68.51-6.23,1.85-6.22,4.19h53.74a68.43,68.43,0,0,0,6.87-5.71c8.83-8.19,17.8-16.77,29.46-22.45,9.17-4.46,18.35-5.7,28.21-7.05,3-.41,6.14-.85,9.33-1.39l.17,0a56.7,56.7,0,0,0,16.55-5.32c7.35-3.84,14.37-9.36,12.66-17A22.86,22.86,0,0,0,3468.73,2619.57Z"/><path fill="#192d5b" d="M3457.85,2603.68l-.65.2a15.28,15.28,0,0,0-5.23,3.41c-2.92,2.64-6.45,5.73-8.32,9s-2.92,5.71-5.71,8.56a94.84,94.84,0,0,1-8.8,7.74c-4.17,3.27-8.62,6.38-13.08,9.41-7.82,6.13-15.76,12.08-24.21,17.57a89.26,89.26,0,0,1-19.51,10.06,61.26,61.26,0,0,1-9.57,2.57c-.81.14-1.62.28-2.47.4-7.2,1-14.42,1.07-21.51,1.82l-1.28.13a58.94,58.94,0,0,0-11.86,2.51,43.93,43.93,0,0,0-9.75,4.24,12.71,12.71,0,0,0-4.87,5.44h69a21.58,21.58,0,0,0,2.6-2.51c10.15-11.79,21.27-21.51,38.12-26.72,2.75-.84,5.94-2.06,9.18-2.77a11.06,11.06,0,0,1,1.17-.27,16.62,16.62,0,0,1,7.85.1l.65.22c4.65,1.75,2.8,5.54,2.78,8.8,0,3.54,0,7,0,10.56,0,4.09,0,8.16,0,12.26l9.85-.21c2.5-.06,6,1.54,6.21-1.6.3-5.58.61-11.17.91-16.74.28-4.88.63-10.1,3.51-14.51,2.69-4.1,6.14-7.94,8.54-12.19,3.27-5.69,3.22-12.34,1.39-18.38C3471.33,2618.33,3465.86,2601.64,3457.85,2603.68Z"/><path fill="#153c93" d="M3520.94,1745.46c.68-42,1.34-84.29-7.1-125.65-2.39-11.73-7.09-25-19.88-29.51-4.79-1.68-10.1-1.82-15.28-1.92q-77.62-1.55-155.26.8c-10.16.31-22.07,1.54-27.12,9.14-2.55,3.85-2.67,8.5-2.72,12.92q-.59,52.5-1.16,105c-.37,33.22-4.13,67.82-.69,100.76,3,28.34,1.88,57.53,3.53,86,13.17,226.41,28.3,456.29,56,681.74l134.48-3.18c0-2.85,0-5.29.08-6.92.82-11.28,1.48-22.58,2-33.88,2.29-46,2.84-92.15,5.15-138.19q3.27-65.37,6.59-130.74c4.45-86.35,9.2-172.69,14.93-259,4.19-63,8.37-126.12,7-189.24C3521.06,1797.42,3520.51,1771.71,3520.94,1745.46Z"/><path fill="#fff" d="M3491.22,1339.46c-1.08-20.56-2.19-41.3-8.46-61.22-7.47-23.7-24.26-51.24-52.1-62.37a68.44,68.44,0,0,0-8.89-2.89c-15.94-4-33.19-3.42-49.32,0-9.81,2.09-19.27,5.2-28.67,8.28-11.41,3.76-22.84,7.51-33.79,12.09-11.25,4.71-29.68,10.87-33.82,21.6a373.88,373.88,0,0,0-13.64,43c-22.1,87.26-13.05,179.33,6.49,267.57,3.54,16,10.28,34.71,29,39.5,8.23,2.1,17.05.89,25.6.06,49.2-4.81,99,3.42,148.46.86,7.22-.38,14.83-1.1,20.67-4.67,10.71-6.55,11.16-19.48,10.59-30.51Q3497.26,1455.09,3491.22,1339.46Z"/><path fill="#f5b0a6" d="M3372.45,1213c-9.81,2.09-19.27,5.2-28.67,8.28-11.41,3.76-22.84,7.51-33.79,12.09-11.25,4.71-29.68,10.87-33.82,21.6a373.88,373.88,0,0,0-13.64,43,139.56,139.56,0,0,0,31.52,54.52c3.41,3.68,7.1,7.29,11.81,9.75s10.68,3.69,16,2.27c3.91-1,7.09-3.36,10-5.72,18-14.44,31.49-32.31,44.48-50.12,8.73-12,17.33-24.06,25.28-36.42,11.4-17.7,22.49-36.68,29-56.32a68.44,68.44,0,0,0-8.89-2.89C3405.83,1209,3388.58,1209.56,3372.45,1213Z"/><path fill="#f3ce90" d="M3650.9,1526c-10.41-34-10.24-67-14.42-101.87-4.37-36.4-8.65-71.07-25.1-105.86a180.45,180.45,0,0,0-25.86-39.92c-5.31-6.22-11.85-11.62-17.26-17.72-4.56-5.13-5.45-11.39-11.45-16.1-5.11-4-11.43-6.76-17.67-9.45-14.89-6.43-29.84-12.89-45.63-17.63-17.27-5.2-39.64-11.88-58-10.18-20.14,1.87-40.25.64-60.43,3.62-13.6,2-26.57,5.82-39.54,9.74-9.67,2.92-19.36,5.92-29.3,8.27-23.68,5.61-35.26,19.15-52.33,33.19-14,11.54-27.7,23.77-37.72,38-9.72,13.81-20.35,25.44-23.8,41.81-2.44,11.58-1.78,23.45-.67,35.17.81,8.49,1.84,17,3,25.45,1,7.22,2.06,14.42,3.17,21.63A1225.69,1225.69,0,0,0,3231,1574c14.77,52,22.88,103.6,30.39,156.62q10.23,72.18,20.47,144.36c2.06,14.58,32.49,6.14,45.89,4,2.3-.36,4.74-.83,6.31-2.27,1.95-1.77,2-4.45,1.88-6.85a2603.62,2603.62,0,0,0-28.51-295.07c-6.34-41.11-14.86-82-22.48-122.89-6.61-35.51-12.57-71.14-15.82-107-2.84-31.44-5.66-66,10.28-95.54,3-5.6,12.6-8.09,18.87-11,8.51-3.92,17.05-7.86,26.17-10.7,6.09-1.9,12.39-3.29,18.68-4.68l40.66-9c3.77-.84,8.71-1.32,10.74,1.45a6.47,6.47,0,0,1,.78,4.4c-1.07,17.69-3.66,35.19-4.05,53.08-.85,38.55,8,78.32,12.51,116.68q7.59,63.9,15.17,127.81c7.11,59.89,14.22,119.81,25,179.33,5.47,30.1,11.87,60.09,19.69,89.84,4.76,18.13,6,37.55,16.23,54.38,13.34,22.06,30.43,23.63,59.24,22.3a778.78,778.78,0,0,0,176.06-28.54c-5-66-19.92-131.34-34.44-196.26Q3668,1581.88,3650.9,1526Z"/><path fill="#f3ce90" d="M3665.49,1516.53c-8-38.24-16.27-76.44-26.35-114.34-11.51-43.31-23.09-87.41-49.31-126.31-12.14-18-56.79-59.47-81.2-31a109.27,109.27,0,0,0-7.47,9.76c-13.5,19.87-19.7,43.16-17.29,65.9,1.36,12.81,5.33,25.31,9.28,37.75q31.35,98.58,62.68,197.16c6.45,20.28,18.49,23.27,41.27,25.75,23,2.51,70.55,8.48,75.43-19,1.09-6.16-.18-12.41-1.44-18.55Q3668.3,1530.09,3665.49,1516.53Z"/><polygon fill="#fff" points="3007.34 1667.4 3251.6 1864.57 3490.43 1767.92 3246.17 1570.75 3007.34 1667.4"/><polygon fill="#b4ccef" points="2998.91 1670.81 2998.98 1670.88 3195.04 1829.13 3243.17 1867.98 3482 1771.33 3237.73 1574.16 2998.91 1670.81"/><path fill="#5681bf" d="M3243.45,1614.88c-5.63-14.82-11.41-24.83-8.49-39.6L2999,1670.76a.31.31,0,0,0-.05.12c-2,5.1.54,12.07,2.3,17.32,4.54,13.6,11.81,26.46,19.17,39.18q18,31.14,36.92,61.95c.27.43.53.84.78,1.27q16.11,26.24,32.77,52.21c3.86,6,8.07,15.88,14.57,22.55l220.44-89.2A862.85,862.85,0,0,1,3267.7,1672Q3254.46,1643.77,3243.45,1614.88Z"/><path fill="#f5b0a6" d="M3431.93,1670.61c-1-2.71-.94-5.64-3.27-7.66a10.16,10.16,0,0,0-4.31-1.91c-5.81-1.53-11.66-3-17.53-4.25a153.36,153.36,0,0,0-24.92-3.43c-7-.31-14.45-.35-21.28,1.36-9,2.25,1.86,10.32,4.66,14.19,3.21,4.41,3.34,7.22-.6,10.94-2.9,2.74-6.49,4.3-9.65,6.6a118,118,0,0,1-35,17.58c-2.13.66-4.35,1.24-6.08,2.74s-2.85,4.26-1.9,6.47,3.17,2.9,5.23,3.28c10.14,1.86,20.69-2.08,29.79-6.83a2.49,2.49,0,0,1,3.29,2.12c-.09,4.84-8.36,8.58-11.52,10.59a38,38,0,0,1-19.35,5.66,19.09,19.09,0,0,0-5.39.51c-2.42.78-4.81,3.12-3.09,5.88a14,14,0,0,0,9.48,6.2,24.57,24.57,0,0,0,11.17-1,48.55,48.55,0,0,0,16.07-8.26c2.15-1.68,7.21-7.39,10.13-5.31,3.25,2.31-2.24,5-3.8,6.12a74.31,74.31,0,0,1-11.3,7.11,67.85,67.85,0,0,1-15.65,5.08c-2.77.6-11.3,3.83-6.76,8.48a7.06,7.06,0,0,0,3.47,1.71,34.81,34.81,0,0,0,23.81-2.46c3-1.45,6.2-2.63,8.93-4.63,3.82-2.82,7-5.35,11.62-6.27a.45.45,0,0,1,.36,0,.53.53,0,0,1,.1.47c-.21,2.17-1.54,4-2.87,5.62a39.86,39.86,0,0,1-15.45,11.59c-2.27,1-6.39,1.52-5.31,5.42a5.11,5.11,0,0,0,3.73,3.43,13.1,13.1,0,0,0,5,0,49,49,0,0,0,9.13-1.87c9.24-3.15,18.74-11.27,26.53-17.51a289.38,289.38,0,0,0,27.8-25.76c7.89-8.25,16.65-14.3,19.5-27a32.21,32.21,0,0,0-1.11-17.3C3434.72,1675.52,3432.94,1673.27,3431.93,1670.61Z"/><path fill="#f5b0a6" d="M3633.27,1528.61c-20.57-15.76-38.07-8.66-58.81,1.72-38,19-70.5,41.73-103.65,69.25-4.9,4.06-13.73,13.42-18.62,17.49-21.16,17.56-41.19,29.34-62.35,46.91-1.83,1.52,0,9.47-1.26,11.61-4.66,8,.66,28.74,9.93,30.32,4.4.74,12.69,2,16.87.29,50.21-20.2,95.22-47.13,144.07-71.12,22.08-10.85,44.29-21.77,64.31-36.79C3643.23,1583.7,3657.06,1546.82,3633.27,1528.61Z"/><path fill="#f3ce90" d="M3605.46,1518.77a119.72,119.72,0,0,0-13.47,2.28c-8.53,2-20.82.83-27.33,6.62-3.7,3.29-4.91,8.24-9.08,11.11-8.75,6-19.13,2-25.67,11.07-6.32,8.73-12.07,14.86-5.93,25.64,3.62,6.37,9.71,11.5,14.94,17a85.55,85.55,0,0,1,17.8,28.06c1.81,4.76,4.47,10.63,10.46,11,1.76.12,3.51-.3,5.27-.29,2.7,0,5.22,1.06,7.87,1.51,5.79,1,11.81-.88,16.69-3.66s8.93-6.42,13.47-9.57a103.75,103.75,0,0,1,20.87-10.73c7.41-3,15.32-5.62,20.84-10.68,3.12-2.86,5.29-6.33,7.42-9.75,10.17-16.31,20.66-38.52,4.36-54.59C3649.58,1519.71,3626.62,1516.43,3605.46,1518.77Z"/><path fill="#ef7c59" d="M3597.93,1517.32c-7.7-1.69-15.49.39-22,3.92s-11.54,8.21-17.81,11.79a51.22,51.22,0,0,1-5.58,2.69.43.43,0,0,0,.1-.46q-7.26-19.53-14.2-39.12-12.3-34.76-23.56-69.77-11.32-35.2-21.57-70.65c-.29-1-3.37-.86-3.12,0q5.72,19.79,11.78,39.53,10.83,35.26,22.71,70.29,11.94,35.18,24.95,70.09c.17.45,1.07.62,1.85.52-4.43,1.8-9,3.31-13.26,5.46a32.11,32.11,0,0,0-13,11.77,26,26,0,0,0-3,7.39,22.85,22.85,0,0,0-.62,4.41c-.06,1.16.19,3-1.14,3.7-1.5.85,1.3,1.53,2.21,1,2.63-1.49,1.91-4.37,2.22-6.68a24.48,24.48,0,0,1,3-8.79,30.28,30.28,0,0,1,12.89-11.94c6-3,12.86-4.76,18.77-8s10.82-7.48,16.47-11,13.11-6.57,20.38-5c.55.12,1.74.21,2.14-.26S3598.55,1517.46,3597.93,1517.32Z"/><path fill="#ef7c59" d="M3663.71,1582c-3.48,6.42-7.1,13-12.49,18.47a36.48,36.48,0,0,1-7.94,6.22,48.53,48.53,0,0,1-11.62,4.37,96.77,96.77,0,0,0-11.92,3.65,87.15,87.15,0,0,0-10.6,5.53l-.29.17a76.51,76.51,0,0,0-6.65-16.55c-12.12-22.29-33.7-39.53-54.65-56.16-.79-.62-3.78-.13-2.7.72,6.05,4.81,12.1,9.61,18,14.58,19.54,16.53,37.63,35.74,43.33,59-6.08,3.39-12.34,6.27-19.78,7.27a74.22,74.22,0,0,1-12.65.16c-3.36-.12-6.73.18-9.42,2-1.13.76,1.87,1.28,2.7.72,3.6-2.44,9.41-1,13.66-1a54.43,54.43,0,0,0,13.55-1.9,61.7,61.7,0,0,0,14-6.17c.65,0,1.18-.28,1.14-.64,2.1-1.2,4.2-2.42,6.34-3.6a56.59,56.59,0,0,1,11.61-4.87c4-1.16,8.15-2.07,12.07-3.45,14.27-5.05,21.3-17,27.33-28.06C3667.25,1581.38,3664.17,1581.13,3663.71,1582Z"/><path fill="#ef7c59" d="M3564.42,1251a53.53,53.53,0,0,0-26,2.29c-15,5.12-25.57,15.77-32,27.83-7.4,13.85-9.41,29.11-11.35,44-.12.94,3,1,3.13,0a221.77,221.77,0,0,1,4.14-24.59c3.16-12.83,8.92-25.74,19.79-35.48,10.44-9.36,26-15.32,41.46-12.7C3565.12,1252.64,3566.45,1251.34,3564.42,1251Z"/><path fill="#ef7c59" d="M3234.21,1518.2q-8.85-41.17-13.74-82.85-2.47-21-3.93-42c-.93-13.53-1.25-27.2-5.48-40.37-.28-.87-3.37-.7-3,.38,4.81,14.94,4.65,30.67,5.81,46q3.18,41.75,10.33,83.18t18.21,82.25c.27,1,3.36.87,3.13,0Q3239.23,1541.61,3234.21,1518.2Z"/><path fill="#ef7c59" d="M3278.67,1513.71c-6.87-19.76-13.57-39.57-19.81-59.48s-11.78-39.74-15.54-60c-3.72-20-5.62-40.24-4.53-60.46,1.11-20.44,5.1-40.67,9.74-60.73.21-.9-2.89-1-3.12,0-5.21,22.53-9.59,45.29-10,68.27-.75,40.72,10.05,80.82,22.58,120,12.84,40.12,26.94,80,42,119.55.34.87,3.42.67,3-.38Q3290.34,1547.22,3278.67,1513.71Z"/><path fill="#ef7c59" d="M3432.91,1217.45c-.1-1-3.22-1-3.13,0q3.75,39.75,7.49,79.5c4.41,46.81,8.8,93.66,10.57,140.6s.91,94.27-5.19,141.11c-.12.95,3,1,3.13,0a738.88,738.88,0,0,0,5.79-79c1-46.93-1.69-93.85-5.57-140.66C3442.09,1311.78,3437.35,1264.62,3432.91,1217.45Z"/><path fill="#ef7c59" d="M3646.54,1651.86c-.65-4.23-5.31-7.22-10.4-6.69l-108.67,11.51a9.81,9.81,0,0,0-6.18,2.94,6.77,6.77,0,0,0-1.87,5.7l2.79,18.16c.6,3.89,4.61,6.75,9.22,6.75a11.81,11.81,0,0,0,1.18-.06l108.67-11.52a9.78,9.78,0,0,0,6.17-2.93,6.75,6.75,0,0,0,1.87-5.71Zm-1.56,22.27a6.48,6.48,0,0,1-4.1,1.94l-108.66,11.52c-3.38.35-6.48-1.63-6.91-4.44l-2.79-18.16a4.5,4.5,0,0,1,1.24-3.78,6.47,6.47,0,0,1,4.11-2l108.66-11.51c3.38-.35,6.48,1.63,6.9,4.43l2.79,18.16A4.49,4.49,0,0,1,3645,1674.13Z"/><path fill="#f3ce90" d="M3466.14,2026.66l-18.36-147.43c-.12-1-3.24-1-3.12-.06q5.18,41.53,10.34,83.07l18.27,146.69,18.36,147.43c.13,1,3.24,1,3.13.06l-10.35-83.07Z"/><path fill="#fff" d="M3237.06,1193.13a4.48,4.48,0,0,0-3.26,1.09,13.17,13.17,0,0,0-2.08,2.48,31.6,31.6,0,0,1-7,6.85c-1.27.91-2.68,1.82-3.31,3.12a4.09,4.09,0,0,0-.33,1c-.68,4.12,7.55,5.62,11.12,4.3,7-2.57,9.46-8.76,8.44-14.67C3240.33,1195.5,3239.27,1193.37,3237.06,1193.13Z"/><path fill="#f3ce90" d="M3474.94,1240.73c-10.76,7.65-25.57,4.55-37.53.92-1.18-.36-3.49.65-1.57,1.23,13.33,4,29.89,7,41.8-1.42C3478.75,1240.66,3475.75,1240.16,3474.94,1240.73Z"/><path d="M3435.85,1188.47a.45.45,0,0,1-.38,0h.38c.68-.21,2.31-1.69,4.77-9.93,3.33-11.18-18.32-10.25-18.32-10.25l9.73-20.12c20.1-34-24.88-47.26-24.88-47.26,7.88-65.52-60.45-76.23-60.45-76.23S3269,1202,3248.42,1228.82s1,30,1,30c-27.14,19.7-11.53,33.11-11.53,33.11l247.37-61.43s6.81-7.69-2.45-24.51C3474.07,1190.16,3439.73,1188.6,3435.85,1188.47Z"/><path d="M3435.85,1188.47h-.38A.45.45,0,0,0,3435.85,1188.47Z"/><path fill="#f5b0a6" d="M3346.68,1173.32,3301.46,1158c-1.63,18.46-37.35,73.43-8,79.25,0,0,1.74,18.07-3.39,25.92,0,0-.45,28.43,50.9,12s38.7-39.94,38.7-39.94S3359.93,1224.29,3346.68,1173.32Z"/><path d="M3234.48,1094.5s-11.3-13-18.82-6.73c-20.7,17.21,8,72.38,10.39,74.36a146.78,146.78,0,0,0,40.46,24.41l14.27,5.36c4-6.2,5.68-15.31,3.77-26.73C3278.72,1130.41,3234.48,1094.5,3234.48,1094.5Z"/><path fill="#f5b0a6" d="M3308.6,1043.33l-73.92,11.51c-28.32,4.45-47.64,30.62-43.17,58.52l5.42,33.5,9.28,57.71.79,5a16.19,16.19,0,0,0,9,12l36,17.44a16.73,16.73,0,0,0,15.85-.75l56.37-34.25a16.13,16.13,0,0,0,7.6-16.29Z"/><path fill="#ef8b8b" d="M3199,1160.26l6.4,38.58c10.6-5.31,16.68-15.46,14-24.77C3217,1166,3208.8,1160.85,3199,1160.26Z" opacity=".6"/><path fill="#d36c6c" d="M3245.12,1175.59l-21.5-3.58,5-53a2,2,0,0,0-3.9-.36l-5.16,54.83a1.94,1.94,0,0,0,1.62,2.09l23.29,3.88.33,0a2,2,0,0,0,1.93-1.61A1.92,1.92,0,0,0,3245.12,1175.59Z"/><path fill="#f5b0a6" d="M3333.14,1119.13a29.75,29.75,0,0,0-25.06,34,30.09,30.09,0,0,0,34.5,24.68,29.76,29.76,0,0,0,25.06-34A30.1,30.1,0,0,0,3333.14,1119.13Z"/><path fill="#ef8b8b" d="M3283.15,1143.49a21.76,21.76,0,0,0-16,26.46,22.14,22.14,0,0,0,26.86,15.76,21.76,21.76,0,0,0,16-26.46A22.14,22.14,0,0,0,3283.15,1143.49Z" opacity=".6"/><path d="M3261.72,1129c-3.26.51-5.19,5.4-4.3,10.91s4.25,9.58,7.52,9.07,5.18-5.4,4.29-10.91S3265,1128.51,3261.72,1129Z"/><path d="M3206.8,1137.6c-3.26.51-5.18,5.39-4.29,10.91s4.25,9.57,7.51,9.06,5.19-5.39,4.3-10.91S3210.06,1137.09,3206.8,1137.6Z"/><path fill="#ef8b8b" d="M3342.49,1130.56l-1.52-.91a22.12,22.12,0,0,0,1.12,31.9l1.44-1c-2.39-5-4.18-9.82-4.27-14.83S3340.6,1135.75,3342.49,1130.56Z"/><path d="M3266.41,1188.32a20.77,20.77,0,0,0-6.9,1.48,56.88,56.88,0,0,1-21.36,3.09,25.42,25.42,0,0,0-4,0,6.8,6.8,0,0,0-2,.69c-2.66,1.57-2.7,4.94-1.76,7.48,1.62,4.43,5.42,8.1,10.15,10.31a23.61,23.61,0,0,0,9.71,2.11,25.41,25.41,0,0,0,19.78-9.61,17.64,17.64,0,0,0,1.69-2.73c1.7-3.53,2.16-7.75-.25-10.8A6,6,0,0,0,3266.41,1188.32Z"/><path fill="#fff" d="M3259.51,1189.8a56.88,56.88,0,0,1-21.36,3.09,25.42,25.42,0,0,0-4,0,6,6,0,0,0,1.46,4.45,7.6,7.6,0,0,0,4.6,1.59,47.76,47.76,0,0,0,20.5-2.61,8.88,8.88,0,0,0,4.75-3,7.33,7.33,0,0,0,.95-5A20.77,20.77,0,0,0,3259.51,1189.8Z"/><path fill="#d36c6c" d="M3251.25,1203.73c-4.32,1.36-8.58,3.94-10.73,7.68a23.61,23.61,0,0,0,9.71,2.11,25.41,25.41,0,0,0,19.78-9.61A28.45,28.45,0,0,0,3251.25,1203.73Z"/><path fill="#ef8b8b" d="M3287.8,1265c32.51-19.2,43.89-65.52,43.89-65.52l-55,33.39C3279.55,1239.36,3287.05,1255.23,3287.8,1265Z"/><path fill="#f5b0a6" d="M3268.31,1040.43c-85.12,13.82-75.83,57.52-75.83,57.52l110.08-15.11,1.85,21.07,8.16,27.39s16.7-17.4,31.41-11.89C3344,1119.41,3353.44,1026.61,3268.31,1040.43Z"/><path d="M3193.54,1123.12c3.4,5.33,23.64-1.9,21.55-7.37C3211.61,1106.68,3188.16,1114.68,3193.54,1123.12Z"/><path d="M3254.53,1105.16c-.64,5.81,20.79,7.82,22.73,1.83C3280.33,1097.49,3255.58,1095.52,3254.53,1105.16Z"/><path d="M3312.17,996.94s-62.38-24.49-107.21,40.94l-3.51,4.46s-63.76,16.39-56.13,51.37,50.75,47.33,50.75,47.33-6.52-47.44-1.92-61.36c0,0,31.72,63.12,113.31,52.37,0,0,10.23,22,22.71,16.16,0,0,4-7.94,11.13-22.34s30.86-5.22,30.86-5.22,15.38,2.14-2.14-37.92-23.32-58-23.32-58,89.71-29.63,50.8-67.87S3315,957.57,3312.17,996.94Z"/><path d="M3205,1037.88l-3.51,4.46s-63.76,16.39-56.13,51.37,50.75,47.33,50.75,47.33-45.26-36.75-27.47-60,38-31.51,38-31.51,48.47-53.65,104.83-48.47c0,0-.5-2-1.24-4.85C3299.14,992.76,3245.05,979.37,3205,1037.88Z"/><path d="M3318.36,1122.84c-6.42-9.84-18.45-11.64-18.45-11.64-28.64,17.28-105.76-31.52-105.76-31.52s31.72,63.12,113.31,52.37c0,0,10.23,22,22.71,16.16,0,0,4-7.94,11.13-22.34a13.34,13.34,0,0,1,3.57-4.51c-.54-1.23-.89-1.95-.89-1.95S3324.78,1132.69,3318.36,1122.84Z"/><path d="M3254.3,1080.79c-27.53-19.76-42-42.3-42.1-42.52l-5,3.07c.6,1,15.06,23.58,43.45,44,21.23,15.27,53.74,31.46,96.17,31.46a176,176,0,0,0,31.76-3l-1.08-5.7C3321.48,1118.41,3279.59,1098.93,3254.3,1080.79Z"/><path d="M3275.12,1059.34c-25-22.84-36.56-46.91-36.68-47.15l-5.34,2.46c.48,1,12.11,25.18,37.83,48.79,22.18,20.36,59.11,43.67,111.88,43.67,3.81,0,7.72-.12,11.7-.37l-.38-5.8C3337.28,1104.57,3298,1080.32,3275.12,1059.34Z"/><path fill="#f5b0a6" d="M1511.67,1415.7c-.92-11.15,7.08-18.68,4.14-30.55-15.37-62.08-53-92-103.19-79.9-50.09,12-86.19,44.28-70.83,106.4s77.51,104,129,106.93c36.48,2.08,40-26.57,43.94-59.5,7-2.76,14.89-11.21,13.47-16.27A291.59,291.59,0,0,1,1511.67,1415.7Z"/><path fill="#0d0d0d" d="M1364.31,1303.23c-62.42,32.2-62.39,69.52-54.22,109.4s40.55,92.2,40.55,92.2,23.61,3.47,51.06-7.85c21.45-8.89,49.26-32.44,43.24-36.79-8.42-6-16.49-37.91-3.32-43.11,6.4-2.51,20.68,7.86,20.68,7.86l27.29-39.34,14.08-35.69C1526,1316.78,1431.43,1268.59,1364.31,1303.23Z"/><path fill="#1a1a1a" d="M1478.36,1385.56c-19.2,40.18-13.59,49-4.59,58.49-7-10.8-4.65-40.29,19.2-62.67,26.81-25.17,22.41-40.62,13.43-50.06C1506.4,1331.32,1497.56,1345.4,1478.36,1385.56Z"/><path fill="#0d0d0d" d="M1300.18,1448.71c-21.55,51.57-8.42,263.26-7.8,247.49s16-70.13,77.14-118.68,62.57-88.73,73.73-111.7C1443.25,1465.82,1321.72,1397.17,1300.18,1448.71Z"/><path fill="#1a1a1a" d="M1284.53,1656.51a42.31,42.31,0,0,1,1.68-5.5C1284.35,1655.23,1284.53,1656.51,1284.53,1656.51Z"/><path fill="#1a1a1a" d="M1475.45,1344.91c-9.15,12-41,17.53-67.64,73.73s7.4,81.42-57.31,145.1c-45.42,44.7-60,75.38-64.29,87.27,2.28-5.17,7.61-14.74,20.1-31.82,22.69-31,108.43-84.78,110.75-121.53s16.48-96.54,50.61-123.81,24.52-25.94,26.67-48.71A124.15,124.15,0,0,0,1475.45,1344.91Z"/><path fill="#0d0d0d" d="M1247.24,1558.59c3.9,93.4,0,168.89,0,168.89s28.58-1.28,50.66-64,16.88-231.58,16.88-231.58S1243.34,1465.19,1247.24,1558.59Z"/><path fill="#f3ce90" d="M1314.78,1431.92s1.3,17.27,18.84,33.91,14.94-9.6,16.24-37.11S1314.78,1431.92,1314.78,1431.92Z"/><path fill="#f3ce90" d="M1300.5,1411.45c-13,16.63-5.2,37.1-5.2,37.1l19.48-16.63S1313.49,1394.82,1300.5,1411.45Z"/><path fill="#d36c6c" d="M1511,1410a1.63,1.63,0,0,0-2.19-.67,1.59,1.59,0,0,0-.69,2.15l19.51,36.79L1514,1455a1.6,1.6,0,0,0,.73,3,1.69,1.69,0,0,0,.72-.17l15.14-7.5a1.65,1.65,0,0,0,.82-.94,1.6,1.6,0,0,0-.11-1.23Z"/><path d="M1485.27,1391.31c1,5.86,22.55,1.9,22.73-4.49C1508.3,1376.69,1483.56,1381.6,1485.27,1391.31Z"/><path d="M1500.48,1402.9c-2.61-.09-4.86,3.43-5,7.86s1.85,8.09,4.47,8.17,4.86-3.43,5-7.86S1503.1,1403,1500.48,1402.9Z"/><path fill="#d36c6c" d="M1509.75,1478.45c-.39.24-9.74,5.69-17-2.08a1.3,1.3,0,0,0-1.81-.07,1.24,1.24,0,0,0-.07,1.78,14.69,14.69,0,0,0,11.06,4.93,19.7,19.7,0,0,0,9.15-2.41,1.25,1.25,0,0,0,.43-1.73A1.3,1.3,0,0,0,1509.75,1478.45Z"/><path fill="#f5b0a6" d="M1421.3,1519.78l37.67,34.54,6.93-35.4s-33.78-4.69-39.4-11.09Z"/><path fill="#f5b0a6" d="M1448.75,1413.88a27.79,27.79,0,1,0,27.92,28.07A28,28,0,0,0,1448.75,1413.88Z"/><path fill="#ef8b8b" d="M1443.25,1428.16a1.74,1.74,0,0,0-2.42.09,1.66,1.66,0,0,0,.1,2.38l18.93,17.19a1.71,1.71,0,0,0,1.16.45,1.74,1.74,0,0,0,1.26-.55,1.67,1.67,0,0,0-.1-2.38Z"/><path fill="#ef8b8b" d="M1480.84,1424.56a22,22,0,1,0,22.07,22.19A22.14,22.14,0,0,0,1480.84,1424.56Z" opacity=".6"/><path d="M2624.22,1427.47c-.92,6.59-2.82,19.81,4.62,26.56s21.46,3.2,21.46,3.2l7.62-29.29C2651.29,1422.86,2625.17,1420.79,2624.22,1427.47Zm32.38,2.17-6.77,25.9s-12.24,3.12-18.85-2.93c-6.71-5.85-5-17.53-4.15-23.47S2650.75,1425.09,2656.6,1429.64Z"/><path fill="#f5b0a6" d="M2736.1,1356.52c-55.37-20.27-81.08,6.93-95.33,59.3-3.8,14.21,1.07,14.3-.86,28.72-.57,4.78-4.55,9.75-5,14.51-3.53,40.72-.67,78.29,16.5,87.61,24.79,13.48,111.27-4.13,138.17-51.57C2816.34,1447.67,2786.71,1375.14,2736.1,1356.52Z"/><path d="M2842,1370.84c-4.83-3.42-7.82-4.08-10.13-6-1.49-1.3,1.64-6.33-3.26-13.74-51.53-77.63-169.12,4.6-181.37-21.67,0,0-10.33,54.26,13.84,72.65,15.36,11.81,3.28,58,3.28,58l5.62-2.08s.88-1.06,8.53-12c10-14.52,22.42,8.79.82,39.75-5.66,8,14.33,75,14.33,75s130.79.89,124.59-14.44c-6.58-16.26,7.89-34.21,28.53-71C2863,1445.92,2872.1,1392.08,2842,1370.84Z"/><path fill="#0a0a0a" d="M2664.59,1329.49c-.82-.51-1.64-1.06-2.45-1.65A11.31,11.31,0,0,0,2664.59,1329.49Z"/><path fill="#0a0a0a" d="M2724.86,1319.88c-17.54,3.26-47.57,16-60.27,9.61a43.08,43.08,0,0,0,18.55,6.08s-24.61,1.82-31.29-8c2.22,9,7.49,12.83,11,14.45,2.06.77,3.42,1.12,3.42,1.12a13.52,13.52,0,0,1-3.42-1.12c-5.91-2.22-17.63-8-20-19.18,1.33,25.76.55,24.93,15,25.24,20.94.43,60.2-25.88,95.8-30.17C2762.87,1316.7,2746.5,1315.86,2724.86,1319.88Z"/><path fill="#0a0a0a" d="M2662.85,1342a13.52,13.52,0,0,0,3.42,1.12S2664.91,1342.75,2662.85,1342Z"/><path fill="#0a0a0a" d="M2634.91,1337c1.16,26.74,29.89,24.72,45.66,20,0,0,34.75-22.21,12.7-8.91S2640.12,1345.84,2634.91,1337Z"/><path d="M2626,1443.26l52.57,2.66,6.45-5.26s-52.87-5.68-58.79-9.58C2622.21,1428.6,2626,1443.26,2626,1443.26Z"/><path fill="#b74c34" d="M1434.33,1925.6l10.35-48.43s-80.38-95-91.17-152.73C1353.51,1724.44,1381.11,1914.53,1434.33,1925.6Z" opacity=".36"/><path fill="#ef8b8b" d="M1701,2150.12c51.09,64.83-61.48,163.78-61.48,163.78l6.92,44.35,102.19-119.42c.87-90.41-20.78-120.27-20.78-120.27C1727.86,2128.8,1701,2150.12,1701,2150.12Z"/><rect width="78.31" height="13.91" x="1888.77" y="1401.72" fill="#ef7c59"/><path fill="#ef7c59" d="M2042,1152.6c-26.13,30.15-48.69,68-67,112.38-31.19,75.49-39.56,145-39.64,145.69l6.22.7c.08-.68,8.37-69.47,39.28-144.2,28.39-68.65,82.23-156.54,177.53-185.39l-1.84-5.89C2113.34,1089,2074.81,1114.78,2042,1152.6Z"/><path fill="#ef7c59" d="M2158.3,1069.61c-9.81,3.82-15.94,11.45-13.7,17.05s12,7,21.83,3.24,15.94-11.45,13.7-17.05S2168.11,1065.8,2158.3,1069.61Z"/></g></svg>