<svg xmlns="http://www.w3.org/2000/svg" data-name="1" viewBox="0 0 4680 3120"><rect width="4680" height="3120" fill="#fff" data-name="1" opacity="0"/><path fill="#f5f5f7" d="M3781.55,1492.49a623.5,623.5,0,0,0,11-117.11c0-321.05-243.2-581.31-543.2-581.31a510.18,510.18,0,0,0-175,30.85C2919.52,498.22,2437.7,352.35,1962.8,547.83s-529,842.78-529,842.78a512.63,512.63,0,0,0-74.13-5.41c-300,0-543.2,260.26-543.2,581.31s243.2,581.32,543.2,581.32a510.83,510.83,0,0,0,210.29-45.19c87.26,64,192.85,101.44,306.62,101.44a510.76,510.76,0,0,0,205.7-43.17c80.92,51.24,175.32,80.68,276.16,80.68a510.59,510.59,0,0,0,197.3-39.56,511.46,511.46,0,0,0,350.09-22.37c80.93,51.24,175.33,80.68,276.17,80.68,93.67,0,181.81-25.38,258.73-70.05a511.19,511.19,0,0,0,118,13.79c300,0,543.2-260.26,543.2-581.31C4101.88,1786.72,3970.41,1583.53,3781.55,1492.49Z"/><rect width="1280.1" height="872.23" x="2237.5" y="814.97" fill="#d1dbed" rx="6.96"/><path fill="#40947e" d="M289.24,2225a.39.39,0,0,1,.17.26c3.2,4.94,56.73,84.66,226.72,58.84,172.55-26.19,194.44,122.29,358.23,84,2.76-.74,5.64-1.42,8.5-2.18,4.79-1.26-55.88-221.21-123.52-293.54s-245.94-81.25-328.13,24.35S289.24,2225,289.24,2225Z"/><path fill="#2e6857" d="M1027,2593.26s-220.92-518.43-508.61-427.7c0,0,248.35-88.71,478.26,437Z"/><path fill="#2a7f67" d="M289.41,2225.29c3.2,4.94,56.73,84.66,226.72,58.84,172.55-26.19,194.44,122.29,358.23,84l1.5-2.15s-83.63,29.45-176.68-81.36-149.63-50.78-227.88-31.86C393.35,2271.7,314.8,2253,289.41,2225.29Z"/><path fill="#6fc183" d="M1070.62,2120.1s154.8-62.54,199.05-184.85,92.78-71.81,112.49-221,12.07-226.4,39.71-265.24c0,0-267.83,51.07-344.92,231.22S1070.62,2120.1,1070.62,2120.1Z"/><path fill="#40947e" d="M1069.52,2589s-47.79-771.51,247.43-990.9c0,0-323.45,207.57-283.09,997.13Z"/><path fill="#54a866" d="M1088.66,2111.84s-9.65-41.76,75.57-88.49,129.24-138.94,129.24-138.94S1254.34,2053.63,1088.66,2111.84Z"/><path fill="#54a866" d="M1416.67,1450s-46.06,66-56.08,205.86c-7.82,109.16-.89,134.92-50.9,201,0,0,73.53-36,83.1-162.35S1392.35,1514.27,1416.67,1450Z"/><path fill="#54a866" d="M856.57,2058s-137.36,13.32-194.06-114.68-95-133.85-168.51-140.78-187.84-103.87-217.87-165.25l255.8,73.47,153.91-16Z"/><path fill="#6fc183" d="M856.57,2058s118.1-207.53-15.53-347.28c-148.13-155-140-222.64-268.18-221.41S353,1636.4,276.13,1637.24c0,0,80.78,144.81,270,135.6S631.14,2013.13,856.57,2058Z"/><path fill="#40947e" d="M1003.17,2579.91S875,1743.38,544.5,1608.64c0,0,142.85,57.31,280.43,402.45,118.57,297.44,145.42,578.27,145.42,578.27Z"/><path fill="#40947e" d="M1174,2317.54s-18.08-199.21,107.74-262.64,243.91-115.63,363.67,9.66c0,0,45.2,58.63,71.89,60.83,0,0-70.17,98.83-266.49,52.61,0,0-45.6-33.27-79,20.06S1260.82,2385.4,1174,2317.54Z"/><path fill="#1b5644" d="M1450.83,2178s-45.6-33.27-79,20.06c-30.23,48.19-96.44,162.22-173,133.69,104.43,49.11,178.75-56.46,195.76-92.27,18.34-38.59,70.31-35.22,70.31-35.22,152.17,44.26,242.32-65.79,251.59-77.76C1708,2137.23,1634.82,2221.32,1450.83,2178Z"/><path fill="#2e6857" d="M1023.24,2588.1s188.15-529.75,519.39-489.95c0,0-255.68-46.09-496.65,499.6Z"/><path fill="#2e6857" d="M996.08,2199.17s-127-52.86-162.51-154-75.86-60-91-182.94-8.21-186.55-30.68-218.78c0,0,212.29,48.46,282.29,193.43C1105.65,2067.74,996.08,2199.17,996.08,2199.17Z"/><path fill="#6fc183" d="M993.41,2585.36s45.23-634.94-196.2-818.18c0,0,264.77,173.76,225.52,823.61Z"/><path fill="#1b5644" d="M978.11,2189.31s-61.66-56.11-100.63-137.81-34.81-85.89-73.15-114.09-70.72-208-70.72-208-7.15,158.79,45.23,229.31c0,0,33.48,32.5,44.1,59.48S850.23,2126.71,978.11,2189.31Z"/><path fill="#2c4da2" d="M3516.2,2610.56l-8.07.22C3511.77,2614,3514.11,2617.92,3516.2,2610.56Z"/><path fill="#2c4da2" d="M4104.38,2184l-11.68-79.56-9.28-63.36-458.32,8.72-54,1a19.53,19.53,0,0,1-4.93-.41L3547,2144.12l-4,19.79c-18,340.47-21.62,428.35-26.79,446.65l603-16.35C4125.54,2539.84,4126.75,2632.63,4104.38,2184Z"/><polygon points="3808.49 2280.19 3764.37 2231.88 3764.37 2047.12 3771.72 2047.12 3771.72 2228.67 3813.75 2274.69 3808.49 2280.19"/><path d="M3811.57,2418.09l-7.34-.33c4.83-125.27,13.89-364.08,13.55-371.28a3.75,3.75,0,0,0,3.71,3.56l-.13-7.87,2.7,1.19c1.24,1.35,1.24,1.35.69,19.1-.3,9.7-.78,23.91-1.43,42.25-1.09,30.88-2.66,73.87-4.69,127.78C3815.19,2324.28,3811.61,2417.16,3811.57,2418.09Z"/><path fill="#f5b0a6" d="M4079.83,2342.37l13.07-10.62s13.73,14.14,29,9.12,27.27,6.22,35.35,1,9-2.95,18.89-9.64,36.21-31.61,33.55-38.88c-5.35-14.64-16.53-9.18-16.53-9.18s20-48.5,17.32-69.49c-.38-2.66-.76-5.31-1.36-7.79,20.82-27.78,52.6-76.85,97.68-162.56,53.49-101.67,74.83-178.28,88.24-220.63,8.4-26.57-15-54.68-46.85-54.16a126.18,126.18,0,0,0-19,1.69c-59.66,9.82-94.32,60.29-114.55,98.73-21.59,41-75.87,221.57-100.42,304.61-13.69,13.27-58.4,56.57-64.86,66.92-7.51,12.35-22.72,25.12-22.11,32.16s17.47,35,17.88,46.24S4066.82,2353.13,4079.83,2342.37Z"/><path fill="#ef8b8b" d="M4082.17,2322.59l-20.77-42.83S4050.37,2296.7,4082.17,2322.59Z"/><path fill="#ef8b8b" d="M4119.84,2329.29l-21.76-51S4089.78,2306.12,4119.84,2329.29Z"/><path fill="#ef8b8b" d="M4147,2327.94l-22.17-46.2S4120.56,2307.83,4147,2327.94Z"/><path fill="#f5b0a6" d="M3212.71,1307l-82.19-49.17s-18.46,21.43,1.14,37.56a485.34,485.34,0,0,1,38.32,36s-18.48,34.44,11.15,60.12Z"/><path fill="#99b1da" d="M3170,1333.24h-.19c-2.05-.23-50.32-5.85-63.78-19.22a2,2,0,0,1-.1-2.73,1.73,1.73,0,0,1,2.56-.1c12.58,12.5,61.21,18.15,61.7,18.2a1.92,1.92,0,0,1,1.61,2.13A1.87,1.87,0,0,1,3170,1333.24Z"/><rect width="1280.1" height="872.23" x="2198.4" y="775.54" fill="#5681bf" rx="6.96"/><rect width="1252.48" height="840.85" x="2212.22" y="791.23" fill="#fff" rx="7.01"/><ellipse cx="3075.6" cy="1199.33" fill="#99b1da" rx="297" ry="317.85"/><path fill="#3d5891" d="M3075.6,881.49l3.45,312.92,293.55-1.24s2.3-142.9-108.21-240.23C3264.39,952.94,3188.41,881.49,3075.6,881.49Z"/><path fill="#5681bf" d="M2928.25,1474.06l150.8-279.65,109.36,298.13S3066.39,1560.3,2928.25,1474.06Z"/><path fill="#3d5891" d="M3079.05,1194.41,3265.54,1442s-49.5,43.12-77.13,50.51Z"/><rect width="41.44" height="48.05" x="2276.68" y="945.55" fill="#3d5891"/><rect width="409.05" height="18.89" x="2339.61" y="961.15" fill="#3d5891" rx="1.75"/><rect width="41.44" height="48.05" x="2277.45" y="1062.18" fill="#99b1da"/><rect width="409.05" height="18.89" x="2340.38" y="1077.78" fill="#99b1da" rx="1.75"/><rect width="41.44" height="48.05" x="2275.15" y="1173.87" fill="#3d5891"/><rect width="409.05" height="18.89" x="2338.08" y="1189.48" fill="#3d5891" rx="1.75"/><rect width="41.44" height="48.05" x="2275.91" y="1294.6" fill="#5681bf"/><rect width="409.05" height="18.89" x="2338.84" y="1310.21" fill="#5681bf" rx="1.75"/><rect width="41.44" height="48.05" x="2280.52" y="1411.64" fill="#99b1da"/><rect width="409.05" height="18.89" x="2343.45" y="1427.25" fill="#99b1da" rx="1.75"/><path fill="#ef7c59" d="M4114.5,1208.66h227.64c17.29,0,31.31,15,31.31,33.5v87.7c0,18.5-14,33.49-31.31,33.49H4149.08c-1.21,5.38-10.1,44.91-10.1,42.64,0-1.81-7.87-28.87-11.9-42.64H4114.5c-17.28,0-31.3-15-31.3-33.49v-87.7C4083.2,1223.66,4097.22,1208.66,4114.5,1208.66Z"/><path d="M3958.93,1033.68s96.85,52.78,52.89,155.09c0,0,60.71,44.81,14,89.62L4001.35,1306s32.8,9.71,22.33,26.14-12.56,13.45-12.56,13.45,56.53,20.91,62.11,53-8.37,41.08-8.37,41.08L3665,1411.33s-16.75-29.88,33.49-47.8c0,0-30.7-16.43,13.26-49.29S3958.93,1033.68,3958.93,1033.68Z"/><path fill="#f5b0a6" d="M3904.7,1392.66s-24.08-28-18.84-117.63l-60-48.35c-11.52,29.13-91.91,99.89-50.93,124.53,0,0-6.28,30.24-17.8,40.32,0,0-14.65,45.93,70.14,45.93S3904.7,1392.66,3904.7,1392.66Z"/><path fill="#6fc183" d="M3757.1,1391.54s-101.19,4.5-197.49,79c0,0-155.62,129-169.58,125.27s-34.89,13.07-94.56-162.81l-118.28,123.23s69.08,345,239.71,306.94c0,0,85.84-30.24,125.61-88.49l-1.36,283.3,209.4,22.75S3747.68,1409.46,3757.1,1391.54Z"/><path fill="#6fc183" d="M3903.65,1388.17l-.38,694.22,229.87-25.27s.8-388.89-1.29-427,5.23-149,5.23-149S4002.05,1397.14,3903.65,1388.17Z"/><path fill="#2e6857" d="M4137.08,1481.15S4411.34,1653.67,4403,1776.9s-69.75,297.24-120,330.85l-153.58-31s87.67-232,73-253.27S4131.9,1771,4131.9,1771,4128.71,1503.56,4137.08,1481.15Z"/><path fill="#fcfcfc" d="M3757.1,1391.54s-9.42,40.32,55.48,44.8,90-12.32,92.12-43.68v650.85l-153.88,2.24S3749.77,1422.9,3757.1,1391.54Z"/><path fill="#f3ce90" d="M3753.61,1451.28s24.08,29.5,71.18,25.39,79.21-23.9,79.21-23.9l-1.05,84.77-151.43.37Z"/><polygon fill="#f3ce90" points="3750.47 1624.92 3903.3 1624.92 3902.6 1716.4 3751.52 1716.78 3750.47 1624.92"/><polygon fill="#f3ce90" points="3750.12 1804.16 3902.95 1804.9 3903.3 1895.27 3750.12 1896.76 3750.12 1804.16"/><polygon fill="#f3ce90" points="3750.82 1981.9 3903.65 1981.53 3902.95 2042.77 3750.82 2045.75 3750.82 1981.9"/><path fill="#2e6857" d="M3390,1595.79c-14-3.73-34.89,13.07-94.56-162.81l-118.28,123.23s69.08,345,239.71,306.94c0,0,85.84-30.24,125.61-88.49l17.1-304.14S3404,1599.53,3390,1595.79Z"/><path fill="#f5b0a6" d="M3276.92,1451.41l-24.83-114.17s-11.79-39.27-37.79-71.35c-31.77-39.2-68.55-102.36-68.55-102.36s-22.66,3.67-12.32,29.82l27.32,71.89-39.4,9.53c-15.29,2.94-23.85,21.57-15.55,35.62.44.74.91,1.47,1.44,2.2,0,0-15,17.61.3,36.49,0,0-6.69,14.65,4.64,27.55s39.16,14.42,39.16,14.42-7.53,33.13,30.72,61.5l19.11,77.24Z"/><path d="M3711.09,1194.38c13.09,22.81,29.24,43.44,48.47,60.58l18.7,16.1c9-8,16-21.92,18.75-41.45,8.38-59.45-40.1-140.68-40.1-140.68s-10.51-26.94-24.83-20.68C3692.7,1085.47,3708.54,1189.94,3711.09,1194.38Z"/><path fill="#f5b0a6" d="M3892.83,1044.23l-36.18,246.34c-1.64,11-9.26,19.83-19.36,22.51l-101.08,26.42a24.79,24.79,0,0,1-24.05-7l-45.27-47a28.77,28.77,0,0,1-7.58-24.06l1.27-8.45,14.48-98.52,8.37-57.2c7-47.63,48.76-80.11,93.26-72.67Z"/><path fill="#ef8b8b" d="M3695.17,1210.28c-.53,16.51-14.6,29.85-33.05,33l9.39-66C3685.93,1183.36,3695.63,1196,3695.17,1210.28Z" opacity=".6"/><path fill="#d36c6c" d="M3731.54,1232.32a3,3,0,0,1-1.43-.37l-32.89-18.36a3.41,3.41,0,0,1-1.41-4.23l34.65-86.36a3,3,0,0,1,4.05-1.73,3.39,3.39,0,0,1,1.62,4.33l-33.53,83.55L3733,1226.1a3.41,3.41,0,0,1,1.31,4.45A3,3,0,0,1,3731.54,1232.32Z"/><path fill="#f5b0a6" d="M3838.11,1222.22c-4.07,27.65,13.59,53.59,39.43,57.94s50.08-14.54,54.14-42.2-13.59-53.59-39.43-57.94S3842.17,1194.56,3838.11,1222.22Z"/><path fill="#ef8b8b" d="M3838,1233.18c-1.24,20.49-17.76,36-36.9,34.68s-33.65-19-32.41-39.49,17.77-36,36.91-34.68S3839.23,1212.7,3838,1233.18Z" opacity=".6"/><path d="M3787.43,1177.7c-1.38,9.42-6.66,16.35-11.78,15.49s-8.16-9.19-6.78-18.61,6.66-16.35,11.79-15.49S3788.82,1168.29,3787.43,1177.7Z"/><path d="M3701.15,1163.18c-1.39,9.42-6.66,16.36-11.79,15.49s-8.16-9.19-6.77-18.61,6.66-16.35,11.78-15.49S3702.53,1153.77,3701.15,1163.18Z"/><path fill="#ef8b8b" d="M3887.44,1252.6c-1.13-9.29-1.42-18.1.9-26.28s6.9-15.45,12.27-22.89l-1.82-2.28a38.69,38.69,0,0,0-17.28,23,41.7,41.7,0,0,0,3.28,29.35Z"/><path d="M3760.12,1281.43a29,29,0,0,1-3.87,3.55,37.49,37.49,0,0,1-34.29,5.35,36,36,0,0,1-13.47-8.44c-6-6-9.86-14-10.1-22-.15-4.62,1.56-10.06,6.31-11.24a10.17,10.17,0,0,1,3.35-.07,37.1,37.1,0,0,1,6,2,83,83,0,0,0,33.44,6,30.21,30.21,0,0,1,11,1.17c3.15,1.08,5.5,2.92,6.52,6C3767.15,1270,3764.38,1276.58,3760.12,1281.43Z"/><path fill="#fff" d="M3758.53,1257.8c-.61,3-1.71,5.91-3.9,7.68-2.4,2-5.56,2.39-8.57,2.44a69.79,69.79,0,0,1-31.92-6.39c-2.38-1.11-4.88-2.52-6.09-5s-.8-5.29,0-8a37.1,37.1,0,0,1,6,2,83,83,0,0,0,33.44,6A30.21,30.21,0,0,1,3758.53,1257.8Z"/><path fill="#d36c6c" d="M3756.25,1285a37.49,37.49,0,0,1-34.29,5.35,36,36,0,0,1-13.47-8.44c5.06-5,12.69-7,19.81-6.92C3738.34,1274.93,3748.58,1278.23,3756.25,1285Z"/><path fill="#ef8b8b" d="M3850.62,1309.69s-39.76,69.32-97.78,83.65c3.65-16.21.24-45.85-.75-57.9Z"/><path fill="#f5b0a6" d="M3908.32,1186.09s59.73-145.78-74.28-167.43-141.59,54.12-141.59,54.12l171.94,32.47-7.59,35.18-1.26,48.7S3889,1169.52,3908.32,1186.09Z"/><path d="M3681.66,1114.19c2.46,10.41,36.27,9.16,35.83-.8C3716.76,1096.85,3677.77,1097.7,3681.66,1114.19Z"/><path d="M3814.71,1131.36c-5.84,8.73-36.89-5.64-33.08-14.74C3788,1101.52,3824,1117.53,3814.71,1131.36Z"/><path d="M3703.92,1044s16.39,118.92,143.6,143.73c0,0,4.47,41.07,26,38,0,0,9.95-10.8,27.62-30.51s48.67,7.51,48.67,7.51,22,11.43,15.44-62.68-6.32-106.34-6.32-106.34,148.62-1.64,109.27-83.89-123.65-41.49-147.25,21c0,0-81.2-72.08-180.33,11l-7.45,5.41s-103.33-6.4-109.11,54.34,52.58,103.14,52.58,103.14S3690.2,1064.2,3703.92,1044Z"/><path fill="#f5b0a6" d="M3130.52,1257.79s-18.46,21.43,1.14,37.56a485.34,485.34,0,0,1,38.32,36s-18.48,34.44,11.15,60.12l17-93.17Z"/><path fill="#ef8b8b" d="M3181.13,1393.36a1.7,1.7,0,0,1-1.13-.43c-27.13-23.49-15.3-54.45-12.23-61.24a488.1,488.1,0,0,0-37.21-34.81c-5.88-4.83-9.13-10.62-9.65-17.21-1-12.29,7.9-22.75,8.28-23.19l1-1.12,68.89,41.21a2,2,0,0,1,.69,2.63,1.74,1.74,0,0,1-2.46.74L3131,1260.26c-2.11,2.87-7.12,10.68-6.44,19.1.44,5.45,3.22,10.32,8.25,14.46,19.47,16,38.3,35.91,38.49,36.11l1,1-.69,1.29c-.72,1.35-17.34,33.35,10.72,57.66a2,2,0,0,1,.27,2.72A1.77,1.77,0,0,1,3181.13,1393.36Z"/><path d="M1503.17,1272.32s-22.08,84.36-69.37,82.11-124-41.62-167.11,41.61-9.45,146.22-9.45,146.22-92.49,24.74-44.15,109.1,537.06,102.35,621.13,55.11,52.55-127.1,7.36-157.46c0,0,82-105.73-67.26-149.59,0,0,42-181.09,42-190.08s-56.76-117-56.76-117-142.93,9-145,13.5-64.7,39-64.7,39S1505.27,1199.21,1503.17,1272.32Z"/><path fill="#e8968e" d="M1804.75,2117.28s88.9,440.77,92.28,440.77,235.19-3.61,235.19-3.61-36-89.12-145.17-84.3c0,0-13.5-333.59-37.13-368.51C1949.92,2101.63,1904.9,2132.94,1804.75,2117.28Z"/><path fill="#f3ce90" d="M1527.92,1464.56l-150.79,24.08s-47.27-4.82-73.15,62.63-70.89,363.69-50.64,395,127.73,616.6,127.73,616.6l470.94-3.61-72.58-444.39-5.06-57.8,20.25,59.61s113.1,19.87,165.43-21.68c0,0,8.44-3.61-1.69-32.51s-25.32-14.45-15.19-41.55,25.32-7.23,5.06-48.77-32.07-90.33-32.07-142.71,15.19-307.1-160.36-323.36C1755.8,1506.1,1530.45,1488,1527.92,1464.56Z"/><path fill="#fff" d="M1548.63,1421.68s-15.8-9.1-31.6,15.61-34,58.53-34,58.53l103.3,110.55,42.54-80.64,32.81,84.55,92.37-67.64s-20.66-76.74-35.24-93.64S1548.63,1421.68,1548.63,1421.68Z"/><path fill="#ef7c59" d="M1774.37,2057.07s-1.69-39.74-3.38-66.84,8.44-32.52,43.89-126.45-27-160.77-27-160.77,49,40,46.26,97.69-45.59,168.54-45.59,175.93,5.26,147,6.08,140S1774.37,2057.07,1774.37,2057.07Z" opacity=".56"/><path d="M1574.15,1415.18s-30.38,1.3-25.52,14.31,15.8,54.62,75.35,61.13,88.72-19.51,88.72-28.62S1687.18,1425.59,1574.15,1415.18Z"/><path fill="#f5b0a6" d="M2724.14,2122.1s-4.5,207.14-1.13,220.39,149.67,177,149.67,177,66.4-40.95,102.41-27.7,57.39,65,57.39,65l-258.83,1.2s-132.78-97.54-133.91-114.4-57.39-161.38-28.13-246.88l29.26-85.51Z"/><path fill="#2e6857" d="M2449.56,1609.07s-23.63,97.55-64.14,104.77-124.91-7.22-124.91-7.22-91.15-25.29-141.79,75.87-108,227.61-108,227.61,162-10.84,202.56,65c0,0-94.31,417.06-81,479.31l543.53,12s-101.28-245.67-16.88-451.61l87.78,10.84s13.5-169.8-57.4-231.22-145.16-97.55-145.16-144.52c0,0,6.19-36.73,7.87-50.58C2552,1699.39,2476,1662.66,2449.56,1609.07Z"/><path fill="#6fc183" d="M2407.36,1700.3l62,143.61,76.81-81.74s12.24,29.35,36.29,47.42l-32.92,83.09s-8-77.67-76-40.19l-5.06,1.81s-30.38-43.81-43-35.23-55.71,47.87-55.71,47.87l-9.7-152.19S2393,1720.17,2407.36,1700.3Z"/><path fill="#6fc183" d="M2689.25,1894.49s-16.88,174.62-30.38,220.38l87.78,10.84S2768,1980,2689.25,1894.49Z"/><path fill="#6fc183" d="M2260.51,1706.62s41.63,20.47,10.12,148.13-57.39,215.57-57.39,215.57-36-68.65-202.56-60.22l111.41-234.84S2173.86,1681.33,2260.51,1706.62Z"/><path fill="#2e6857" d="M2214.09,2362.36,2458,2561.06l217.75,5.42s-29.54-86.71-44.73-158.06C2631,2408.42,2263,2382.23,2214.09,2362.36Z"/><path fill="#f5b0a6" d="M2449.56,1609.07s-20.26,69.55-42.2,91.23l62,145.41,76.81-83.54s-3.8-9-1.69-14,7.45-48.78,7.45-48.78S2465.17,1653.78,2449.56,1609.07Z"/><polygon fill="#3d5891" points="2698.26 2195.56 2653.24 2197.97 2448.43 2406.31 2702.2 2405.11 2773.65 2200.38 2698.26 2195.56"/><path fill="#1e3466" d="M2698.26,2195.56s54,53,38.26,100-82.15,114.41-82.15,114.41l182.3-2.41s81-166.2,19.13-208.35Z"/><path fill="#fff" d="M2711.76,2393.07l201.43,2.4s189.06-203.52,68.65-260.12L2696,2145s-19.13,10.84-16.88,49.38l87.77,3.61S2833.3,2277.45,2711.76,2393.07Z"/><path fill="#7a8db0" d="M2678.2,2197.41s2.05-64.47,60.57-28.34c0,0,23.63,19.27,28.13,28.9Z"/><rect width="3445.36" height="65.02" x="832.57" y="2553.24" fill="#7a8db0" rx="24.82"/><path fill="#2d4677" d="M3689,2167.16l-465.17-1.61c-16.4-.05-30.57,12.27-33.88,29.47l-58.46,304.63-145.17,1.8s-40.51,14.45-43.89,56l692.07-.6,3.38-16.86,5.13.75c10.91,1.59,21-6.43,22.76-18.07l48.41-323.81C3716.68,2182.26,3704.73,2167.21,3689,2167.16Z"/><path fill="#f5b0a6" d="M1572.29,1283.72l-15.25,165s9.28,32.06,58.23,41.55,84-9.94,85.67-14.45l3.3-105.64,1-62.35Z"/><polygon fill="#ef8b8b" points="1599 1378.8 1701.43 1479.1 1704.23 1370.23 1599 1378.8"/><path fill="#f5b0a6" d="M1790.67,1352.22l-.35-8.72-3.79-101.63-2.15-59c-1.86-49.13-40.54-87.31-86.44-85.4l-119.8,5.15,9.42,254.11c.45,11.35,7.19,21.25,17.13,25.25l99.46,39.55a25.07,25.07,0,0,0,25.14-4l51-41.87A28.89,28.89,0,0,0,1790.67,1352.22Z"/><path fill="#ef8b8b" d="M1786.53,1241.87c-17.78,7.48-30.69,25.58-31.74,47.36-1.21,25.23,14,47.25,35.53,54.27Z" opacity=".6"/><path fill="#d36c6c" d="M1721.09,1313.92a3.48,3.48,0,0,1-3.23-2.38,3.79,3.79,0,0,1,2-4.78l32.36-13.21L1727.57,1205a3.74,3.74,0,0,1,2.33-4.59,3.42,3.42,0,0,1,4.3,2.48l25.56,91.86a3.77,3.77,0,0,1-2.08,4.51l-35.36,14.44A3.15,3.15,0,0,1,1721.09,1313.92Z"/><path fill="#f5b0a6" d="M1613.9,1289.84c1.06,28.52-19.69,52.56-46.34,53.7s-49.12-21.07-50.18-49.6,19.69-52.57,46.34-53.7S1612.84,1261.31,1613.9,1289.84Z"/><path d="M1790,1180.17c-3.64,10.23-37.75,4.69-36.2-5.35C1756.33,1158.17,1795.73,1164,1790,1180.17Z"/><path d="M1638.23,1187.51c5,9.59,38-1,35.14-10.74C1668.64,1160.67,1630.39,1172.33,1638.23,1187.51Z"/><path fill="#ef8b8b" d="M1594.7,1293.49c-1.43,29.74,19.94,55.08,47.72,56.61s51.47-21.34,52.9-51.07-19.93-55.08-47.72-56.61S1596.13,1263.75,1594.7,1293.49Z" opacity=".6"/><path d="M1670.15,1251.16c.36,9.71,4.94,17.4,10.22,17.18s9.28-8.28,8.92-18-4.94-17.4-10.22-17.18S1669.79,1241.45,1670.15,1251.16Z"/><path d="M1759.15,1247.37c.36,9.72,4.94,17.41,10.23,17.18s9.28-8.28,8.92-18-4.94-17.41-10.23-17.18S1758.79,1237.66,1759.15,1247.37Z"/><path d="M1686.35,1359.68a32.68,32.68,0,0,0,3.53,4.09,38.62,38.62,0,0,0,34.14,9.76,36.18,36.18,0,0,0,14.58-6.85c6.73-5.36,11.53-12.9,12.66-21,.66-4.66-.47-10.4-5.15-12.19a10.51,10.51,0,0,0-3.39-.49,37.62,37.62,0,0,0-6.3,1.27,84.18,84.18,0,0,1-34.54,1.89,30.71,30.71,0,0,0-11.3-.21c-3.32.69-5.9,2.26-7.27,5.22C1680.5,1347.18,1682.57,1354.23,1686.35,1359.68Z"/><path fill="#fff" d="M1690.58,1336c.28,3.11,1.07,6.19,3.09,8.27,2.22,2.33,5.37,3.12,8.41,3.55a70.67,70.67,0,0,0,33-2.43c2.54-.82,5.23-1.94,6.72-4.26s1.4-5.26.88-8.08a37.62,37.62,0,0,0-6.3,1.27,84.18,84.18,0,0,1-34.54,1.89A30.71,30.71,0,0,0,1690.58,1336Z"/><path fill="#d36c6c" d="M1689.88,1363.77a38.62,38.62,0,0,0,34.14,9.76,36.18,36.18,0,0,0,14.58-6.85c-4.58-5.67-12.09-8.64-19.3-9.52C1709.14,1355.85,1698.4,1357.9,1689.88,1363.77Z"/><polygon fill="#ef8b8b" points="1577.19 1308.29 1548.59 1279.2 1551.99 1275.38 1580.59 1304.46 1577.19 1308.29"/><polygon fill="#ef8b8b" points="1554.29 1306.78 1550.78 1303.07 1562.83 1289.98 1566.35 1293.68 1554.29 1306.78"/><path fill="#f5b0a6" d="M1665,1060.83c-177.45,22.38-111.4,180.55-111.4,180.55,19.82-9.28,39.33,8.39,39.33,8.39s13.36-56.31,13.51-59.41,28.14-41,28.14-41l65.36-8.84,83.14,24.28C1766.25,1050.85,1665,1060.83,1665,1060.83Z"/><path fill="#0f0f0f" d="M1583.2,1288.88s14.44-10.94,22.32-49.74c0,0,96.17-34.58,125.33-89.42,0,0,1.58,31.22-34.68,65.8,0,0,53.6,18.56,77.25,11.81,0,0,8.67-46.39,11.82-39.65s-.79,43.87-.79,43.87,48.87,2.53,52-6.75,23.64-174.61-138.73-178-186.81,53.15-190,64.11-8.55,167-8.55,167,59.22-58.86,70.47-32.36C1586.86,1285.93,1583.2,1288.88,1583.2,1288.88Z"/><path fill="#0f0f0f" d="M1549.44,1242.36s13.51-4.29,17.31,0,3.16-13.54,1.89-13.54-19.83-2.26-19.83-2.26-4.85,1.58-4.85,2.26S1549.44,1242.36,1549.44,1242.36Z"/><path fill="#0f0f0f" d="M1509.47,1110.92s-34.72,44.73-23.75,158.54-103,77.68-103,77.68,10.12,36.13,27,41.55,67.52,4.51,67.52.9,16-64.13,17.73-68.65,21.1-49.67,22.78-69.54,16.88-98.45,16.88-98.45Z"/><path d="M2688.56,1612.43l-232.41-79s-12.47-39.77-11-111.54,39.93-83,61.75-67.55c0,0,30-81.35,118.55-60.48,59.56,14,106.59,49.88,125.76,100.68.1.26.21.55.32.87q2.19,5.91,3.86,12.06s0,.06,0,.08a144.27,144.27,0,0,1,4.09,21.32,166.63,166.63,0,0,1-1.3,46.26C2751.46,1516.56,2729.67,1563,2688.56,1612.43Z"/><path fill="#070707" d="M2702.41,1588.39s38.83-58.71,19.41-101.23-62.46,106.89-62.46,106.89Z"/><path fill="#070707" d="M2455.23,1511.21l-3.07-4.9c.47-13.4,11-77.82,40.82-90.6C2525.32,1401.84,2455.23,1511.21,2455.23,1511.21Z"/><path d="M2666.65,1410.74l-.09.1a.13.13,0,0,0,0-.06Z"/><path fill="#070707" d="M2758.24,1475.17c-14.85,3.21-34.8,4.67-42,2.4-13.36-4.21-55.23-110.51-55.23-110.51s46.38,37.3,85.47,28.41c1.69-.38,3.29-.68,4.77-.89.1.26.21.55.32.87.93,2.6,2.28,6.85,3.86,12.06,0,0,0,.06,0,.08a144.27,144.27,0,0,1,4.09,21.32A166.63,166.63,0,0,1,2758.24,1475.17Z"/><path fill="#3d5891" d="M2534.14,1391.51q-1.74,4.71-3.5,9.12A36.36,36.36,0,0,1,2534.14,1391.51Z"/><path fill="#f5b0a6" d="M2588.57,1616.58l-51.06,148.31s-18.28,1.73-65.68-12.64c-39.86-12.09-57.63-36-57.63-36l57.17-166.06Z"/><polygon fill="#ef8b8b" points="2537.27 1765.63 2477.93 1649.5 2551.93 1723.05 2537.27 1765.63"/><path fill="#f5b0a6" d="M2726.5,1503.8l-66.88,194.25a26.93,26.93,0,0,1-17.81,17.4l-62.08,17.66a24.78,24.78,0,0,1-24.56-6.54l-77.63-77.11a29.5,29.5,0,0,1-6.76-30.32l65.52-190.33Z"/><path fill="#ef8b8b" d="M2692.81,1601.66l-26.34,76.5c-19.73-7.78-29.84-31.22-22.57-52.35S2673.07,1593.87,2692.81,1601.66Z" opacity=".6"/><path fill="#d36c6c" d="M2634.41,1625.2a2.87,2.87,0,0,1-1-.19l-27.55-10.86a3.2,3.2,0,0,1-1.73-4,2.88,2.88,0,0,1,3.75-1.86l24.51,9.66,19.78-82.82a2.93,2.93,0,0,1,3.56-2.26,3.16,3.16,0,0,1,2.1,3.81l-20.58,86.18a3.12,3.12,0,0,1-1.47,2A2.77,2.77,0,0,1,2634.41,1625.2Z"/><path fill="#f5b0a6" d="M2504.43,1562.56c-9.2,26.73-36.92,40.42-61.9,30.57s-37.77-39.51-28.57-66.24,36.92-40.43,61.9-30.58S2513.64,1535.82,2504.43,1562.56Z"/><path d="M2606.06,1491.91c-4,11.07-41,4.77-39.21-6.1C2569.76,1467.77,2612.44,1474.39,2606.06,1491.91Z"/><path d="M2724.72,1545.67c-7.83,7-35-15.62-29.08-23.55C2705.46,1509,2737.14,1534.56,2724.72,1545.67Z"/><ellipse cx="2540.55" cy="1582.17" fill="#ef8b8b" opacity=".6" rx="38.1" ry="40.78"/><path d="M2604,1545.81c-2.83,7.65-8.49,12.43-12.66,10.67s-5.25-9.39-2.43-17,8.49-12.43,12.66-10.66S2606.83,1538.16,2604,1545.81Z"/><path d="M2681.23,1576.26c-2.82,7.65-8.49,12.43-12.65,10.67s-5.25-9.4-2.43-17,8.49-12.43,12.66-10.67S2684.06,1568.6,2681.23,1576.26Z"/><path fill="#d36c6c" d="M2604.23,1668.16c-22.86,0-33-20.38-33.12-20.62a3.23,3.23,0,0,1,1.26-4.21,2.82,2.82,0,0,1,3.93,1.33h0c.46.93,11.47,22.72,37.55,15.95a2.91,2.91,0,0,1,3.53,2.3,3.15,3.15,0,0,1-2.15,3.78A43.5,43.5,0,0,1,2604.23,1668.16Z"/><path fill="#ef8b8b" d="M2460,1577.54a2.89,2.89,0,0,1-2.49-1.49,3.27,3.27,0,0,1,.95-4.31c4.71-3.11,8.81-8.17,12.19-15,11.6-23.56-14.26-38.64-15.36-39.27a3.25,3.25,0,0,1-1.21-4.24,2.83,2.83,0,0,1,3.95-1.29c11.16,6.35,29.22,24.5,17.79,47.72-3.87,7.85-8.67,13.72-14.28,17.43A2.84,2.84,0,0,1,2460,1577.54Z"/><path fill="#ef8b8b" d="M2473.26,1561.31a3,3,0,0,1-2.85-2.43c-3.71-17.23-17.62-14.47-19.19-14.09a2.94,2.94,0,0,1-3.49-2.37,3.15,3.15,0,0,1,2.2-3.74c7.27-1.78,22.09-.15,26.18,18.79a3.14,3.14,0,0,1-2.19,3.76A3,3,0,0,1,2473.26,1561.31Z"/><path d="M2802.63,1444.55l-.84,1.41c-106.45,180.41-266.89-50.66-266.89-50.66-1.16,3.14-3.08,2.39-4.26,5.33-30.75,77.07-67.91,87.9-67.91,87.9,31.18-199.51,178.74-155.06,230.8-101.26s99,10.53,99,10.53c-7.39,57.3-57.45,60.8-57.45,60.8C2780.37,1469.05,2802.63,1444.55,2802.63,1444.55Z"/><path fill="#393939" d="M2801.79,1446c-106.45,180.41-274.26-49.5-274.26-49.5s76.5,70.14,158.77,87.79C2766,1501.35,2792.64,1461.34,2801.79,1446Z"/><path d="M2503.12,1522.56s57.29-43.16,61.3-83.77l-33.81-22.31Z"/><path fill="#e8968e" d="M2194.11,2049.84l-29.26,143.31,301.59,102.37s58.52-55.4,84.4-57.81,84.4-10.84,84.4-10.84,20.25-1.2,0,18.07-58.52,28.9-58.52,28.9-23.63,16.86-10.13,21.68,67.52,22.88,79.9,22.88,79.9-6,92.28-1.2,34.88,12,20.25,15.65-18,6-18,6,10.13,14.45-19.13,18.07c0,0-66.4,47-93.4,48.17s-172.18-12-176.68-14.45-410.74-44.56-410.74-44.56-69.21-12.65-74.27-72.26,70.89-267.35,70.89-267.35S2136.16,2002.87,2194.11,2049.84Z"/><path fill="#ef8b8b" d="M2647.53,2359.37c-11.29,0-39.91-7.69-43.35-8.62l1.35-5.69c9.72,2.64,36.47,9.27,43.43,8.36,8.83-1.18,90.74-17.27,91.56-17.44l1,5.78c-3.39.66-82.9,16.29-91.88,17.49A16.37,16.37,0,0,1,2647.53,2359.37Z"/><path fill="#ef8b8b" d="M2644.47,2388.79c-21.85,0-31.16-7.38-31.72-7.85l3.33-4.66c.19.16,19.6,15,69.6-.49l1.53,5.65C2669.5,2386.93,2655.41,2388.79,2644.47,2388.79Z"/><path fill="#7a8db0" d="M2646.49,2318.4s80.46-55.4,92.28-51.78c0,0,22.5-7.83,14.06,7.22s-48.95,42.15-48.95,42.15Z"/><polygon fill="#3d5891" points="2571.09 2280.16 2653.24 2197.97 2657.18 2236.81 2619.63 2284.68 2591.77 2291.91 2571.09 2280.16"/><path fill="#f5b0a6" d="M1496.48,2031.11h0c-46.52-3.07-92.79-50.13-80-98.08l31.82-168,134.91,28.58-9.18,203.24C1571.58,2039.87,1536.68,2033.76,1496.48,2031.11Z"/><polygon fill="#ef8b8b" points="1575.43 1963.21 1482.48 1861.58 1577.8 1910.86 1575.43 1963.21"/><path fill="#f5b0a6" d="M1688.84,1637.59l-12.35,214.28a29.47,29.47,0,0,1-12.85,23l-56.75,37.34a25.44,25.44,0,0,1-26.22,1.33l-98.59-51.84c-9.79-5.16-15.83-16.19-15.16-28l12.11-210Z"/><polygon fill="#f5b0a6" points="1685.13 1701.92 1708.81 1789.62 1679.56 1798.61 1685.13 1701.92"/><path fill="#f5b0a6" d="M1484.61,1766.76c-1.7,29.5-25.42,51.93-53,50.11s-48.53-27.2-46.83-56.7,25.42-51.93,53-50.11S1486.31,1737.27,1484.61,1766.76Z"/><path fill="#ef8b8b" d="M1465.1,1782.67a2.92,2.92,0,0,1-2.16-1L1431,1746.8a3.41,3.41,0,0,1,0-4.59,2.89,2.89,0,0,1,4.29,0l31.92,34.89a3.42,3.42,0,0,1,0,4.59A2.93,2.93,0,0,1,1465.1,1782.67Z"/><path d="M1635.13,1676.18c-.91,12.27-39.36,17.79-40.64,6.44C1592.35,1663.77,1636.59,1656.73,1635.13,1676.18Z"/><ellipse cx="1585.55" cy="1778.66" fill="#ef8b8b" opacity=".6" rx="39.52" ry="42.29"/><path fill="#d36c6c" d="M1679.56,1801.86a3.06,3.06,0,0,1-2.86-2.17,3.31,3.31,0,0,1,1.85-4.14l26-9.84L1681.72,1701a3.28,3.28,0,0,1,2.07-4,3,3,0,0,1,3.76,2.22l23.67,87.7a3.29,3.29,0,0,1-1.9,4l-28.75,10.85A2.74,2.74,0,0,1,1679.56,1801.86Z"/><path d="M1638.46,1722.31c-.68,8.5-5,15-9.6,14.63s-7.83-7.65-7.16-16.16,5-15,9.6-14.63S1639.14,1713.81,1638.46,1722.31Z"/><path fill="#fff" d="M1658,1844.68s-43.39,55.7-37.19-13.66Z"/><path d="M1470.31,1725.52s11.57,26.81,9,39.66l30.42-8s41.56-71.4,18.16-104c0,0,191.1,46.68,228.52-99.12,0,0-23.24,13.49-48.9,3.78s-158.23-145.69-271.29-52S1357.28,1705,1388,1741.12C1388,1741.12,1418.29,1686,1470.31,1725.52Z"/><path d="M1405.88,1533.25s-26.54,103.11-6.54,135.15,47.94,45.24,47.94,45.24-29.85-12.65-59.31,27.48C1388,1741.12,1310.5,1650.51,1405.88,1533.25Z"/><path d="M1527.84,1653.17s167-39.07,171.3-80.86l-58.33-60s52.9,40.56,72.48,47.19c0,0,22.16,5.47,43.07-5.5C1756.36,1554.05,1735.74,1689.94,1527.84,1653.17Z"/><path fill="#b74c34" d="M1344.75,1958.32s55.62-65,96.49-65,98.76,18.07,118.62,44.56c21.37,28.5,46,93.94,46,93.94s-136.21-67.44-173.67-72.26S1344.75,1958.32,1344.75,1958.32Z"/><path fill="#ef7c59" d="M1344.75,1958.32s-90.81-27.7-129.4-8.43-294,196.3-290.6,261.33,36.32,137.29,104.43,191.48l54.49,48.17,5.67,155.36,460.87,1.2s53.12,6.63,65.6-3-5.56-134.69-6.42-171.54c-1-40.66-20.58-120.5-20.58-120.5s194.11,273.37,272.43,272.17S1981.57,2493,1981.57,2493s-13.62-79.48-86.27-148.13l-15.9,14.46s15.9-14.46-15.89-25.29-107.84-133.68-115.78-171-44.27-106-136.22-131.27C1611.51,2031.78,1441.24,1927,1344.75,1958.32Z"/><path fill="#f5b0a6" d="M1901.82,2347l195.82-174.32s-2.56-72.26,15.32-99.35,90.24-92.13,93.65-84,7.66,21.67-4.26,35.22-41.71,46.07-31.5,46.07,104.72-30.71,104.72-30.71,58.74-27.1,54.49-3.62-129.41,161.68-172,187.87c0,0-145.58,243.87-176.23,259.23C1981.85,2483.39,1940.13,2373.19,1901.82,2347Z"/><path fill="#ef8b8b" d="M2183,2113.07l-2.2-5.42c51.43-23.82,133.44-66.78,134.57-80.65l5.49.52C2319.12,2049,2205.73,2102.54,2183,2113.07Z"/><path fill="#ef8b8b" d="M2204.41,2132.88l-2.41-5.3c27.81-14.5,101.77-54.19,109.86-63.49l4,4C2305.45,2080.11,2208.53,2130.73,2204.41,2132.88Z"/><polygon fill="#b74c34" points="1635.82 2040.45 1630.59 2037.99 1642.11 1888.91 1647.86 1885.22 1635.82 2040.45"/><path fill="#f3ce90" d="M3843.91,2479.22h335.18a0,0,0,0,1,0,0v90.25a0,0,0,0,1,0,0H3843.91a1.93,1.93,0,0,1-1.93-1.93v-86.4A1.93,1.93,0,0,1,3843.91,2479.22Z" transform="rotate(180 4010.535 2524.345)"/><path fill="#ef7c59" d="M4109.42,2569.47c6,0,10.81-5.18,10.81-11.56v-67.12c0-6.39-4.84-11.57-10.81-11.57h18.74c6,0,10.81,5.18,10.81,11.57v67.12c0,6.38-4.84,11.56-10.8,11.56Z" opacity=".47"/><path fill="#ef7c59" d="M3913.41,2569.47c6,0,10.81-5.18,10.81-11.56v-67.12c0-6.39-4.84-11.57-10.81-11.57h18.75c6,0,10.81,5.18,10.81,11.57v67.12c0,6.38-4.84,11.56-10.81,11.56Z" opacity=".47"/><path fill="#eda45a" d="M3863.05,2479.31h-139v.63c0,8.35,14.2,15.12,14.2,15.12s49.17,14.12,0,56.38c0,0-14.17,2.14-14.17,15.79v2.24h139c9.82,0,18.54-9.28,18.54-19.8V2497.5A18.33,18.33,0,0,0,3863.05,2479.31Z"/><path fill="#fff" d="M3862.34,2494.76v56.68h-124c17.8-29.49,0-56.68,0-56.68Z"/><path fill="#ef7c59" d="M3754.85,2389.9h283.57a0,0,0,0,1,0,0v89.32a0,0,0,0,1,0,0H3754.85a1.34,1.34,0,0,1-1.34-1.34v-86.64A1.34,1.34,0,0,1,3754.85,2389.9Z"/><path fill="#ba5a43" d="M4024.87,2389.93h170.72v.45c0,5.78-10.54,10.27-10.54,10.27s-34.09,36.76,0,66c5.41,0,10.54,5.16,10.54,10.95v1.55H4024.87c-6.81,0-12.22-6.43-12.22-13.72v-62.93C4012.65,2395.26,4018.06,2389.93,4024.87,2389.93Z"/><path fill="#fff" d="M4185.05,2466.69H4026v-66h159.06s-.05.07-.13.21a2.45,2.45,0,0,0-.25.36c-.1.16-.2.35-.34.6a47,47,0,0,0-2.4,4.79c-.17.37-.33.77-.5,1.18C4176.81,2419,4171,2442.58,4185.05,2466.69Z"/><path fill="#753427" d="M4120.92,2486.36c-5.21-2.42-8.32-8.33-9.54-14.26s-.91-12.42-1.3-18.48-1.64-11.92-5.38-17.27h30c3.75,5.35,5,11.21,5.39,17.27s.07,12.38,1.29,18.31,4.34,11.93,9.55,14.34l-20.49-5.29Z"/><rect width="598.1" height="313.13" x="812.5" y="859.45" fill="#d1dbed" rx="22.68"/><polygon fill="#d1dbed" points="1250.92 1169.5 1322.63 1239.09 1323.59 1163.36 1241.35 1154.15 1250.92 1169.5"/><rect width="598.1" height="316.2" x="844.06" y="830.28" fill="#5681bf" rx="19.8"/><polygon fill="#5681bf" points="1352.27 1144.94 1351.32 1214.53 1271 1142.9 1352.27 1144.94"/><path fill="#fff" d="M1371.73,956.74H1110.92c-7.15,0-12.94-6.2-12.94-13.85h0c0-7.65,5.79-13.86,12.94-13.86h260.81c7.15,0,12.94,6.21,12.94,13.86h0C1384.67,950.54,1378.88,956.74,1371.73,956.74Z"/><path fill="#fff" d="M1249,1001.73H1105.12a7.41,7.41,0,0,1-7.14-7.65h0a7.4,7.4,0,0,1,7.14-7.64H1249a7.4,7.4,0,0,1,7.14,7.64h0A7.41,7.41,0,0,1,1249,1001.73Z"/><path fill="#fff" d="M1249,1035.38H1105.12a7.4,7.4,0,0,1-7.14-7.65h0a7.4,7.4,0,0,1,7.14-7.64H1249a7.4,7.4,0,0,1,7.14,7.64h0A7.41,7.41,0,0,1,1249,1035.38Z"/><rect width="487.29" height="407.32" x="2046.38" y="544.21" fill="#d1dbed" opacity=".58" rx="9.37"/><rect width="487.29" height="407.32" x="2024.81" y="523.71" fill="#6498d8" rx="9.37"/><rect width="2.97" height="295.94" x="2072.85" y="567.2" fill="#99b1da"/><rect width="2.44" height="360.51" x="2251.39" y="681.66" fill="#99b1da" transform="rotate(-90 2252.61 861.92)"/><rect width="28.23" height="85.37" x="2114.69" y="754.81" fill="#fff"/><rect width="28.23" height="112.81" x="2174.12" y="726.76" fill="#fff"/><rect width="28.23" height="135.98" x="2235.03" y="702.37" fill="#fff"/><rect width="28.23" height="166.46" x="2297.42" y="672.49" fill="#fff"/><rect width="28.23" height="191.46" x="2356.85" y="647.49" fill="#fff"/><rect width="28.23" height="226.83" x="2420.73" y="611.51" fill="#fff"/><polygon fill="#fff" points="2118.86 721.07 2117.95 719.02 2278.06 638.43 2269.85 657.42 2435.9 578.16 2436.76 580.23 2265.57 661.94 2273.7 643.13 2118.86 721.07"/><path fill="#fff" d="M2431.07,590.36l-1.74-1.29,6-9.15c-5-.24-13.54-.66-14.19-.66V577c.94,0,15.59.73,16.21.76l1.91.1Z"/><ellipse cx="4168.52" cy="1287.17" fill="#fff" rx="13.3" ry="13.22"/><ellipse cx="4213.4" cy="1287.93" fill="#fff" rx="13.3" ry="13.22"/><ellipse cx="4256.15" cy="1287.93" fill="#fff" rx="13.3" ry="13.22"/><g data-name="Speech Bubble"><path fill="#d1dbed" d="M951,1061.22h34.35a2.78,2.78,0,0,0,0-5.54H951a2.78,2.78,0,0,0,0,5.54Z"/><path fill="#d1dbed" d="M948.41,1068.75A2.68,2.68,0,0,1,951,1066h34.35a2.68,2.68,0,0,1,2.59,2.77c0,11.67-8.87,21.15-19.76,21.15S948.41,1080.42,948.41,1068.75Z"/><path fill="#d1dbed" d="M915,985.91c0,20,10.06,38.76,26.2,49a15.41,15.41,0,0,1,7,13,2.42,2.42,0,0,0,2.32,2.48h35.29a2.32,2.32,0,0,0,1.65-.71,2.77,2.77,0,0,0,.67-1.77,15.27,15.27,0,0,1,7.07-13c16.43-10.38,26.45-29.49,26.13-49.85-.41-29.46-23.12-54.54-50.58-55.94a50.9,50.9,0,0,0-39.29,15.65A58.44,58.44,0,0,0,915,985.91Z"/><path fill="#d1dbed" d="M915,985.91c0,20,10.06,38.76,26.2,49a15.41,15.41,0,0,1,7,13,2.42,2.42,0,0,0,2.32,2.48h35.29a2.32,2.32,0,0,0,1.65-.71,2.77,2.77,0,0,0,.67-1.77,15.27,15.27,0,0,1,7.07-13c16.43-10.38,26.45-29.49,26.13-49.85-.41-29.46-23.12-54.54-50.58-55.94a50.9,50.9,0,0,0-39.29,15.65A58.44,58.44,0,0,0,915,985.91Z"/><path fill="#d1dbed" d="M940.6,1002.85a11.9,11.9,0,0,0,7.07,1.93,21.77,21.77,0,0,0,4.12-.4l.67-.14.32.64a44,44,0,0,1,3,7.4c3.26,10.9,3.14,21.83,3,32.38,0,2-.06,3.87-.06,5.67h2.72c0-1.83,0-3.67,0-5.53.16-10.32.32-22-3.13-33.4a47.2,47.2,0,0,0-2.64-6.92l-.47-1,1-.41a28.62,28.62,0,0,0,7.68-4.55,32.4,32.4,0,0,0,3.61-3.39l.7-.75.67.75a31.7,31.7,0,0,0,3.61,3.39,29.09,29.09,0,0,0,7.68,4.55l1,.41-.47,1a46.1,46.1,0,0,0-2.64,6.92c-3.42,11.4-3.3,23.08-3.14,33.36,0,1.9,0,3.74,0,5.57h2.72c0-1.8,0-3.63-.06-5.5-.13-10.69-.25-21.62,3-32.55a44,44,0,0,1,3-7.4l.32-.64.66.14a22.11,22.11,0,0,0,4.13.4,11.84,11.84,0,0,0,7.07-1.93,4.62,4.62,0,0,0,1.87-5.23,5.19,5.19,0,0,0-5.14-3.9c-3.17,0-6.63,2.41-9.45,6.58l-.41.61-.67-.23a26.37,26.37,0,0,1-7.83-4.48,29.81,29.81,0,0,1-3.65-3.53l-.54-.58.45-.68c3.3-4.95,4.57-10.39,3.39-14.15a5.81,5.81,0,0,0-11.19,0c-1.18,3.76.09,9.2,3.39,14.15l.44.68-.54.58a29,29,0,0,1-3.64,3.53,25.93,25.93,0,0,1-7.84,4.48l-.66.23-.41-.61c-2.83-4.17-6.28-6.58-9.45-6.58a5.19,5.19,0,0,0-5.14,3.9A4.66,4.66,0,0,0,940.6,1002.85Zm44.75-1.16,1.36-1.56c1.9-2.2,4.06-3.49,5.77-3.49a2.51,2.51,0,0,1,2.57,1.9,1.85,1.85,0,0,1-.86,1.93,9.9,9.9,0,0,1-5.64,1.39c-.38,0-.79,0-1.21,0Zm-18-13.37c-2.16-3.77-3-7.63-2.19-10.15a3.14,3.14,0,0,1,6,0c.76,2.52-.06,6.38-2.22,10.15l-.79,1.43ZM941.3,998.5a2.55,2.55,0,0,1,2.57-1.86c1.71,0,3.86,1.29,5.77,3.49l1.36,1.56-2,.14c-.41,0-.79,0-1.17,0a10.07,10.07,0,0,1-5.68-1.39A1.84,1.84,0,0,1,941.3,998.5Z"/></g><polygon fill="#d1dbed" points="897.7 911.85 924.75 930.84 927.01 927.15 899.97 908.16 897.7 911.85"/><polygon fill="#d1dbed" points="948.35 884.95 952.15 917.51 956.24 916.97 952.44 884.4 948.35 884.95"/><polygon fill="#d1dbed" points="984.8 918.77 988.69 920.23 999.67 886.76 995.79 885.3 984.8 918.77"/><polygon fill="#d1dbed" points="1015.86 936.79 1018.48 940.2 1040.04 921.2 1037.42 917.8 1015.86 936.79"/><polygon fill="#d1dbed" points="1036.04 970.75 1037.18 974.99 1059.16 968.2 1058.02 963.97 1036.04 970.75"/><polygon fill="#d1dbed" points="883.36 951.43 908.72 960.93 910.08 956.77 884.72 947.27 883.36 951.43"/><polygon fill="#d1dbed" points="883.89 1002.87 885.04 1007.1 905.33 1000.77 904.17 996.53 883.89 1002.87"/><polygon fill="#d1dbed" points="1032.25 1003.3 1052.54 1015.06 1054.5 1011.18 1034.21 999.42 1032.25 1003.3"/><path d="M1661.64,1046.24s52.24-5.08,106.39,29.48,46.55,152.49,46.55,152.49c10.44,5.08,21.9-3.41,21.9-3.41s15.14-66.74-24.75-129.76S1661.64,1046.24,1661.64,1046.24Z"/><path d="M1616,1097.07c-20-15.25-22.8-42.7-22.8-42.7l-37,13.22s-4.75,29.48,22.8,50.83,27.55,19.31,24.7,46.76,29.45,59,29.45,59l33.24-15.25s-27.54-34.56-28.49-60S1636,1112.32,1616,1097.07Z"/><path d="M1680.63,1152c2.85-19.31,6.65-49.81-5.7-69.12a181.79,181.79,0,0,1-18-36.6l-21.85,1s33.24,32.53,36.09,62-7.59,33.55-1.9,54.89,14.25,32.54,14.25,32.54l12.35-8.14S1677.78,1171.28,1680.63,1152Z"/><path fill="#0f0f0f" d="M1433.8,1354.43c-47.29-2.25-124-41.62-167.11,41.61s-9.45,146.22-9.45,146.22-92.49,24.74-44.15,109.1a41.27,41.27,0,0,0,4.11,5.71l1.76-1.89c-32.29-71.16,71.25-110.81,71.25-110.81s-16.15-69.13,5.7-125,125.15-12.8,178.35-23c48.21-9.22,38.35-51.37,28.26-121.74C1498.58,1288.06,1476.45,1356.45,1433.8,1354.43Z"/><path fill="#0f0f0f" d="M1479.15,1321.83l-2.28,3.21A38,38,0,0,0,1479.15,1321.83Z"/><path fill="#0f0f0f" d="M1484,1248.8s11.79,47-4.85,73l26.93-38s-30.63-121.42,40.61-212.15C1546.69,1071.72,1470.46,1096.31,1484,1248.8Z"/><path fill="#b74c34" d="M1895.3,2344.89c70.27,69.59,85.51,144.92,85.51,144.92l31.35-31.51c0-33.55-83.59-141.31-83.59-141.31Z"/><path fill="#b74c34" d="M1576.14,2583.34c-32.05,24.5-42.91,24.43-43.65,24.4,1.89.11,79.35,4.46,83.32-3.32s-6.74-257-27-292C1588.81,2312.38,1609.39,2557.92,1576.14,2583.34Z" opacity=".51"/><path fill="#b74c34" d="M1532.49,2607.74h0Z" opacity=".51"/><path fill="#3d5891" d="M1193.32,2015.06c-62.7-6.1-98.8,22.36-98.8,22.36L1440.1,2611l18.25.25,36.1-3.55c38-170.79-63.65-470.69-86.45-531.69S1256,2021.16,1193.32,2015.06Z"/><path fill="#2f4171" d="M1280.05,2042.62,1059.83,2039c-77.19,15.66-43.13,139.7-3.4,277s32.91,290.24,32.91,290.24L1440.1,2611c9.09-79.48-14.75-340.81-44.27-462.45S1280.05,2042.62,1280.05,2042.62Z"/><path fill="#1d5644" d="M3417.51,1860.22c25-9.12,91.15-37.26,126.9-90.16l2.85-92.51S3469.48,1834.17,3417.51,1860.22Z"/><path fill="#1d5644" d="M3417.51,1860.22c-6.22,2.27-9.89,3.36-9.89,3.36A34.37,34.37,0,0,0,3417.51,1860.22Z"/><path fill="#1d5644" d="M4131.9,1771c44.59,25.79,70.49,52.54,70.49,52.54,3.95-25.36-69.49-137.81-69.49-137.81Z"/><path d="M3740.62,981.71l-7.45,5.41s-103.33-6.4-109.11,54.34,52.58,103.14,52.58,103.14-49.59-83.11-11.59-111.58,72.2-31.51,72.2-31.51,98.79-62,180.48-24.4c0,0,.24-3.51.52-8.53C3903.54,957.23,3829.28,907.46,3740.62,981.71Z"/><path d="M3868.34,1178.4c-4.75-19.32-21.85-28.47-21.85-28.47-51.3,13.22-142.57-106-142.57-106s16.39,118.92,143.6,143.73c0,0,4.47,41.07,26,38,0,0,9.95-10.8,27.62-30.51a21.13,21.13,0,0,1,7.55-5.47c-.2-2.27-.37-3.63-.37-3.63S3873.09,1197.71,3868.34,1178.4Z"/><path d="M3793.27,1076.93c-31.39-46.27-41.89-90.26-42-90.85h0l-9,2.39c.43,1.86,10.92,46.09,43.31,94,19.05,28.15,41.74,51.64,67.44,69.8,32.13,22.71,69.05,37.1,109.73,42.76l1.2-9.83C3875.19,1172.82,3822.14,1119.49,3793.27,1076.93Z"/><path d="M3834.91,1052.89c-26.06-50-31.58-95.11-31.64-95.55l-9.19,1.22c.22,1.9,5.72,47.15,32.57,98.82,15.78,30.37,35.7,56.58,59.2,77.88,29.38,26.64,64.44,45.63,104.21,56.43l2.27-9.61C3905.59,1158.52,3858.85,1098.82,3834.91,1052.89Z"/><path fill="#ef8b8b" d="M1930.88,2321c57.71,69.38,81,130.19,81,130.19,7.84-5.34,38.48-56.42,38.48-56.42l-111.68-79.68Z"/><path fill="#ef8b8b" d="M4141,2086.73,4257.81,2134s12.83-23.89,15.68-28l-130.62-26.94Z"/><polygon fill="#ef8b8b" points="3191.98 1488.97 3201.17 1529.8 3276.92 1451.41 3274.15 1443.73 3191.98 1488.97"/><path fill="#f5b0a6" d="M3166.1,1336.73l-58.86-24.14S3149.47,1334.7,3166.1,1336.73Z"/><path fill="#ef8b8b" d="M3166.3,1334.81c-16.12-2-57.85-23.73-58.27-24a1.74,1.74,0,0,0-2.41.88,2,2,0,0,0,.82,2.59c1.74.91,42.71,22.28,59.45,24.32l.21,0a1.85,1.85,0,0,0,1.79-1.72A1.9,1.9,0,0,0,3166.3,1334.81Z"/><path fill="#f5b0a6" d="M3164,1365.2l-56.42-16.12S3147.1,1365.2,3164,1365.2Z"/><path fill="#ef8b8b" d="M3164,1363.26c-16.34,0-55.38-15.83-55.77-16a1.77,1.77,0,0,0-2.33,1.12,2,2,0,0,0,1,2.49c1.63.67,40.06,16.25,57.06,16.25a1.94,1.94,0,0,0,0-3.87Z"/><path fill="#1e3b7c" d="M4085.87,2063.09l-182.6,19.3-.32-39.62-152.13,3-.27,35L3563.65,2060l-20,99.88s465.94-6.1,545.74-73.19Z" opacity=".54"/><path fill="#1d5644" d="M3325,1844.27c67.69,44.22,111.15,9.15,111.15,9.15C3392,1815.3,3325,1844.27,3325,1844.27Z"/><path fill="#1d5644" d="M4396.5,1829s30.4-82.34-32.29-151.47C4364.21,1677.55,4330,1802.59,4396.5,1829Z"/></svg>